<svg width="29" height="37" viewBox="0 0 29 37" fill="none" xmlns="http://www.w3.org/2000/svg">
<path d="M28.3165 1.8198C28.3165 0.923278 27.583 0.189758 26.6864 0.189758H2.23576C1.33923 0.189758 0.605713 0.923278 0.605713 1.8198V34.4207C0.605713 35.3172 1.33923 36.0507 2.23576 36.0507H26.6864C27.583 36.0507 28.3165 35.3172 28.3165 34.4207V1.8198ZM25.0564 32.7907H3.8658V3.44985H25.0564V32.7907ZM7.94092 26.8817C7.94092 26.1075 8.59293 25.4555 9.36721 25.4555H19.066C19.8402 25.4555 20.4923 26.1075 20.4923 26.8817C20.4923 27.656 19.8402 28.308 19.066 28.308H9.36721C8.59293 28.308 7.94092 27.656 7.94092 26.8817ZM7.94092 21.1766C7.94092 20.4023 8.59293 19.7503 9.36721 19.7503H19.066C19.8402 19.7503 20.4923 20.4023 20.4923 21.1766C20.4923 21.9509 19.8402 22.6029 19.066 22.6029H9.36721C8.59293 22.6029 7.94092 21.9509 7.94092 21.1766ZM20.5738 9.35876C20.5738 8.58449 19.9217 7.93247 19.1475 7.93247H9.36721C8.59293 7.93247 7.94092 8.58449 7.94092 9.35876V15.0639C7.94092 15.8382 8.59293 16.4902 9.36721 16.4902H19.1475C19.9217 16.4902 20.5738 15.8382 20.5738 15.0639V9.35876ZM10.7935 10.785H17.7212V13.6376H10.7935V10.785Z" fill="white"/>
</svg>
