<svg width="39" height="28" viewBox="0 0 39 28" fill="none" xmlns="http://www.w3.org/2000/svg">
<path d="M37.8803 10.6971C37.5543 10.2896 37.106 10.0451 36.617 10.0451H34.5794V5.60323C34.5794 4.82896 34.0089 4.3399 33.2347 4.3399H19.0125L17.1787 1.32436C16.9342 0.916849 16.4452 0.672302 15.9562 0.672302H5.4424C4.66813 0.672302 4.05686 1.12056 4.05686 1.89484V10.0451H2.42681C1.9378 10.0451 1.44879 10.2896 1.16353 10.6563C0.837521 11.0231 0.715266 11.5528 0.837519 12.0418L3.8531 25.8565C4.0161 26.59 4.66813 27.1605 5.4424 27.1605H33.2754C34.0089 27.1605 34.6609 26.6308 34.8647 25.938L38.247 12.1234C38.2878 11.5936 38.1655 11.1046 37.8803 10.6971ZM6.82793 3.52488H15.0597L16.8935 6.54042C17.138 6.94794 17.627 7.19248 18.116 7.19248H31.6861V10.0451H6.82793V3.52488ZM31.8899 23.9004H6.66493L4.34211 13.3052H34.4572L31.8899 23.9004Z" fill="white"/>
</svg>
