<svg width="39" height="29" viewBox="0 0 39 29" fill="none" xmlns="http://www.w3.org/2000/svg">
<path d="M37.2283 8.76512L20.1129 1.06315C19.6646 0.859391 19.1756 0.859391 18.7681 1.06315L1.65261 8.76512C1.08209 9.00962 0.715332 9.58014 0.715332 10.1914C0.715332 10.8027 1.12284 11.3732 1.69336 11.6584L3.1604 12.3512V18.0564C3.1604 18.6269 3.60866 19.0752 4.17918 19.0752C4.74969 19.0752 5.19796 18.6269 5.19796 18.0564V13.4515L7.64302 14.7555V21.6832C7.64302 21.9685 7.72453 22.213 7.88753 22.4575C8.05054 22.702 11.7589 28.2442 19.2571 28.2442C26.9591 28.2442 30.5044 22.6613 30.6674 22.4575C30.7897 22.2538 30.9119 21.9685 30.9119 21.724V15.0408L37.3913 11.74C37.9619 11.4547 38.2879 10.8842 38.2879 10.2729C38.2064 9.58012 37.7989 9.05038 37.2283 8.76512ZM28.0186 21.235C27.2036 22.213 24.4325 25.3916 19.2571 25.3916C14.204 25.3916 11.3106 22.2538 10.4956 21.235V16.2226L18.7273 20.42C18.9718 20.5422 19.2163 20.5829 19.4608 20.5829C19.7054 20.5829 19.9906 20.5422 20.2351 20.42L28.0186 16.467V21.235ZM19.4608 17.1191L6.09448 10.3544L19.4608 4.32324L32.8272 10.3544L19.4608 17.1191ZM5.19796 20.5015C5.48321 20.7867 5.68697 21.235 5.68697 21.6425C5.68697 22.05 5.52396 22.4982 5.19796 22.7835C4.9127 23.0687 4.46443 23.2726 4.05692 23.2726C3.64941 23.2726 3.20115 23.1095 2.91589 22.7835C2.63063 22.4982 2.42688 22.05 2.42688 21.6425C2.42688 21.235 2.58988 20.7867 2.91589 20.5015C3.20115 20.2162 3.64941 20.0125 4.05692 20.0125C4.46443 20.0125 4.87195 20.1755 5.19796 20.5015Z" fill="white"/>
</svg>
