<svg width="22" height="24" viewBox="0 0 22 24" fill="none" xmlns="http://www.w3.org/2000/svg">
<path d="M15.5162 16.9738H14.0162C14.0162 17.8022 14.6878 18.4738 15.5162 18.4738V16.9738ZM15.5164 16.9738L16.6789 16.0258C16.394 15.6765 15.9672 15.4738 15.5164 15.4738V16.9738ZM17.7691 19.7364V21.2364C18.3483 21.2364 18.8757 20.903 19.1241 20.3799C19.3725 19.8567 19.2976 19.2373 18.9316 18.7885L17.7691 19.7364ZM2 19.7364L0.837495 18.7885C0.471506 19.2373 0.396591 19.8567 0.645027 20.3799C0.893463 20.903 1.42086 21.2364 2 21.2364L2 19.7364ZM4.25253 16.974L5.41504 17.9219C5.63332 17.6542 5.75253 17.3194 5.75253 16.974H4.25253ZM9.88437 2.41406C5.94556 2.41406 2.75253 5.60709 2.75253 9.5459H5.75253C5.75253 7.26395 7.60242 5.41406 9.88437 5.41406V2.41406ZM17.0162 9.5459C17.0162 5.6071 13.8232 2.41406 9.88437 2.41406V5.41406C12.1663 5.41406 14.0162 7.26395 14.0162 9.5459H17.0162ZM17.0162 16.9738V9.5459H14.0162V16.9738H17.0162ZM15.5162 18.4738H15.5164V15.4738H15.5162V18.4738ZM14.3539 17.9217L16.6066 20.6843L18.9316 18.7885L16.6789 16.0258L14.3539 17.9217ZM17.7691 18.2364H2V21.2364H17.7691V18.2364ZM3.1625 20.6843L5.41504 17.9219L3.09003 16.0261L0.837495 18.7885L3.1625 20.6843ZM2.75253 9.5459V16.974H5.75253V9.5459H2.75253Z" fill="#5570FF"/>
<path fill-rule="evenodd" clip-rule="evenodd" d="M8.75781 20.9922V21.7498C8.75781 22.441 9.31814 23.0013 10.0093 23.0013C10.7005 23.0013 11.2608 22.441 11.2608 21.7498V20.9922H8.75781Z" fill="#5570FF"/>
<path fill-rule="evenodd" clip-rule="evenodd" d="M10.01 1.15039C9.45705 1.15039 9.00879 1.59865 9.00879 2.15161V4.16418H11.0112V2.15161C11.0112 1.59865 10.563 1.15039 10.01 1.15039Z" fill="#5570FF"/>
</svg>
