<svg width="28" height="28" viewBox="0 0 28 28" fill="none" xmlns="http://www.w3.org/2000/svg">
<circle cx="13.55" cy="13.5496" r="7.95825" transform="rotate(-180 13.55 13.5496)" fill="#4357BF"/>
<path d="M8.69694 14.1979C8.29182 14.1915 7.9817 13.8714 7.98809 13.4663C7.99129 13.2638 8.07272 13.0962 8.20989 12.9633C8.34706 12.8304 8.51709 12.7543 8.71965 12.7575L12.8384 12.8224L12.9033 8.70373C12.9065 8.50117 12.9879 8.33363 13.1251 8.20072C13.2623 8.06781 13.4323 7.9917 13.6349 7.9949C14.04 8.00129 14.3501 8.32135 14.3437 8.72647L14.2788 12.8452L18.3975 12.9101C18.8026 12.9165 19.1127 13.2366 19.1063 13.6417C19.0999 14.0468 18.7799 14.3569 18.3748 14.3505L14.2561 14.2856L14.1911 18.4043C14.1847 18.8094 13.8646 19.1195 13.4595 19.1131C13.0544 19.1067 12.7443 18.7867 12.7507 18.3815L12.8156 14.2628L8.69694 14.1979Z" fill="white"/>
</svg>
