<svg width="20" height="20" viewBox="0 0 20 20" fill="none" xmlns="http://www.w3.org/2000/svg">
<circle cx="9.54956" cy="9.55005" r="7.95825" fill="#4357BF"/>
<path d="M13.4852 12.4633C13.7717 12.7498 13.7717 13.1954 13.4852 13.4819C13.342 13.6252 13.1669 13.6888 12.9759 13.6888C12.7849 13.6888 12.6098 13.6252 12.4666 13.4819L9.55384 10.5692L6.64111 13.4819C6.49787 13.6252 6.32279 13.6888 6.13179 13.6888C5.9408 13.6888 5.76572 13.6252 5.62247 13.4819C5.33598 13.1954 5.33598 12.7498 5.62247 12.4633L8.53518 9.55055L5.62247 6.63783C5.33598 6.35133 5.33598 5.90566 5.62247 5.61917C5.90897 5.33267 6.35462 5.33267 6.64111 5.61917L9.55384 8.53189L12.4666 5.61917C12.7531 5.33267 13.1987 5.33267 13.4852 5.61917C13.7717 5.90566 13.7717 6.35133 13.4852 6.63783L10.5725 9.55055L13.4852 12.4633Z" fill="white"/>
</svg>
