<svg width="56" height="79" viewBox="0 0 56 79" fill="none" xmlns="http://www.w3.org/2000/svg">
<g clip-path="url(#clip0)">
<path d="M10.2727 78.8237V65.4338H5.12891V63.0927H18.3193V65.4338H13.1549V78.8237H10.2727Z" fill="#FCFCFC"/>
<path d="M28.1378 73.3899H20.4246C20.4836 74.5835 20.7836 75.4627 21.3221 76.0301C21.8606 76.5975 22.6632 76.8812 23.7273 76.8812C24.953 76.8812 26.0915 76.4825 27.1403 75.6876L27.9378 77.5866C27.407 78.0134 26.7505 78.3559 25.9762 78.614C25.1992 78.8721 24.4145 78.9999 23.6145 78.9999C21.7811 78.9999 20.34 78.4836 19.2912 77.4537C18.2425 76.4237 17.7168 75.0078 17.7168 73.211C17.7168 72.0762 17.945 71.0667 18.404 70.1849C18.863 69.3006 19.5041 68.6131 20.3323 68.1198C21.1605 67.6266 22.0991 67.3787 23.1478 67.3787C24.6838 67.3787 25.8992 67.877 26.7941 68.8713C27.6891 69.8655 28.1352 71.2328 28.1352 72.9708V73.3899H28.1378ZM21.4118 70.0188C20.9452 70.4533 20.6477 71.082 20.5144 71.9076H25.7223C25.6325 71.0667 25.3787 70.4354 24.9582 70.0086C24.5376 69.5818 23.9581 69.3671 23.2171 69.3671C22.4786 69.3671 21.876 69.5869 21.4118 70.0188Z" fill="#FCFCFC"/>
<path d="M32.5273 78.2945C31.6708 77.8242 31.0118 77.1572 30.5554 76.2959C30.0964 75.4346 29.8682 74.4225 29.8682 73.257C29.8682 72.0941 30.1092 71.0692 30.5887 70.1849C31.0682 69.3006 31.7477 68.6131 32.6273 68.1198C33.5068 67.6266 34.5222 67.3787 35.6761 67.3787C36.4736 67.3787 37.2454 67.5039 37.9916 67.7544C38.7378 68.0048 39.3327 68.3499 39.7763 68.792L38.9994 70.737C38.525 70.3536 38.025 70.0623 37.4916 69.8655C36.9608 69.6661 36.4351 69.5664 35.9172 69.5664C34.912 69.5664 34.1299 69.8808 33.5683 70.5044C33.0068 71.1306 32.7273 72.0328 32.7273 73.211C32.7273 74.3892 33.0042 75.2889 33.5581 75.9074C34.1119 76.5259 34.8992 76.8352 35.9197 76.8352C36.4377 76.8352 36.9608 76.7329 37.4942 76.5259C38.025 76.3189 38.5275 76.025 39.0019 75.6416L39.7789 77.5866C39.3045 78.0287 38.6916 78.3737 37.9378 78.6242C37.1839 78.8747 36.3941 78.9999 35.5659 78.9999C34.3966 78.9999 33.3837 78.7648 32.5273 78.2945Z" fill="#FCFCFC"/>
<path d="M52.3437 67.6675V78.8261H49.618V77.0371C49.2769 77.6556 48.7897 78.1386 48.1538 78.4837C47.5179 78.8287 46.7948 79.0025 45.9819 79.0025C45.0075 79.0025 44.1408 78.7673 43.3895 78.2945C42.6356 77.8243 42.051 77.1521 41.6381 76.2831C41.2253 75.4141 41.0176 74.4046 41.0176 73.257C41.0176 72.1095 41.2278 71.0871 41.6484 70.1977C42.0689 69.3057 42.6561 68.6157 43.41 68.1198C44.1639 67.6266 45.0203 67.3787 45.9819 67.3787C46.7948 67.3787 47.5179 67.5525 48.1538 67.8975C48.7897 68.2425 49.2769 68.7256 49.618 69.3441V67.6649H52.3437V67.6675ZM48.8641 75.887C49.3667 75.2531 49.618 74.3637 49.618 73.2136C49.618 72.0353 49.3667 71.1306 48.8641 70.4967C48.3615 69.8629 47.6461 69.546 46.7127 69.546C45.7973 69.546 45.0844 69.8731 44.5742 70.53C44.0639 71.1868 43.81 72.0941 43.81 73.2596C43.81 74.4097 44.0639 75.2915 44.5742 75.91C45.0844 76.5285 45.805 76.8377 46.7358 76.8377C47.6512 76.8352 48.3615 76.5182 48.8641 75.887Z" fill="#FCFCFC"/>
<path d="M50.7756 21.5562L30.7415 26.7652C30.6163 26.9273 30.5305 27.0368 30.4053 27.1989V56.4264C30.6712 56.6038 30.7613 56.663 31.0272 56.8404L52.2327 48.0347C52.5843 47.8879 52.6063 47.3994 52.2678 47.2242C50.8415 46.4926 48.0615 44.8037 46.5319 42.1314C44.532 38.6441 44.2683 33.1679 46.6572 28.8023C48.6878 25.0895 48.479 25.3392 51.2239 22.29C51.5184 21.9593 51.2064 21.4445 50.7756 21.5562Z" fill="#FCFCFC"/>
<path d="M50.3889 42.219C48.3956 42.219 46.7803 40.609 46.7803 38.6222V31.4309C46.7803 29.4441 48.3956 27.8341 50.3889 27.8341C52.3822 27.8341 53.9975 29.4441 53.9975 31.4309V38.6222C53.9953 40.609 52.38 42.219 50.3889 42.219Z" fill="#FCFCFC"/>
<path d="M9.21922 21.5562L29.2533 26.7652C29.3786 26.9273 29.4643 27.0368 29.5896 27.1989V56.4264C29.3236 56.6038 29.2335 56.663 28.9676 56.8404L7.76215 48.0347C7.41052 47.8879 7.38855 47.3994 7.72699 47.2242C9.15329 46.4926 11.9334 44.8037 13.4629 42.1314C15.4628 38.6441 15.7266 33.1679 13.3377 28.8023C11.307 25.0895 11.5158 25.3392 8.77089 22.29C8.4764 21.9593 8.78847 21.4445 9.21922 21.5562Z" fill="#FCFCFC"/>
<path d="M9.6086 42.219C11.6019 42.219 13.2172 40.609 13.2172 38.6222V31.4309C13.2172 29.4441 11.6019 27.8341 9.6086 27.8341C7.6153 27.8363 6 29.4463 6 31.4309V38.6222C6 40.609 7.6153 42.219 9.6086 42.219Z" fill="#FCFCFC"/>
<path d="M25.929 20.7041L22.2325 23.6984C22.1028 23.8036 22.1446 24.0073 22.3028 24.0577L29.6827 26.3117C29.8387 26.3884 30.0211 26.3905 30.1771 26.3161L37.179 24.3184C37.3042 24.3184 37.5548 24.0686 37.3042 23.8211L34.5549 20.7063C34.4297 20.5814 33.9308 20.0842 34.3044 19.5847C34.0539 19.7096 34.3044 19.5847 34.3044 19.5847C36.8823 18.2069 38.5042 15.6419 38.5745 12.5402C38.6844 7.72332 34.6055 3.76951 29.7772 4.01046C25.351 4.22732 21.8281 7.87665 21.8281 12.343C21.8281 15.4404 23.5225 18.1412 26.0345 19.5825C26.0345 19.5825 26.6806 20.2046 25.929 20.7041Z" fill="#FCFCFC"/>
</g>
<defs>
<clipPath id="clip0">
<rect width="56" height="79" fill="white"/>
</clipPath>
</defs>
</svg>
