<svg width="32" height="32" viewBox="0 0 32 32" fill="none" xmlns="http://www.w3.org/2000/svg">
<path d="M28.16 9.81339C28.16 9.78672 28.16 9.73338 28.16 9.70672C28.16 9.68005 28.16 9.65337 28.16 9.6267C28.16 9.60004 28.1333 9.5734 28.1333 9.52006C28.1333 9.4934 28.1067 9.44006 28.1067 9.41339C28.1067 9.38672 28.08 9.36004 28.0534 9.33338C28.0267 9.30671 28.0266 9.25337 28 9.2267V9.20004C27.9733 9.17338 27.9733 9.17339 27.9467 9.14672C27.92 9.12006 27.8933 9.09338 27.8666 9.06671C27.84 9.04004 27.8134 9.01339 27.7867 9.01339C27.76 8.98672 27.7334 8.96004 27.7067 8.96004C27.68 8.93337 27.6533 8.93338 27.6267 8.90672C27.6 8.88005 27.5733 8.88006 27.5467 8.8534C27.52 8.8534 27.4667 8.8267 27.44 8.8267C27.4134 8.8267 27.3866 8.80004 27.3333 8.80004C27.3066 8.80004 27.2533 8.80004 27.2267 8.80004C27.2 8.80004 27.1733 8.80004 27.1467 8.80004H4.74666C4.71999 8.80004 4.69334 8.80004 4.66668 8.80004C4.64001 8.80004 4.58667 8.80004 4.56 8.80004C4.53334 8.80004 4.50666 8.8267 4.45333 8.8267C4.42666 8.8267 4.37332 8.8534 4.34666 8.8534C4.31999 8.8534 4.29334 8.88005 4.26668 8.90672C4.24001 8.93338 4.21333 8.93337 4.18666 8.96004C4.16 8.9867 4.13335 8.98672 4.10668 9.01339C4.08002 9.04006 4.05334 9.06671 4.02667 9.06671C4 9.09338 3.97332 9.12006 3.94666 9.14672C3.91999 9.17339 3.92 9.17338 3.89334 9.20004V9.2267C3.86667 9.25337 3.84002 9.30671 3.84002 9.33338C3.81335 9.36004 3.81333 9.38672 3.78666 9.41339C3.76 9.44006 3.76 9.46673 3.76 9.52006C3.76 9.54673 3.73334 9.57337 3.73334 9.6267C3.73334 9.65337 3.73334 9.68005 3.73334 9.70672C3.73334 9.73338 3.73334 9.78672 3.73334 9.81339V9.84005V22.1067C3.73334 22.6934 4.21334 23.1734 4.80001 23.1734H27.2C27.7866 23.1734 28.2666 22.6934 28.2666 22.1067L28.16 9.81339C28.16 9.81339 28.16 9.84006 28.16 9.81339ZM23.8666 10.9067L15.8933 16.8267L7.92 10.9067H23.8666ZM5.76 21.04V11.9734L15.2533 19.0134C15.44 19.1467 15.6533 19.2267 15.8933 19.2267C16.1333 19.2267 16.3467 19.1467 16.5333 19.0134L26.0267 11.9734V21.04H5.76Z" fill="#5570FF"/>
</svg>
