<svg width="62" height="96" viewBox="0 0 62 96" fill="none" xmlns="http://www.w3.org/2000/svg">
<path d="M6.52601 94.8373V78.0167H0V75.0757H16.7347V78.0167H10.1827V94.8373H6.52601Z" fill="white"/>
<path d="M29.1912 88.0114H19.4054C19.4802 89.5108 19.8609 90.6153 20.544 91.328C21.2272 92.0408 22.2455 92.3972 23.5956 92.3972C25.1506 92.3972 26.5951 91.8963 27.9257 90.8978L28.9374 93.2833C28.264 93.8195 27.4312 94.2497 26.4487 94.574C25.463 94.8983 24.4675 95.0588 23.4524 95.0588C21.1264 95.0588 19.298 94.4102 17.9675 93.1163C16.6369 91.8225 15.97 90.0438 15.97 87.7867C15.97 86.3611 16.2595 85.0929 16.8418 83.9852C17.4242 82.8744 18.2375 82.0107 19.2883 81.391C20.3391 80.7714 21.5298 80.46 22.8604 80.46C24.809 80.46 26.3511 81.086 27.4865 82.335C28.6219 83.5839 29.1879 85.3016 29.1879 87.4849V88.0114H29.1912ZM20.6579 83.7766C20.0658 84.3224 19.6884 85.1122 19.5193 86.1492H26.1266C26.0127 85.0929 25.6907 84.2999 25.1571 83.7637C24.6236 83.2275 23.8884 82.9578 22.9482 82.9578C22.0113 82.9578 21.2467 83.234 20.6579 83.7766Z" fill="white"/>
<path d="M34.7606 94.1726C33.674 93.5819 32.8379 92.7439 32.2588 91.6619C31.6765 90.5799 31.387 89.3085 31.387 87.8445C31.387 86.3836 31.6928 85.0961 32.3011 83.9852C32.9095 82.8744 33.7716 82.0107 34.8875 81.391C36.0033 80.7714 37.2916 80.46 38.7556 80.46C39.7673 80.46 40.7465 80.6173 41.6932 80.9319C42.6399 81.2466 43.3947 81.68 43.9575 82.2355L42.9718 84.6788C42.3699 84.1972 41.7355 83.8311 41.0589 83.5839C40.3854 83.3335 39.7185 83.2083 39.0614 83.2083C37.7861 83.2083 36.7939 83.6032 36.0814 84.3866C35.3689 85.1732 35.0143 86.3066 35.0143 87.7867C35.0143 89.2668 35.3657 90.3969 36.0684 91.1739C36.7711 91.9509 37.7698 92.3394 39.0646 92.3394C39.7218 92.3394 40.3854 92.2109 41.0621 91.9509C41.7355 91.6908 42.3732 91.3216 42.975 90.84L43.9608 93.2833C43.3589 93.8387 42.5814 94.2722 41.6249 94.5868C40.6685 94.9015 39.6665 95.0588 38.6157 95.0588C37.1322 95.0588 35.8472 94.7634 34.7606 94.1726Z" fill="white"/>
<path d="M59.9018 80.8228V94.8405H56.4436V92.593C56.0109 93.37 55.3928 93.9768 54.586 94.4102C53.7792 94.8437 52.8618 95.062 51.8305 95.062C50.5943 95.062 49.4947 94.7666 48.5415 94.1727C47.585 93.5819 46.8433 92.7375 46.3195 91.6459C45.7957 90.5542 45.5322 89.286 45.5322 87.8445C45.5322 86.4029 45.799 85.1186 46.3325 84.0013C46.8661 82.8808 47.611 82.0139 48.5675 81.391C49.524 80.7714 50.6105 80.46 51.8305 80.46C52.8618 80.46 53.7792 80.6783 54.586 81.1117C55.3928 81.5452 56.0109 82.152 56.4436 82.929V80.8196H59.9018V80.8228ZM55.4872 91.1482C56.1248 90.352 56.4436 89.2347 56.4436 87.7899C56.4436 86.3098 56.1248 85.1732 55.4872 84.377C54.8495 83.5807 53.9419 83.1826 52.7577 83.1826C51.5963 83.1826 50.6919 83.5936 50.0445 84.4187C49.3971 85.2438 49.075 86.3836 49.075 87.8477C49.075 89.2925 49.3971 90.4001 50.0445 91.1771C50.6919 91.9541 51.606 92.3426 52.787 92.3426C53.9484 92.3394 54.8495 91.9413 55.4872 91.1482Z" fill="white"/>
<path d="M57.9131 22.8969L32.4957 29.4405C32.3368 29.6441 32.228 29.7817 32.0691 29.9853V66.7014C32.4065 66.9243 32.5208 66.9986 32.8582 67.2215L59.7617 56.1596C60.2078 55.9752 60.2357 55.3616 59.8063 55.1414C57.9968 54.2224 54.4697 52.1008 52.529 48.7437C49.9918 44.363 49.6572 37.4837 52.688 31.9995C55.2643 27.3354 54.9994 27.6491 58.4819 23.8187C58.8555 23.4032 58.4596 22.7565 57.9131 22.8969Z" fill="white"/>
<path d="M57.422 48.8538C54.8931 48.8538 52.8438 46.8313 52.8438 44.3354V35.3016C52.8438 32.8058 54.8931 30.7833 57.422 30.7833C59.9509 30.7833 62.0003 32.8058 62.0003 35.3016V44.3354C61.9975 46.8313 59.9481 48.8538 57.422 48.8538Z" fill="white"/>
<path d="M5.19074 22.8969L30.6082 29.4405C30.7671 29.6441 30.8758 29.7817 31.0348 29.9853V66.7014C30.6974 66.9243 30.5831 66.9986 30.2457 67.2215L3.34215 56.1596C2.89603 55.9752 2.86815 55.3616 3.29754 55.1414C5.10709 54.2224 8.63419 52.1008 10.5748 48.7437C13.1121 44.363 13.4467 37.4837 10.4159 31.9995C7.83955 27.3354 8.10443 27.6491 4.62194 23.8187C4.24832 23.4032 4.64425 22.7565 5.19074 22.8969Z" fill="white"/>
<path d="M5.68397 48.8538C8.21288 48.8538 10.2622 46.8313 10.2622 44.3354V35.3016C10.2622 32.8058 8.21288 30.7833 5.68397 30.7833C3.15505 30.786 1.10571 32.8085 1.10571 35.3016V44.3354C1.10571 46.8313 3.15505 48.8538 5.68397 48.8538Z" fill="white"/>
<path d="M26.3896 21.8265L21.6998 25.5881C21.5353 25.7201 21.5883 25.976 21.789 26.0393L31.1519 28.8708C31.3498 28.9672 31.5813 28.9699 31.7792 28.8763L40.6625 26.3668C40.8214 26.3668 41.1393 26.0531 40.8214 25.7421L37.3333 21.8292C37.1744 21.6724 36.5415 21.0477 37.0155 20.4203C36.6976 20.5772 37.0155 20.4203 37.0155 20.4203C40.2861 18.6895 42.3438 15.4673 42.433 11.5708C42.5724 5.51982 37.3975 0.552982 31.2718 0.85567C25.6563 1.12809 21.1868 5.71244 21.1868 11.3232C21.1868 15.2141 23.3365 18.607 26.5234 20.4176C26.5234 20.4176 27.3432 21.1991 26.3896 21.8265Z" fill="white"/>
</svg>
