<svg width="21" height="26" viewBox="0 0 21 26" fill="none" xmlns="http://www.w3.org/2000/svg">
<path d="M21 1.18182C21 0.531818 20.4441 0 19.7647 0H1.23529C0.555882 0 0 0.531818 0 1.18182V24.8182C0 25.4682 0.555882 26 1.23529 26H19.7647C20.4441 26 21 25.4682 21 24.8182V1.18182ZM18.5294 23.6364H2.47059V2.36364H18.5294V23.6364ZM5.40441 15.8068C5.40441 15.2455 5.89853 14.7727 6.48529 14.7727H10.1294C10.7162 14.7727 11.2103 15.2455 11.2103 15.8068C11.2103 16.3682 10.7162 16.8409 10.1294 16.8409H6.48529C5.86765 16.8409 5.40441 16.3682 5.40441 15.8068ZM5.55882 11.0795C5.55882 10.5182 6.05294 10.0455 6.63971 10.0455H13.9897C14.5765 10.0455 15.0706 10.5182 15.0706 11.0795C15.0706 11.6409 14.5765 12.1136 13.9897 12.1136H6.63971C6.05294 12.1136 5.55882 11.6409 5.55882 11.0795ZM5.55882 6.64773C5.55882 6.08636 6.05294 5.61364 6.63971 5.61364H13.9897C14.5765 5.61364 15.0706 6.08636 15.0706 6.64773C15.0706 7.20909 14.5765 7.68182 13.9897 7.68182H6.63971C6.05294 7.68182 5.55882 7.20909 5.55882 6.64773ZM14.7309 15.1568C14.9162 15.3341 15.0397 15.6 15.0397 15.8955C15.0397 16.1614 14.9162 16.4273 14.7309 16.6341C14.5456 16.8114 14.2368 16.9296 13.9588 16.9296C13.6809 16.9296 13.4029 16.8114 13.1868 16.6341C12.9706 16.4568 12.8779 16.1909 12.8779 15.8955C12.8779 15.6296 13.0015 15.3637 13.1868 15.1568C13.5882 14.7727 14.3294 14.7727 14.7309 15.1568Z" fill="white"/>
</svg>
