<svg width="27" height="29" viewBox="0 0 27 29" fill="none" xmlns="http://www.w3.org/2000/svg">
<path d="M26.704 2.61317L24.3036 0.286821C24.1036 0.0956122 23.8703 0 23.6035 0C23.3368 0 23.0701 0.0956122 22.9034 0.286821L8.93469 13.8308C8.83467 13.9264 8.76797 14.022 8.70129 14.1495L7.13441 17.9418C7.00106 18.2923 7.06772 18.7066 7.36776 18.9615C7.56779 19.1527 7.80115 19.2484 8.06786 19.2484C8.20121 19.2484 8.30126 19.2165 8.43461 19.1846L12.3685 17.6868C12.5019 17.6231 12.6019 17.5594 12.7019 17.4638L26.6707 3.9198C27.1041 3.56925 27.104 2.96372 26.704 2.61317ZM11.4684 15.9978L9.86814 16.6033L10.5016 15.0417L23.6035 2.32639L24.6037 3.28243L11.4684 15.9978ZM21.6699 14.8505V27.7253C21.6699 28.4264 21.0032 29 20.2697 29H1.33353C0.60009 29 0 28.4264 0 27.7253V3.44177C0 2.74067 0.60009 2.23077 1.33353 2.23077H15.2023C15.9357 2.23077 16.5358 2.8044 16.5358 3.50549C16.5358 4.20659 15.9357 4.78022 15.2023 4.78022H2.66707V26.4506H19.0028V14.8505C19.0028 14.1494 19.6029 13.5758 20.3364 13.5758C21.0698 13.5758 21.6699 14.1494 21.6699 14.8505Z" fill="#5570FF"/>
</svg>
