<svg width="25" height="27" viewBox="0 0 25 27" fill="none" xmlns="http://www.w3.org/2000/svg">
<path d="M25 17.34V25.5C25 26.34 24.3605 27 23.5465 27H1.45349C0.639535 27 0 26.34 0 25.5V17.34C0 16.5 0.639535 15.84 1.45349 15.84C2.26744 15.84 2.90698 16.5 2.90698 17.34V24H22.093V17.34C22.093 16.5 22.7326 15.84 23.5465 15.84C24.3605 15.84 25 16.5 25 17.34ZM11.4535 19.2C11.7151 19.5 12.093 19.65 12.5 19.65C12.907 19.65 13.2558 19.5 13.5465 19.2L19.3314 13.08C19.8837 12.48 19.8837 11.55 19.3023 10.95C18.7209 10.38 17.8198 10.38 17.2384 10.98L13.9244 14.46V1.5C13.9244 0.66 13.2849 0 12.4709 0C11.657 0 11.0174 0.66 11.0174 1.5V14.49L7.70349 11.01C7.15116 10.41 6.22094 10.41 5.63954 10.98C5.05815 11.55 5.05815 12.51 5.61048 13.11L11.4535 19.2Z" fill="#5570FF"/>
</svg>
