<svg width="18" height="24" viewBox="0 0 18 24" fill="none" xmlns="http://www.w3.org/2000/svg">
<path fill-rule="evenodd" clip-rule="evenodd" d="M-2.95639e-05 11.9994C-2.95639e-05 5.37234 5.37229 2.47955e-05 11.9994 2.47955e-05C11.9997 2.47955e-05 12 0.000303268 12 0.000646591V1.44C12 1.44008 11.9999 1.44015 11.9999 1.44015C6.16802 1.44015 1.44038 6.16779 1.44038 11.9996C1.44038 17.8315 6.16802 22.5591 11.9999 22.5591C11.9999 22.5591 12 22.5592 12 22.5592V23.9982C12 23.9986 11.9997 23.9988 11.9994 23.9988C5.37229 23.9988 -2.95639e-05 18.6265 -2.95639e-05 11.9994Z" fill="#5570FF"/>
<path d="M17.7926 12.6905L13.5341 16.9861C13.3973 17.1235 13.2262 17.1923 13.0552 17.1923C12.8842 17.1923 12.7132 17.1235 12.5764 16.9861C12.3027 16.7112 12.3027 16.2816 12.5764 16.0067L15.6719 12.8795H5.6841C5.30784 12.8795 5 12.5703 5 12.1923C5 11.8143 5.30784 11.505 5.6841 11.505H15.6719L12.5764 8.37783C12.3027 8.10292 12.3027 7.67336 12.5764 7.39845C12.85 7.12353 13.2776 7.12353 13.5512 7.39845L17.8097 11.694C18.0662 11.9861 18.0662 12.4328 17.7926 12.6905Z" fill="#5570FF"/>
</svg>
