<?xml version="1.0" encoding="utf-8"?>
<!-- Generator: Adobe Illustrator 25.2.3, SVG Export Plug-In . SVG Version: 6.00 Build 0)  -->
<svg version="1.1" id="Layer_1" xmlns="http://www.w3.org/2000/svg" xmlns:xlink="http://www.w3.org/1999/xlink" x="0px" y="0px"
	 viewBox="0 0 13 12" style="enable-background:new 0 0 13 12;" xml:space="preserve">
<style type="text/css">
	.st0{fill:#FFFFFF;}
</style>
<path class="st0" d="M1.4,2.3h10.4c0.6,0,1,0.4,1,1V4c0,0.6-0.4,1-1,1H1.4c-0.6,0-1-0.4-1-1V3.3C0.4,2.8,0.8,2.3,1.4,2.3z"/>
<path class="st0" d="M1.4,6.7h10.4c0.6,0,1,0.4,1,1v0.6c0,0.6-0.4,1-1,1H1.4c-0.6,0-1-0.4-1-1V7.7C0.4,7.2,0.8,6.7,1.4,6.7z"/>
</svg>
