<svg width="32" height="32" viewBox="0 0 32 32" fill="none" xmlns="http://www.w3.org/2000/svg">
<path d="M27.6334 12.1334L16.4334 7.0934C16.1401 6.96007 15.8201 6.96007 15.5534 7.0934L4.35345 12.1334C3.98011 12.2934 3.74011 12.6667 3.74011 13.0667C3.74011 13.4667 4.00678 13.8401 4.38011 14.0267L5.34011 14.4801V18.2134C5.34011 18.5868 5.63345 18.8801 6.00678 18.8801C6.38011 18.8801 6.67345 18.5868 6.67345 18.2134V15.2001L8.27345 16.0534V20.5867C8.27345 20.7734 8.32678 20.9334 8.43345 21.0934C8.54011 21.2534 10.9668 24.8801 15.8734 24.8801C20.9134 24.8801 23.2334 21.2268 23.3401 21.0934C23.4201 20.9601 23.5001 20.7734 23.5001 20.6134V16.2401L27.7401 14.0801C28.1134 13.8934 28.3268 13.5201 28.3268 13.1201C28.2734 12.6667 28.0068 12.3201 27.6334 12.1334ZM21.6068 20.2934C21.0734 20.9334 19.2601 23.0134 15.8734 23.0134C12.5668 23.0134 10.6734 20.9601 10.1401 20.2934V17.0134L15.5268 19.7601C15.6868 19.8401 15.8468 19.8667 16.0068 19.8667C16.1668 19.8667 16.3534 19.8401 16.5134 19.7601L21.6068 17.1734V20.2934ZM16.0068 17.6001L7.26011 13.1734L16.0068 9.22673L24.7534 13.1734L16.0068 17.6001ZM6.67345 19.8134C6.86011 20.0001 6.99344 20.2934 6.99344 20.5601C6.99344 20.8268 6.88678 21.12 6.67345 21.3067C6.48678 21.4934 6.19344 21.6268 5.92678 21.6268C5.66011 21.6268 5.36678 21.52 5.18011 21.3067C4.99344 21.12 4.86011 20.8268 4.86011 20.5601C4.86011 20.2934 4.96678 20.0001 5.18011 19.8134C5.36678 19.6268 5.66011 19.4934 5.92678 19.4934C6.19344 19.4934 6.46011 19.6001 6.67345 19.8134Z" fill="#5570FF"/>
</svg>
