<svg width="27" height="23" viewBox="0 0 27 23" fill="none" xmlns="http://www.w3.org/2000/svg">
<path d="M25.8269 5.14747C25.6069 4.92747 25.3319 4.9 25.0569 4.9H19.2819V1.6C19.2819 0.995 18.7319 0.5 18.1269 0.5H8.88692C8.28192 0.5 7.73193 0.995 7.73193 1.6V4.9H1.95693C1.35193 4.9 0.856934 5.2575 0.856934 5.8625V21.4C0.856934 22.005 1.35193 22.5 1.95693 22.5H25.0569C25.6619 22.5 26.1569 22.005 26.1569 21.4V5.91749C26.1569 5.61499 26.0469 5.36747 25.8269 5.14747ZM9.93193 2.7H17.0819V4.9H9.93193V2.7ZM23.9569 7.1V12.875H16.2569V12.4625C16.2569 11.995 15.8169 11.775 15.3494 11.775H11.6369C11.1694 11.775 10.7294 12.0225 10.7294 12.4625V12.875H3.02944V7.1H23.9569ZM14.6069 13.425V13.975H12.4069V13.425H14.6069ZM3.05693 20.3V14.525H10.7569V14.8C10.7569 15.2675 11.1969 15.625 11.6644 15.625H15.3769C15.8444 15.625 16.2844 15.24 16.2844 14.8V14.525H23.9844V20.3H3.05693Z" fill="#5570FF"/>
</svg>
