<svg width="32" height="32" viewBox="0 0 32 32" fill="none" xmlns="http://www.w3.org/2000/svg">
<path d="M20.3534 18.5333C22.4068 18.5333 24.0868 16.8533 24.0868 14.8C24.0868 12.7467 22.4068 11.0667 20.3534 11.0667C18.3001 11.0667 16.6201 12.7467 16.6201 14.8C16.6201 16.8533 18.3001 18.5333 20.3534 18.5333ZM20.3534 12.6667C21.5268 12.6667 22.4868 13.6267 22.4868 14.8C22.4868 15.9733 21.5268 16.9333 20.3534 16.9333C19.1801 16.9333 18.2201 15.9733 18.2201 14.8C18.2201 13.6267 19.1801 12.6667 20.3534 12.6667ZM7.92678 13.0667C7.92678 12.6133 8.27345 12.2667 8.72678 12.2667H13.3668C13.8201 12.2667 14.1668 12.6133 14.1668 13.0667C14.1668 13.52 13.8201 13.8667 13.3668 13.8667H8.72678C8.27345 13.8667 7.92678 13.52 7.92678 13.0667ZM13.3668 16.8H8.72678C8.27345 16.8 7.92678 16.4533 7.92678 16C7.92678 15.5467 8.27345 15.2 8.72678 15.2H13.3668C13.8201 15.2 14.1668 15.5467 14.1668 16C14.1668 16.4533 13.8201 16.8 13.3668 16.8ZM12.1934 18.9333C12.1934 19.3867 11.8468 19.7333 11.3934 19.7333H8.70011C8.24677 19.7333 7.90011 19.3867 7.90011 18.9333C7.90011 18.48 8.24677 18.1333 8.70011 18.1333H11.3934C11.8468 18.1333 12.1934 18.48 12.1934 18.9333ZM28.2734 9.76003C28.2734 8.80003 27.4735 8 26.5135 8H5.50011C4.54011 8 3.74011 8.80003 3.74011 9.76003V22.24C3.74011 23.2 4.54011 24 5.50011 24H26.5135C27.4735 24 28.2734 23.2 28.2734 22.24V9.76003ZM5.87345 10.1333H26.1401V21.2533C25.0734 20.1333 23.0201 19.3867 22.2468 19.12C22.0868 19.0667 21.9001 19.0667 21.7135 19.12L20.3534 19.6L18.9934 19.12C18.8334 19.0667 18.6468 19.0933 18.4601 19.1467C17.5801 19.44 15.0468 20.2667 14.1135 21.8667H5.87345V10.1333ZM16.4601 21.8667C17.0734 21.3333 17.8734 21.0667 18.7268 20.7467L20.0868 21.2267C20.2468 21.28 20.4601 21.28 20.6201 21.2267L21.9801 20.7733C22.8335 21.0933 23.6335 21.36 24.2468 21.8934H16.4601V21.8667Z" fill="#5570FF"/>
</svg>
