<svg width="16" height="12" viewBox="0 0 16 12" fill="none" xmlns="http://www.w3.org/2000/svg">
<g clip-path="url(#clip0)">
<path d="M16.0014 5.92771C16.0014 6.21009 16.0014 6.49223 16.0014 6.77461C15.9928 6.81356 15.9807 6.85228 15.9764 6.89172C15.9299 7.29799 15.8402 7.69579 15.6889 8.07858C15.295 9.07525 14.5903 9.85149 13.7234 10.5012C12.9083 11.1117 11.9646 11.4763 10.9614 11.7038C9.99607 11.9228 9.01179 11.9941 8.02138 12.0007C7.35454 12.0053 6.74189 11.8439 6.20489 11.4601C5.72285 11.1158 5.37933 10.6747 5.19071 10.129C5.07007 9.77987 5.04885 9.41861 5.03582 9.05493C5.02253 8.68593 4.91365 8.34668 4.61869 8.08584C4.39096 7.88452 4.10675 7.78846 3.81026 7.72119C3.32183 7.61061 2.82266 7.614 2.32502 7.59295C1.83837 7.57238 1.38291 7.44196 0.996713 7.15256C0.568598 6.83171 0.305084 6.40125 0.161442 5.9086C0.0893653 5.66179 0.0540937 5.40554 0.00195312 5.15365C0.00195312 4.97629 0.00195312 4.79868 0.00195312 4.62132C0.0569052 4.41903 0.0965218 4.21167 0.170132 4.01567C0.324509 3.6036 0.553007 3.22661 0.821378 2.87115C1.39416 2.11282 2.07403 1.46507 2.93256 0.991776C4.00042 0.403064 5.14163 0.0454325 6.37997 0.00889507C7.6523 -0.0286102 8.91697 0.0623703 10.1653 0.307728C10.8789 0.44807 11.5721 0.651808 12.243 0.927412C13.0984 1.27899 13.8846 1.71914 14.5165 2.38334C14.8958 2.78211 15.2045 3.22322 15.4394 3.70934C15.6996 4.24796 15.8621 4.81393 15.9301 5.40361C15.9493 5.57855 15.9772 5.75301 16.0014 5.92771ZM8.00655 8.00381C7.31032 8.00139 6.74061 8.53639 6.73499 9.19745C6.72962 9.85053 7.30266 10.3976 7.99633 10.4015C8.68821 10.4054 9.25921 9.86867 9.26713 9.20713C9.27505 8.55284 8.70253 8.00623 8.00655 8.00381ZM9.04272 3.60045C9.62087 3.61376 10.1055 3.16297 10.1144 2.60402C10.1231 2.05693 9.65512 1.60807 9.06675 1.59912C8.49371 1.59041 8.01805 2.02668 8.00246 2.57523C7.98662 3.12861 8.45154 3.5869 9.04272 3.60045ZM2.75569 5.99934C3.33997 5.99643 3.80822 5.54903 3.80515 4.99613C3.80208 4.44081 3.33179 3.99752 2.74828 3.99994C2.15812 4.00236 1.68579 4.45388 1.69218 5.00944C1.69831 5.56282 2.17064 6.00224 2.75569 5.99934ZM12.4073 5.19987C12.987 5.19987 13.4634 4.75223 13.467 4.20416C13.4706 3.65175 12.9898 3.19781 12.4037 3.20023C11.8187 3.20265 11.3515 3.64763 11.3525 4.20126C11.3535 4.75271 11.8256 5.19963 12.4073 5.19987ZM6.73013 2.59434C6.72809 2.03926 6.26087 1.59815 5.67556 1.59936C5.09921 1.60033 4.64707 2.04338 4.65167 2.60281C4.65601 3.16055 5.1033 3.59803 5.67173 3.60069C6.25703 3.60335 6.73192 3.15184 6.73013 2.59434Z" fill="white"/>
</g>
<defs>
<clipPath id="clip0">
<rect width="16" height="12" fill="white"/>
</clipPath>
</defs>
</svg>
