<svg width="28" height="24" viewBox="0 0 28 24" fill="none" xmlns="http://www.w3.org/2000/svg">
<path d="M1.04032 10.67L5.41033 15.1034C5.66366 15.3567 5.98034 15.4834 6.32867 15.4834C6.67701 15.4834 6.99364 15.3567 7.24698 15.1034L11.617 10.67C12.092 10.1634 12.092 9.3717 11.617 8.86503C11.1103 8.39003 10.3187 8.39003 9.81201 8.86503L7.37365 11.335C7.69032 6.74336 11.4587 3.10169 16.0503 3.10169C20.8637 3.10169 24.7587 7.09169 24.7587 11.9684C24.7587 16.845 20.8637 20.835 16.0503 20.835C14.277 20.835 12.567 20.2967 11.142 19.2834C10.572 18.8717 9.78033 19.03 9.36867 19.6C8.957 20.17 9.11533 20.9617 9.68533 21.3734C11.5537 22.6717 13.7703 23.3684 16.0503 23.3684C22.257 23.3684 27.292 18.27 27.292 11.9684C27.292 5.66669 22.257 0.568357 16.0503 0.568357C10.2237 0.568357 5.41031 5.09669 4.87197 10.8917L2.877 8.86503C2.37033 8.35836 1.57864 8.35836 1.07197 8.86503C0.565308 9.3717 0.565316 10.1634 1.04032 10.67Z" fill="#BEC8FD"/>
</svg>
