<svg width="38" height="38" viewBox="0 0 38 38" fill="none" xmlns="http://www.w3.org/2000/svg">
<path d="M6.04032 17.67L10.4103 22.1034C10.6637 22.3567 10.9803 22.4834 11.3287 22.4834C11.677 22.4834 11.9936 22.3567 12.247 22.1034L16.617 17.67C17.092 17.1634 17.092 16.3717 16.617 15.865C16.1103 15.39 15.3187 15.39 14.812 15.865L12.3736 18.335C12.6903 13.7434 16.4587 10.1017 21.0503 10.1017C25.8637 10.1017 29.7587 14.0917 29.7587 18.9684C29.7587 23.845 25.8637 27.835 21.0503 27.835C19.277 27.835 17.567 27.2967 16.142 26.2834C15.572 25.8717 14.7803 26.03 14.3687 26.6C13.957 27.17 14.1153 27.9617 14.6853 28.3734C16.5537 29.6717 18.7703 30.3684 21.0503 30.3684C27.257 30.3684 32.292 25.27 32.292 18.9684C32.292 12.6667 27.257 7.56836 21.0503 7.56836C15.2237 7.56836 10.4103 12.0967 9.87197 17.8917L7.877 15.865C7.37033 15.3584 6.57864 15.3584 6.07197 15.865C5.56531 16.3717 5.56532 17.1634 6.04032 17.67Z" fill="#BEC8FD"/>
</svg>
