<svg width="28" height="24" viewBox="0 0 28 24" fill="none" xmlns="http://www.w3.org/2000/svg">
<path d="M26.9597 10.67L22.5897 15.1034C22.3363 15.3567 22.0197 15.4834 21.6713 15.4834C21.323 15.4834 21.0064 15.3567 20.753 15.1034L16.383 10.67C15.908 10.1634 15.908 9.3717 16.383 8.86503C16.8897 8.39003 17.6813 8.39003 18.188 8.86503L20.6264 11.335C20.3097 6.74336 16.5413 3.10169 11.9497 3.10169C7.13634 3.10169 3.24134 7.09169 3.24134 11.9684C3.24134 16.845 7.13634 20.835 11.9497 20.835C13.723 20.835 15.433 20.2967 16.858 19.2834C17.428 18.8717 18.2197 19.03 18.6313 19.6C19.043 20.17 18.8847 20.9617 18.3147 21.3734C16.4463 22.6717 14.2297 23.3684 11.9497 23.3684C5.74301 23.3684 0.708008 18.27 0.708008 11.9684C0.708008 5.66669 5.74301 0.568357 11.9497 0.568357C17.7763 0.568357 22.5897 5.09669 23.128 10.8917L25.123 8.86503C25.6297 8.35836 26.4214 8.35836 26.928 8.86503C27.4347 9.3717 27.4347 10.1634 26.9597 10.67Z" fill="#BEC8FD"/>
</svg>
