<svg width="38" height="38" viewBox="0 0 38 38" fill="none" xmlns="http://www.w3.org/2000/svg">
<path d="M31.9597 17.67L27.5897 22.1034C27.3363 22.3567 27.0197 22.4834 26.6713 22.4834C26.323 22.4834 26.0064 22.3567 25.753 22.1034L21.383 17.67C20.908 17.1634 20.908 16.3717 21.383 15.865C21.8897 15.39 22.6813 15.39 23.188 15.865L25.6264 18.335C25.3097 13.7434 21.5413 10.1017 16.9497 10.1017C12.1363 10.1017 8.24134 14.0917 8.24134 18.9684C8.24134 23.845 12.1363 27.835 16.9497 27.835C18.723 27.835 20.433 27.2967 21.858 26.2834C22.428 25.8717 23.2197 26.03 23.6313 26.6C24.043 27.17 23.8847 27.9617 23.3147 28.3734C21.4463 29.6717 19.2297 30.3684 16.9497 30.3684C10.743 30.3684 5.70801 25.27 5.70801 18.9684C5.70801 12.6667 10.743 7.56836 16.9497 7.56836C22.7763 7.56836 27.5897 12.0967 28.128 17.8917L30.123 15.865C30.6297 15.3584 31.4214 15.3584 31.928 15.865C32.4347 16.3717 32.4347 17.1634 31.9597 17.67Z" fill="#BEC8FD"/>
</svg>
