<svg width="20" height="44" viewBox="0 0 20 44" fill="none" xmlns="http://www.w3.org/2000/svg">
<g clip-path="url(#clip0)">
<path d="M12.5059 39.8696V40.3696V40.7312V40.8696C12.4395 40.8696 12.3721 40.8118 12.3721 40.7312V41.4872L9.03125 43.5H7.81472V40.7358C7.81472 40.8163 7.74724 40.8742 7.68088 40.8742V40.7358V40.3742V39.8742H6.36346C5.90694 39.8311 5.72334 39.6379 5.63643 39.4992C5.58568 39.4182 5.5576 39.3375 5.54261 39.2771C5.53526 39.2475 5.53154 39.2247 5.5298 39.2118C5.52964 39.2106 5.52949 39.2095 5.52936 39.2085L5.47863 35.446L5.47649 35.2868L5.38271 35.1582L0.935489 29.0578C0.605609 28.5188 0.522049 28.169 0.504895 27.9856C0.496427 27.8951 0.503752 27.8418 0.507573 27.8218L0.535336 27.7674L0.544626 27.6733L2.8521 4.30526C3.10009 2.40342 3.82794 1.46947 4.43079 1.00411C4.73891 0.766257 5.02993 0.638687 5.23869 0.570933C5.34308 0.537054 5.4264 0.518306 5.48009 0.508322C5.50242 0.50417 5.51952 0.501553 5.53077 0.5H14.5649C15.4565 0.566415 16.0707 1.27127 16.4865 2.12844C16.6889 2.54554 16.8253 2.96267 16.9111 3.27815C16.9538 3.43503 16.9834 3.56463 17.0022 3.65374C17.0115 3.69824 17.0181 3.73249 17.0223 3.75484L17.0254 3.77242L19.4882 27.5581C19.5354 28.4432 19.4449 28.9468 19.3625 29.2098C19.3214 29.3409 19.2828 29.4108 19.2652 29.4387C19.2639 29.4408 19.2626 29.4428 19.2615 29.4445L19.2472 29.457L19.2152 29.4999L14.8073 35.4102L14.7081 35.5432V35.7091V39.28C14.7081 39.5294 14.6531 39.6572 14.6113 39.7202C14.5707 39.7813 14.5179 39.8186 14.4523 39.8437C14.3812 39.8709 14.3007 39.8809 14.23 39.8815C14.1964 39.8818 14.1693 39.8799 14.1525 39.8783C14.1449 39.8775 14.1397 39.8769 14.1373 39.8766C14.1371 39.8765 14.137 39.8765 14.1368 39.8765C14.1358 39.8763 14.1357 39.8763 14.1365 39.8764L14.0983 39.8696H14.054H12.5059ZM9.7111 42.3367L11.1717 41.5448C11.2313 41.5141 11.284 41.4761 11.3296 41.4327H11.5459V40.9327V40.5802C11.5459 40.1809 11.2159 39.8833 10.8466 39.8833H9.37729C8.98819 39.8833 8.67798 40.2004 8.67798 40.5802V41.7293C8.67798 42.2561 9.24825 42.5935 9.7111 42.3367ZM14.7658 1.45512L14.7575 1.45484H14.7492H5.34484V1.95484C5.34484 1.45484 5.3444 1.45484 5.34396 1.45484L5.34305 1.45485L5.34116 1.45486L5.33707 1.4549L5.32767 1.4551C5.32088 1.4553 5.31302 1.45562 5.30417 1.45615C5.28649 1.4572 5.26473 1.45905 5.23947 1.46227C5.1891 1.46869 5.12386 1.48067 5.04887 1.50306C4.89812 1.54806 4.70698 1.63555 4.52226 1.80309C4.14045 2.14939 3.87892 2.74759 3.89942 3.71427L3.90979 4.20367H4.39931H15.8895H16.4004L16.3893 3.69285L15.8895 3.70367C16.3893 3.69285 16.3893 3.69268 16.3893 3.69251L16.3893 3.69214L16.3893 3.69127L16.3892 3.68905L16.3891 3.68275L16.3883 3.6629C16.3876 3.64657 16.3864 3.62409 16.3846 3.59632C16.3808 3.54091 16.3742 3.46374 16.3623 3.37181C16.339 3.19024 16.2942 2.93999 16.2064 2.68198C16.0416 2.19741 15.6449 1.4843 14.7658 1.45512ZM17.3816 30.5831L17.3837 30.5799C17.8645 29.8421 17.3257 28.8867 16.4596 28.8867H3.66234C2.81951 28.8867 2.28219 29.7939 2.71105 30.5309L2.71183 30.5323L5.26499 34.8894C5.26512 34.8896 5.26524 34.8898 5.26536 34.89C5.46202 35.2273 5.8261 35.4354 6.21622 35.4354H13.572C13.9401 35.4354 14.2886 35.2534 14.4944 34.9409C14.4946 34.9405 14.4949 34.9401 14.4951 34.9397L17.3816 30.5831ZM1.44067 27.2853L1.44067 27.2854C1.39201 27.766 1.77019 28.1745 2.24403 28.1745H18.0725C18.5402 28.1745 18.9246 27.7723 18.876 27.2911C18.8759 27.2903 18.8759 27.2895 18.8758 27.2887L16.8094 5.8854C16.8093 5.88443 16.8092 5.88347 16.8091 5.8825C16.7709 5.45923 16.4152 5.14936 16.0053 5.14936H4.97404C4.2407 5.14936 3.62616 5.70475 3.55416 6.43282C3.55413 6.4331 3.55411 6.43338 3.55408 6.43366L1.44067 27.2853ZM12.9555 39.0612C13.4854 39.0612 13.9283 38.6326 13.9283 38.0943V37.1603C13.9283 36.622 13.4854 36.1934 12.9555 36.1934H7.28691C6.75705 36.1934 6.31414 36.622 6.31414 37.1603V38.0943C6.31414 38.6326 6.75704 39.0612 7.28691 39.0612H12.9555Z" fill="#8194FD" stroke="#BEC8FD"/>
<path d="M5.8444 16.8775L5.83984 16.877C5.62158 16.8526 5.47413 16.6598 5.49764 16.4563C5.49764 16.4563 5.49764 16.4563 5.49765 16.4562L6.26241 9.85471L6.26248 9.8541C6.28565 9.65191 6.47513 9.49528 6.6969 9.52032L6.69742 9.52037C6.91568 9.54478 7.06313 9.73759 7.03962 9.94107C7.03962 9.94109 7.03962 9.94111 7.03961 9.94113L6.27485 16.5427L6.27478 16.5433C6.25097 16.751 6.06231 16.9039 5.8444 16.8775Z" fill="#8194FD" stroke="#BEC8FD"/>
<path d="M5.42293 19.322C5.64117 19.3464 5.7886 19.5392 5.76513 19.7427C5.76513 19.7427 5.76512 19.7427 5.76512 19.7428L5.51022 21.9354L5.51019 21.9357C5.48689 22.1371 5.2986 22.2949 5.07519 22.2699C4.85695 22.2455 4.70951 22.0527 4.73298 21.8493C4.73299 21.8493 4.73299 21.8492 4.733 21.8492L4.98789 19.6565L4.98789 19.6565L4.98798 19.6557C5.01116 19.4535 5.20063 19.2969 5.4224 19.322L5.42293 19.322Z" fill="#8194FD" stroke="#BEC8FD"/>
</g>
<defs>
<clipPath id="clip0">
<rect width="20" height="44" fill="white"/>
</clipPath>
</defs>
</svg>
