<svg width="84" height="81" viewBox="0 0 84 81" fill="none" xmlns="http://www.w3.org/2000/svg">
<g clip-path="url(#clip0)">
<circle cx="35.8545" cy="34.5" r="34.5" fill="#F7685B"/>
<path d="M4.70597 37.8568C5.14832 37.8568 5.51555 38.1917 5.54058 38.6245L5.8327 43.7121L10.7653 42.087C11.0156 42.0054 11.2827 42.0462 11.4997 42.185C11.7167 42.3239 11.8502 42.5607 11.8669 42.8138L12.1591 47.9015L17.1 46.2846C17.534 46.1376 18.0097 46.3744 18.1599 46.799C18.3101 47.2237 18.0681 47.6892 17.6341 47.8362L11.6583 49.7961C11.4079 49.8778 11.1408 49.8369 10.9238 49.6981C10.7068 49.5511 10.5733 49.3225 10.5566 49.0693L10.2645 43.9816L5.33193 45.6067C5.08155 45.6884 4.81448 45.6476 4.59748 45.5087C4.38048 45.3699 4.24694 45.1331 4.23025 44.8799L3.87972 38.7225C3.85468 38.2733 4.20522 37.8895 4.66425 37.865C4.68094 37.8568 4.69763 37.8568 4.70597 37.8568Z" fill="#FBE4BF"/>
<path d="M17.2395 57.0636C17.4572 57.0636 17.6512 57.2117 17.6985 57.4247L18.5265 61.0268C18.5597 61.1657 18.5218 61.3139 18.4272 61.425C18.3325 61.5361 18.1906 61.5917 18.0439 61.5917L14.8925 61.4528L15.5881 64.4622C15.6212 64.6011 15.5833 64.7493 15.4887 64.8604C15.3941 64.9715 15.2474 65.0317 15.1054 65.0271L11.3342 64.8558C11.0739 64.8419 10.8704 64.6289 10.8846 64.3696C10.8988 64.115 11.1307 63.9159 11.3815 63.9298L14.5329 64.0733L13.8373 61.0639C13.8042 60.925 13.842 60.7768 13.9367 60.6657C14.0313 60.5546 14.1685 60.4944 14.3199 60.499L17.4714 60.6379L16.7805 57.6238C16.7237 57.3738 16.8846 57.1284 17.1401 57.0682C17.1732 57.0682 17.2064 57.0636 17.2395 57.0636Z" fill="#FBE4BF"/>
<path d="M-3.27269 56.2398C-3.08907 56.2398 -2.90545 56.297 -2.74688 56.4195L0.741793 59.1797C0.942099 59.343 1.05895 59.5798 1.05061 59.8412C1.04226 60.0943 0.917066 60.3312 0.708414 60.4782L-2.04581 62.4218L0.591568 64.5042C0.791875 64.6675 0.908716 64.9043 0.90037 65.1657C0.892024 65.4188 0.766834 65.6556 0.549835 65.8026L-3.08907 68.3669C-3.46465 68.6282 -3.9821 68.5465 -4.25752 68.1791C-4.5246 67.8116 -4.44114 67.3053 -4.06556 67.0358L-1.31969 65.1003L-3.95706 63.0179C-4.15737 62.8546 -4.27422 62.6177 -4.26588 62.3564C-4.25753 62.1033 -4.13233 61.8664 -3.92368 61.7194L-1.16946 59.7758L-3.80684 57.6934C-4.16572 57.4076 -4.22414 56.8931 -3.93202 56.542C-3.75675 56.346 -3.51472 56.2398 -3.27269 56.2398Z" fill="#FBE4BF"/>
<path d="M69.3889 16.3291C69.4672 16.3291 69.5454 16.3419 69.6172 16.3674L75.3177 18.4735C75.6569 18.5947 75.8265 18.9649 75.696 19.2967C75.5721 19.6286 75.1938 19.7945 74.8546 19.6669L69.9563 17.8608L69.4737 22.9663C69.4541 23.1642 69.3432 23.3429 69.1671 23.445C68.9975 23.5535 68.7823 23.5726 68.5932 23.5024L63.6884 21.6963L63.1992 26.8018C63.1666 27.1528 62.8535 27.4081 62.4882 27.3762C62.1295 27.3443 61.8686 27.0316 61.9012 26.6806L62.4687 20.739C62.4882 20.5412 62.5991 20.3625 62.7752 20.2604C62.9448 20.1519 63.16 20.1328 63.3492 20.203L68.254 22.009L68.7367 16.9035C68.7562 16.7057 68.8671 16.527 69.0432 16.4185C69.1476 16.361 69.2715 16.3291 69.3889 16.3291Z" fill="#FBE4BF"/>
<path d="M37.231 33.1292C37.2728 33.1292 37.3061 33.1292 37.3479 33.1373L40.0854 33.611C40.2607 33.6436 40.4109 33.7335 40.511 33.8805C40.6112 34.0193 40.6529 34.1908 40.6195 34.3623L40.1355 37.0409C40.0687 37.392 39.7349 37.6207 39.376 37.5635C39.0171 37.4982 38.7751 37.1634 38.8418 36.8204L39.209 34.7788L37.1225 34.4195C36.7636 34.3541 36.5216 34.0193 36.5884 33.6763C36.6384 33.3415 36.9139 33.1292 37.231 33.1292Z" fill="#FBE4BF"/>
<path d="M42.6562 62.2896C42.8065 62.2896 42.9483 62.3386 43.0735 62.4366C43.3573 62.6653 43.3907 63.0736 43.1653 63.3431L41.8133 64.9519C41.7048 65.0825 41.5378 65.1642 41.3709 65.1805C41.1956 65.1969 41.0204 65.1479 40.8868 65.0335L39.2427 63.7106C38.9589 63.4819 38.9255 63.0736 39.1508 62.8041C39.3845 62.5265 39.8018 62.4938 40.0773 62.7143L41.2123 63.6289L42.1471 62.5183C42.2723 62.3713 42.4643 62.2896 42.6562 62.2896Z" fill="#FBE4BF"/>
<path d="M37.0467 19.5562C37.0551 19.5562 37.0718 19.5562 37.0801 19.5562C37.4473 19.5725 37.7228 19.8747 37.7061 20.234L37.656 21.2303L38.6742 21.2793C39.0415 21.2957 39.3169 21.5978 39.3002 21.9571C39.2835 22.3164 38.9663 22.5859 38.6075 22.5696L36.9299 22.4798C36.5627 22.4634 36.2872 22.1613 36.3039 21.802L36.3957 20.1605C36.4041 19.8257 36.6962 19.5562 37.0467 19.5562Z" fill="#FBE4BF"/>
<path d="M44.2588 74.5242C44.7225 74.5242 45.1465 74.8354 45.2657 75.3021L46.4051 79.7227C46.5509 80.2672 46.2064 80.8246 45.6499 80.9672C45.0802 81.1098 44.5238 80.7728 44.378 80.2283L43.4903 76.8059L39.9925 77.6744C39.4361 77.817 38.8664 77.48 38.7206 76.9355C38.5749 76.391 38.9194 75.8336 39.4758 75.691L43.9938 74.5761C44.0865 74.5372 44.166 74.5242 44.2588 74.5242Z" fill="#FBE4BF"/>
<path d="M40.1021 -5.70413C40.1772 -5.70413 40.2606 -5.6878 40.3358 -5.66331C40.678 -5.53264 40.8449 -5.16515 40.7113 -4.83033L37.6734 2.85424L45.527 5.8268C45.8692 5.95747 46.0362 6.32496 45.9026 6.65978C45.7691 6.9946 45.3852 7.15793 45.0513 7.02726L36.5884 3.81787C36.2462 3.68721 36.0792 3.31972 36.2128 2.9849L39.4928 -5.29581C39.5846 -5.54897 39.835 -5.70413 40.1021 -5.70413Z" fill="#FBE4BF"/>
<path d="M27.2742 25.9575C27.3326 25.9575 27.3911 25.9657 27.4578 25.982C27.8084 26.08 28.0087 26.4393 27.9085 26.7823L27.6331 27.7378L28.6096 28.0073C28.9601 28.1053 29.1604 28.4646 29.0603 28.7994C28.9601 29.1424 28.6012 29.3384 28.2507 29.2404L26.6399 28.7913C26.473 28.7423 26.3311 28.6361 26.2476 28.4891C26.1642 28.3421 26.1391 28.1624 26.1892 27.9991L26.6483 26.423C26.7234 26.1453 26.9821 25.9575 27.2742 25.9575Z" fill="#FBE4BF"/>
<path d="M62.1862 15.5784C62.3364 15.5784 62.4783 15.6274 62.5952 15.7172L66.5345 18.7796C66.8183 19.0001 66.8684 19.4085 66.643 19.6861C66.4177 19.9638 66.0004 20.0128 65.7166 19.7923L62.2947 17.13L59.5739 20.4783C59.3485 20.7559 58.9312 20.8049 58.6474 20.5844C58.3637 20.3639 58.3136 19.9556 58.5389 19.6779L61.6687 15.8234C61.7772 15.6927 61.9358 15.6029 62.1111 15.5866C62.1361 15.5784 62.1612 15.5784 62.1862 15.5784Z" fill="#FBE4BF"/>
<path d="M27.7331 69.0773C27.9251 69.0773 28.1087 69.159 28.2422 69.306L29.5609 70.8412C29.7946 71.1107 29.7612 71.5191 29.4775 71.7477L27.9084 73.038C27.633 73.2667 27.2157 73.234 26.982 72.9563C26.7483 72.6868 26.7817 72.2785 27.0654 72.0499L28.1337 71.1761L27.2407 70.1308C27.007 69.8613 27.0404 69.453 27.3242 69.2243C27.441 69.1263 27.5912 69.0773 27.7331 69.0773Z" fill="#FBE4BF"/>
<path d="M28.3177 38.6485C28.4262 38.6485 28.5347 38.673 28.6349 38.7302L32.5993 40.8371C32.9164 41.0086 33.0333 41.4006 32.8663 41.7109C32.6911 42.0213 32.2905 42.1356 31.9733 41.9723L28.5848 40.1675L26.7403 43.483C26.565 43.7934 26.1644 43.9159 25.8473 43.7444C25.5301 43.5729 25.4133 43.1809 25.5802 42.8706L27.7335 38.9915C27.8587 38.771 28.084 38.6485 28.3177 38.6485Z" fill="#FBE4BF"/>
<path d="M46.9959 25.8601C47.0627 25.8601 47.1295 25.8683 47.2046 25.8928L54.7912 28.3182C54.9581 28.3754 55.0917 28.4897 55.1751 28.6367C55.2502 28.7919 55.2669 28.9633 55.2169 29.1267L52.7381 36.5499C52.6212 36.8848 52.254 37.0726 51.9035 36.9664C51.5613 36.8521 51.3693 36.4928 51.4778 36.1498L53.7479 29.339L46.7873 27.1177C46.4451 27.0034 46.2531 26.6441 46.3616 26.3011C46.4618 26.0316 46.7205 25.8601 46.9959 25.8601Z" fill="#FBE4BF"/>
<path d="M54.3748 65.0014C54.4833 65.0014 54.5918 65.0259 54.6836 65.0749L61.1686 68.4639C61.4857 68.6354 61.6109 69.0192 61.4356 69.3377C61.2687 69.648 60.8681 69.7705 60.5426 69.599L54.6419 66.5121L51.4871 72.2858C51.3202 72.5961 50.9195 72.7186 50.594 72.5471C50.2769 72.3756 50.1517 71.9918 50.327 71.6733L53.7906 65.328C53.8741 65.181 54.016 65.0667 54.1829 65.0177C54.2413 65.0095 54.3081 65.0014 54.3748 65.0014Z" fill="#FBE4BF"/>
<path d="M27.7164 12.8109C27.9835 12.8109 28.2422 12.9742 28.334 13.2437L28.9349 14.9015C29.0601 15.2363 28.8765 15.6038 28.5343 15.7263L26.8401 16.3143C26.4979 16.4286 26.1223 16.2571 25.9971 15.9223C25.8719 15.5875 26.0555 15.22 26.3977 15.0975L27.4744 14.7218L27.0905 13.6684C26.9653 13.3335 27.1489 12.966 27.4911 12.8435C27.5662 12.819 27.6413 12.8109 27.7164 12.8109Z" fill="#FBE4BF"/>
<path d="M45.8529 10.8334C46.17 10.8334 46.4538 11.0621 46.5039 11.3724L47.1632 15.3086L51.186 14.6717C51.5449 14.6145 51.8871 14.8513 51.9455 15.2025C52.0039 15.5536 51.7619 15.8884 51.403 15.9456L46.7292 16.6888C46.3703 16.7459 46.0281 16.5091 45.9697 16.1579L45.2102 11.5848C45.1518 11.2336 45.3938 10.8988 45.7527 10.8416C45.7778 10.8334 45.8195 10.8334 45.8529 10.8334Z" fill="#FBE4BF"/>
<path d="M51.3524 41.2371C51.4776 41.2371 51.6028 41.2698 51.7113 41.3433C52.0118 41.5393 52.0952 41.9394 51.8949 42.2334L46.8539 49.6975L54.4822 54.63C54.7827 54.826 54.8662 55.2262 54.6658 55.5202C54.4655 55.8141 54.0566 55.8958 53.7561 55.6998L45.5769 50.408C45.2765 50.212 45.193 49.8118 45.3933 49.5179L50.8016 41.5148C50.9268 41.3433 51.1354 41.2371 51.3524 41.2371Z" fill="#FBE4BF"/>
<path d="M37.0395 47.8924C37.123 47.8924 37.2148 47.9088 37.2982 47.9414C37.6321 48.0803 37.7907 48.4559 37.6488 48.7826L33.9765 57.2838C33.9097 57.439 33.7762 57.5696 33.6176 57.6268C33.459 57.6921 33.2754 57.6921 33.1168 57.6268L24.4285 54.0336C24.0947 53.8947 23.9361 53.5191 24.078 53.1924C24.2199 52.8658 24.6038 52.7106 24.9376 52.8494L33.0167 56.1895L36.4302 48.2844C36.5387 48.0394 36.7808 47.8924 37.0395 47.8924Z" fill="#FBE4BF"/>
<path d="M18.4521 19.4823C18.5356 19.4823 18.6274 19.4986 18.7108 19.5313C19.0447 19.6701 19.2033 20.0458 19.0614 20.3724L15.3891 28.8736C15.3223 29.0288 15.1888 29.1595 15.0302 29.2166C14.8716 29.282 14.688 29.282 14.5294 29.2166L5.84112 25.6234C5.50727 25.4846 5.3487 25.1089 5.49058 24.7823C5.63247 24.4556 6.01639 24.3005 6.35023 24.4393L14.4293 27.7793L17.8428 19.8743C17.9513 19.6375 18.1934 19.4823 18.4521 19.4823Z" fill="#FBE4BF"/>
<path d="M59.8244 39.694C59.9746 39.694 60.1249 39.743 60.25 39.841L67.2191 45.5575C67.3526 45.6636 67.4361 45.8269 67.4527 45.9984C67.4694 46.1699 67.411 46.3414 67.3025 46.4721L61.4602 53.291C61.2265 53.5605 60.8092 53.6014 60.5338 53.3727C60.2584 53.144 60.2167 52.7357 60.4504 52.4662L65.8753 46.1373L59.4071 40.8291C59.1317 40.6005 59.0899 40.1921 59.3236 39.9226C59.4488 39.7675 59.6324 39.694 59.8244 39.694Z" fill="#FBE4BF"/>
<path d="M78.0415 42.2099C78.2919 42.2099 78.5423 42.2344 78.7927 42.2916C79.6774 42.4876 80.4202 43.002 80.9042 43.7533C81.1463 44.1372 81.0378 44.6353 80.6455 44.8803C80.2532 45.1171 79.7441 45.0028 79.4937 44.6271C79.2517 44.2515 78.8678 43.982 78.4254 43.884C77.9831 43.786 77.5241 43.8595 77.1318 44.1045C76.3306 44.5945 76.0969 45.6316 76.5976 46.4156C76.8397 46.7994 76.7228 47.2975 76.3389 47.5425C75.9466 47.7794 75.4292 47.665 75.1871 47.2894C74.7031 46.5381 74.5528 45.6561 74.7531 44.7905C74.9535 43.9248 75.4793 43.198 76.2471 42.7244C76.7896 42.3896 77.4072 42.2099 78.0415 42.2099Z" fill="#FBE4BF"/>
<path d="M71.0747 32.0909C71.6924 32.0909 72.31 32.3196 72.7774 32.7769C73.1029 33.0954 73.1029 33.6099 72.7774 33.9284C72.4519 34.2469 71.9261 34.2469 71.6006 33.9284C71.3084 33.6425 70.8327 33.6425 70.5406 33.9284C70.3987 34.0672 70.3236 34.2469 70.3236 34.4428C70.3236 34.6388 70.3987 34.8185 70.5406 34.9573C70.8661 35.2758 70.8661 35.7903 70.5406 36.1088C70.2151 36.4273 69.6893 36.4273 69.3638 36.1088C68.9048 35.6596 68.6544 35.0717 68.6544 34.4347C68.6544 33.8059 68.9048 33.2097 69.3638 32.7606C69.8395 32.3278 70.4571 32.0909 71.0747 32.0909Z" fill="#FBE4BF"/>
<path d="M71.0165 51.495C71.2669 51.495 71.5173 51.5195 71.7676 51.5767C72.6523 51.7727 73.3951 52.2872 73.8792 53.0385C74.1212 53.4223 74.0128 53.9205 73.6205 54.1654C73.2282 54.4023 72.7191 54.2879 72.4687 53.9123C72.2267 53.5366 71.8428 53.2671 71.4004 53.1691C70.9581 53.0712 70.499 53.1446 70.1068 53.3896C69.3055 53.8796 69.0719 54.9168 69.5726 55.7007C69.8147 56.0846 69.6978 56.5827 69.3139 56.8277C68.9216 57.0645 68.4042 56.9502 68.1621 56.5745C67.6781 55.8232 67.5278 54.9413 67.7281 54.0756C67.9284 53.21 68.4542 52.4832 69.2221 52.0095C69.7729 51.6665 70.3905 51.495 71.0165 51.495Z" fill="#FBE4BF"/>
<path d="M25.8721 5.70349C25.989 5.70349 26.1058 5.72799 26.2143 5.77699C26.6316 5.96481 26.8236 6.44663 26.6316 6.85495L23.7606 13.1104C23.5686 13.5187 23.0762 13.7066 22.6589 13.5187C22.2416 13.3309 22.0496 12.8491 22.2416 12.4408L25.1126 6.18531C25.2545 5.88315 25.555 5.70349 25.8721 5.70349Z" fill="#FBE4BF"/>
<path d="M-0.793686 7.5914C-0.618417 7.5914 -0.443148 7.64857 -0.284572 7.75474C0.0826569 8.02423 0.149428 8.53871 -0.125994 8.89803L-3.21405 12.8669C-3.48948 13.2262 -4.01529 13.2915 -4.38252 13.0221C-4.74975 12.7526 -4.81651 12.2381 -4.54108 11.8788L-1.45302 7.9099C-1.29445 7.69757 -1.04407 7.5914 -0.793686 7.5914Z" fill="#FBE4BF"/>
</g>
<defs>
<clipPath id="clip0">
<rect width="84" height="81" fill="white"/>
</clipPath>
</defs>
</svg>
