<svg width="84" height="80" viewBox="0 0 84 80" fill="none" xmlns="http://www.w3.org/2000/svg">
<g clip-path="url(#clip0)">
<circle cx="35.8545" cy="34.5" r="34.5" fill="#FFB946"/>
<path d="M4.70597 37.3895C5.14832 37.3895 5.51555 37.7202 5.54058 38.1477L5.8327 43.1725L10.7653 41.5675C11.0156 41.4868 11.2827 41.5272 11.4997 41.6643C11.7167 41.8014 11.8502 42.0353 11.8669 42.2853L12.1591 47.3102L17.1 45.7132C17.534 45.568 18.0097 45.8019 18.1599 46.2213C18.3101 46.6407 18.0681 47.1005 17.6341 47.2456L11.6583 49.1814C11.4079 49.262 11.1408 49.2217 10.9238 49.0846C10.7068 48.9394 10.5733 48.7136 10.5566 48.4635L10.2645 43.4387L5.33193 45.0437C5.08155 45.1244 4.81448 45.0841 4.59748 44.947C4.38048 44.8098 4.24694 44.5759 4.23025 44.3259L3.87972 38.2445C3.85468 37.8009 4.20522 37.4218 4.66425 37.3976C4.68094 37.3895 4.69763 37.3895 4.70597 37.3895Z" fill="#FBE4BF"/>
<path d="M17.2395 56.3592C17.4572 56.3592 17.6512 56.5055 17.6985 56.7158L18.5265 60.2735C18.5597 60.4107 18.5218 60.557 18.4272 60.6667C18.3325 60.7765 18.1906 60.8314 18.0439 60.8314L14.8925 60.6942L15.5881 63.6665C15.6212 63.8037 15.5833 63.95 15.4887 64.0597C15.3941 64.1695 15.2474 64.2289 15.1054 64.2244L11.3342 64.0552C11.0739 64.0415 10.8704 63.8311 10.8846 63.575C10.8988 63.3235 11.1307 63.1269 11.3815 63.1406L14.5329 63.2824L13.8373 60.3101C13.8042 60.1729 13.842 60.0265 13.9367 59.9168C14.0313 59.807 14.1685 59.7476 14.3199 59.7522L17.4714 59.8894L16.7805 56.9125C16.7237 56.6655 16.8846 56.4232 17.1401 56.3637C17.1732 56.3637 17.2064 56.3592 17.2395 56.3592Z" fill="#FBE4BF"/>
<path d="M-3.27269 55.5457C-3.08907 55.5457 -2.90545 55.6022 -2.74688 55.7231L0.741793 58.4493C0.942099 58.6106 1.05895 58.8445 1.05061 59.1026C1.04226 59.3526 0.917066 59.5865 0.708414 59.7317L-2.04581 61.6513L0.591568 63.7081C0.791875 63.8694 0.908716 64.1033 0.90037 64.3614C0.892024 64.6114 0.766834 64.8453 0.549835 64.9905L-3.08907 67.5231C-3.46465 67.7812 -3.9821 67.7005 -4.25752 67.3376C-4.5246 66.9746 -4.44114 66.4745 -4.06556 66.2084L-1.31969 64.2968L-3.95706 62.2401C-4.15737 62.0788 -4.27422 61.8449 -4.26588 61.5868C-4.25753 61.3368 -4.13233 61.1029 -3.92368 60.9577L-1.16946 59.0381L-3.80684 56.9814C-4.16572 56.6991 -4.22414 56.1909 -3.93202 55.8441C-3.75675 55.6505 -3.51472 55.5457 -3.27269 55.5457Z" fill="#FBE4BF"/>
<path d="M69.3889 16.1296C69.4672 16.1296 69.5454 16.1422 69.6172 16.1674L75.3177 18.2475C75.6569 18.3672 75.8265 18.7328 75.696 19.0606C75.5721 19.3883 75.1938 19.5522 74.8546 19.4261L69.9563 17.6424L69.4737 22.6849C69.4541 22.8803 69.3432 23.0567 69.1671 23.1576C68.9975 23.2647 68.7823 23.2837 68.5932 23.2143L63.6884 21.4305L63.1992 26.473C63.1666 26.8197 62.8535 27.0718 62.4882 27.0403C62.1295 27.0088 61.8686 26.6999 61.9012 26.3533L62.4687 20.4851C62.4882 20.2897 62.5991 20.1132 62.7752 20.0123C62.9448 19.9052 63.16 19.8863 63.3492 19.9556L68.254 21.7394L68.7367 16.6969C68.7562 16.5015 68.8671 16.325 69.0432 16.2179C69.1476 16.1611 69.2715 16.1296 69.3889 16.1296Z" fill="#FBE4BF"/>
<path d="M37.231 32.7192C37.2728 32.7192 37.3061 32.7192 37.3479 32.7272L40.0854 33.195C40.2607 33.2273 40.4109 33.316 40.511 33.4612C40.6112 33.5983 40.6529 33.7677 40.6195 33.9371L40.1355 36.5826C40.0687 36.9294 39.7349 37.1552 39.376 37.0988C39.0171 37.0343 38.7751 36.7036 38.8418 36.3648L39.209 34.3484L37.1225 33.9935C36.7636 33.929 36.5216 33.5983 36.5884 33.2596C36.6384 32.9289 36.9139 32.7192 37.231 32.7192Z" fill="#FBE4BF"/>
<path d="M42.6562 61.5226C42.8065 61.5226 42.9483 61.571 43.0735 61.6678C43.3573 61.8936 43.3907 62.2969 43.1653 62.5631L41.8133 64.152C41.7048 64.281 41.5378 64.3617 41.3709 64.3778C41.1956 64.394 41.0204 64.3456 40.8868 64.2327L39.2427 62.926C38.9589 62.7002 38.9255 62.2969 39.1508 62.0307C39.3845 61.7565 39.8018 61.7243 40.0773 61.942L41.2123 62.8454L42.1471 61.7484C42.2723 61.6033 42.4643 61.5226 42.6562 61.5226Z" fill="#FBE4BF"/>
<path d="M37.0467 19.3141C37.0551 19.3141 37.0718 19.3141 37.0801 19.3141C37.4473 19.3303 37.7228 19.6287 37.7061 19.9836L37.656 20.9676L38.6742 21.016C39.0415 21.0321 39.3169 21.3305 39.3002 21.6854C39.2835 22.0403 38.9663 22.3065 38.6075 22.2903L36.9299 22.2016C36.5627 22.1855 36.2872 21.887 36.3039 21.5322L36.3957 19.911C36.4041 19.5803 36.6962 19.3141 37.0467 19.3141Z" fill="#FBE4BF"/>
<path d="M44.2588 73.6042C44.7225 73.6042 45.1465 73.9115 45.2657 74.3724L46.4051 78.7385C46.5509 79.2762 46.2064 79.8268 45.6499 79.9677C45.0802 80.1085 44.5238 79.7756 44.378 79.2378L43.4903 75.8576L39.9925 76.7155C39.4361 76.8563 38.8664 76.5234 38.7206 75.9857C38.5749 75.4479 38.9194 74.8974 39.4758 74.7565L43.9938 73.6554C44.0865 73.617 44.166 73.6042 44.2588 73.6042Z" fill="#FBE4BF"/>
<path d="M40.1021 -5.63429C40.1772 -5.63429 40.2606 -5.61816 40.3358 -5.59397C40.678 -5.46492 40.8449 -5.10196 40.7113 -4.77127L37.6734 2.81842L45.527 5.75429C45.8692 5.88334 46.0362 6.24629 45.9026 6.57698C45.7691 6.90767 45.3852 7.06898 45.0513 6.93993L36.5884 3.77016C36.2462 3.64111 36.0792 3.27816 36.2128 2.94747L39.4928 -5.23101C39.5846 -5.48104 39.835 -5.63429 40.1021 -5.63429Z" fill="#FBE4BF"/>
<path d="M27.2742 25.637C27.3326 25.637 27.3911 25.6451 27.4578 25.6612C27.8084 25.758 28.0087 26.1129 27.9085 26.4516L27.6331 27.3953L28.6096 27.6615C28.9601 27.7583 29.1604 28.1132 29.0603 28.4438C28.9601 28.7826 28.6012 28.9762 28.2507 28.8794L26.6399 28.4358C26.473 28.3874 26.3311 28.2825 26.2476 28.1373C26.1642 27.9922 26.1391 27.8147 26.1892 27.6534L26.6483 26.0968C26.7234 25.8225 26.9821 25.637 27.2742 25.637Z" fill="#FBE4BF"/>
<path d="M62.1862 15.3861C62.3364 15.3861 62.4783 15.4345 62.5952 15.5232L66.5345 18.5478C66.8183 18.7655 66.8684 19.1688 66.643 19.4431C66.4177 19.7173 66.0004 19.7657 65.7166 19.5479L62.2947 16.9185L59.5739 20.2254C59.3485 20.4996 58.9312 20.548 58.6474 20.3303C58.3637 20.1125 58.3136 19.7092 58.5389 19.435L61.6687 15.628C61.7772 15.499 61.9358 15.4103 62.1111 15.3941C62.1361 15.3861 62.1612 15.3861 62.1862 15.3861Z" fill="#FBE4BF"/>
<path d="M27.7331 68.2238C27.9251 68.2238 28.1087 68.3044 28.2422 68.4496L29.5609 69.9659C29.7946 70.2321 29.7612 70.6354 29.4775 70.8612L27.9084 72.1356C27.633 72.3614 27.2157 72.3291 26.982 72.0549C26.7483 71.7888 26.7817 71.3855 27.0654 71.1596L28.1337 70.2966L27.2407 69.2642C27.007 68.9981 27.0404 68.5948 27.3242 68.369C27.441 68.2722 27.5912 68.2238 27.7331 68.2238Z" fill="#FBE4BF"/>
<path d="M28.3177 38.1714C28.4262 38.1714 28.5347 38.1956 28.6349 38.2521L32.5993 40.333C32.9164 40.5024 33.0333 40.8895 32.8663 41.196C32.6911 41.5025 32.2905 41.6154 31.9733 41.4541L28.5848 39.6716L26.7403 42.9462C26.565 43.2527 26.1644 43.3737 25.8473 43.2043C25.5301 43.0349 25.4133 42.6478 25.5802 42.3413L27.7335 38.5102C27.8587 38.2924 28.084 38.1714 28.3177 38.1714Z" fill="#FBE4BF"/>
<path d="M46.9959 25.5406C47.0627 25.5406 47.1295 25.5486 47.2046 25.5728L54.7912 27.9683C54.9581 28.0248 55.0917 28.1377 55.1751 28.2829C55.2502 28.4361 55.2669 28.6055 55.2169 28.7668L52.7381 36.0984C52.6212 36.4291 52.254 36.6146 51.9035 36.5097C51.5613 36.3968 51.3693 36.0419 51.4778 35.7032L53.7479 28.9765L46.7873 26.7827C46.4451 26.6697 46.2531 26.3149 46.3616 25.9761C46.4618 25.7099 46.7205 25.5406 46.9959 25.5406Z" fill="#FBE4BF"/>
<path d="M54.3748 64.199C54.4833 64.199 54.5918 64.2232 54.6836 64.2716L61.1686 67.6188C61.4857 67.7882 61.6109 68.1673 61.4356 68.4818C61.2687 68.7883 60.8681 68.9093 60.5426 68.7399L54.6419 65.6911L51.4871 71.3935C51.3202 71.7 50.9195 71.821 50.594 71.6516C50.2769 71.4822 50.1517 71.1031 50.327 70.7886L53.7906 64.5216C53.8741 64.3764 54.016 64.2635 54.1829 64.2151C54.2413 64.2071 54.3081 64.199 54.3748 64.199Z" fill="#FBE4BF"/>
<path d="M27.7164 12.6534C27.9835 12.6534 28.2422 12.8147 28.334 13.0809L28.9349 14.7182C29.0601 15.0489 28.8765 15.4118 28.5343 15.5328L26.8401 16.1135C26.4979 16.2264 26.1223 16.0571 25.9971 15.7264C25.8719 15.3957 26.0555 15.0327 26.3977 14.9118L27.4744 14.5407L27.0905 13.5003C26.9653 13.1696 27.1489 12.8066 27.4911 12.6857C27.5662 12.6615 27.6413 12.6534 27.7164 12.6534Z" fill="#FBE4BF"/>
<path d="M45.8529 10.7008C46.17 10.7008 46.4538 10.9266 46.5039 11.2331L47.1632 15.1207L51.186 14.4916C51.5449 14.4351 51.8871 14.669 51.9455 15.0158C52.0039 15.3627 51.7619 15.6934 51.403 15.7498L46.7292 16.4838C46.3703 16.5402 46.0281 16.3063 45.9697 15.9595L45.2102 11.4428C45.1518 11.096 45.3938 10.7653 45.7527 10.7088C45.7778 10.7008 45.8195 10.7008 45.8529 10.7008Z" fill="#FBE4BF"/>
<path d="M51.3524 40.7295C51.4776 40.7295 51.6028 40.7618 51.7113 40.8344C52.0118 41.0279 52.0952 41.4231 51.8949 41.7135L46.8539 49.0854L54.4822 53.957C54.7827 54.1506 54.8662 54.5458 54.6658 54.8362C54.4655 55.1265 54.0566 55.2072 53.7561 55.0136L45.5769 49.7871C45.2765 49.5936 45.193 49.1984 45.3933 48.908L50.8016 41.0037C50.9268 40.8344 51.1354 40.7295 51.3524 40.7295Z" fill="#FBE4BF"/>
<path d="M37.0395 47.3023C37.123 47.3023 37.2148 47.3184 37.2982 47.3507C37.6321 47.4878 37.7907 47.8588 37.6488 48.1814L33.9765 56.5777C33.9097 56.7309 33.7762 56.86 33.6176 56.9164C33.459 56.981 33.2754 56.981 33.1168 56.9164L24.4285 53.3676C24.0947 53.2305 23.9361 52.8595 24.078 52.5368C24.2199 52.2142 24.6038 52.061 24.9376 52.1981L33.0167 55.4969L36.4302 47.6894C36.5387 47.4475 36.7808 47.3023 37.0395 47.3023Z" fill="#FBE4BF"/>
<path d="M18.4521 19.2417C18.5356 19.2417 18.6274 19.2579 18.7108 19.2901C19.0447 19.4273 19.2033 19.7983 19.0614 20.1209L15.3891 28.5172C15.3223 28.6704 15.1888 28.7994 15.0302 28.8559C14.8716 28.9204 14.688 28.9204 14.5294 28.8559L5.84112 25.3071C5.50727 25.1699 5.3487 24.7989 5.49058 24.4763C5.63247 24.1537 6.01639 24.0004 6.35023 24.1375L14.4293 27.4364L17.8428 19.6289C17.9513 19.395 18.1934 19.2417 18.4521 19.2417Z" fill="#FBE4BF"/>
<path d="M59.8244 39.2045C59.9746 39.2045 60.1249 39.2529 60.25 39.3497L67.2191 44.9956C67.3526 45.1005 67.4361 45.2618 67.4527 45.4312C67.4694 45.6005 67.411 45.7699 67.3025 45.899L61.4602 52.6337C61.2265 52.8999 60.8092 52.9402 60.5338 52.7144C60.2584 52.4885 60.2167 52.0853 60.4504 51.8191L65.8753 45.5683L59.4071 40.3257C59.1317 40.0998 59.0899 39.6965 59.3236 39.4304C59.4488 39.2771 59.6324 39.2045 59.8244 39.2045Z" fill="#FBE4BF"/>
<path d="M78.0415 41.6894C78.2919 41.6894 78.5423 41.7136 78.7927 41.77C79.6774 41.9636 80.4202 42.4717 80.9042 43.2138C81.1463 43.5928 81.0378 44.0848 80.6455 44.3268C80.2532 44.5607 79.7441 44.4478 79.4937 44.0768C79.2517 43.7058 78.8678 43.4396 78.4254 43.3428C77.9831 43.246 77.5241 43.3186 77.1318 43.5606C76.3306 44.0445 76.0969 45.0688 76.5976 45.8431C76.8397 46.2222 76.7228 46.7142 76.3389 46.9562C75.9466 47.1901 75.4292 47.0772 75.1871 46.7061C74.7031 45.9641 74.5528 45.093 74.7531 44.2381C74.9535 43.3831 75.4793 42.6653 76.2471 42.1975C76.7896 41.8668 77.4072 41.6894 78.0415 41.6894Z" fill="#FBE4BF"/>
<path d="M71.0747 31.6943C71.6924 31.6943 72.31 31.9201 72.7774 32.3718C73.1029 32.6863 73.1029 33.1945 72.7774 33.509C72.4519 33.8236 71.9261 33.8236 71.6006 33.509C71.3084 33.2267 70.8327 33.2267 70.5406 33.509C70.3987 33.6461 70.3236 33.8236 70.3236 34.0171C70.3236 34.2107 70.3987 34.3882 70.5406 34.5253C70.8661 34.8398 70.8661 35.348 70.5406 35.6625C70.2151 35.9771 69.6893 35.9771 69.3638 35.6625C68.9048 35.2189 68.6544 34.6382 68.6544 34.0091C68.6544 33.388 68.9048 32.7992 69.3638 32.3556C69.8395 31.9282 70.4571 31.6943 71.0747 31.6943Z" fill="#FBE4BF"/>
<path d="M71.0165 50.8593C71.2669 50.8593 71.5173 50.8835 71.7676 50.9399C72.6523 51.1335 73.3951 51.6416 73.8792 52.3837C74.1212 52.7627 74.0128 53.2547 73.6205 53.4967C73.2282 53.7306 72.7191 53.6177 72.4687 53.2467C72.2267 52.8757 71.8428 52.6095 71.4004 52.5127C70.9581 52.4159 70.499 52.4885 70.1068 52.7305C69.3055 53.2144 69.0719 54.2387 69.5726 55.013C69.8147 55.3921 69.6978 55.8841 69.3139 56.1261C68.9216 56.36 68.4042 56.2471 68.1621 55.8761C67.6781 55.134 67.5278 54.2629 67.7281 53.408C67.9284 52.553 68.4542 51.8352 69.2221 51.3674C69.7729 51.0286 70.3905 50.8593 71.0165 50.8593Z" fill="#FBE4BF"/>
<path d="M25.8721 5.63291C25.989 5.63291 26.1058 5.6571 26.2143 5.7055C26.6316 5.89101 26.8236 6.36687 26.6316 6.77015L23.7606 12.9484C23.5686 13.3517 23.0762 13.5372 22.6589 13.3517C22.2416 13.1662 22.0496 12.6903 22.2416 12.287L25.1126 6.10878C25.2545 5.81035 25.555 5.63291 25.8721 5.63291Z" fill="#FBE4BF"/>
<path d="M-0.793686 7.49838C-0.618417 7.49838 -0.443148 7.55485 -0.284572 7.6597C0.0826569 7.92586 0.149428 8.43399 -0.125994 8.78888L-3.21405 12.7087C-3.48948 13.0636 -4.01529 13.1282 -4.38252 12.862C-4.74975 12.5958 -4.81651 12.0877 -4.54108 11.7328L-1.45302 7.81295C-1.29445 7.60324 -1.04407 7.49838 -0.793686 7.49838Z" fill="#FBE4BF"/>
</g>
<defs>
<clipPath id="clip0">
<rect width="84" height="80" fill="white"/>
</clipPath>
</defs>
</svg>
