<svg width="28" height="28" viewBox="0 0 28 28" fill="none" xmlns="http://www.w3.org/2000/svg">
<path d="M27.9254 1.19224C27.8645 0.582973 27.4081 0.126113 26.7995 0.0651861C19.1005 -0.54408 13.5926 3.20282 10.1539 7.89417C8.26723 7.28491 6.22838 7.49818 4.37212 8.53393C2.57671 9.53922 1.08561 11.2452 0.111832 13.3167C-0.101182 13.8041 -0.00988995 14.3524 0.385708 14.7179C0.750875 15.0835 1.32906 15.1444 1.78552 14.9007C3.73307 13.865 5.92408 14.0783 7.23259 15.3882L12.5884 20.7498L12.6188 20.7803C13.9273 22.0902 14.1403 24.2835 13.1057 26.2332C12.8623 26.6901 12.9535 27.2689 13.2883 27.6345C13.5317 27.8782 13.836 28 14.1708 28C14.3534 28 14.5359 27.9695 14.6881 27.8781C16.7574 26.9033 18.4615 25.3802 19.4657 23.6133C20.5308 21.755 20.7438 19.7139 20.1047 17.7948C21.4741 16.7895 22.7218 15.6928 23.7564 14.4743C26.9516 10.7882 28.3514 6.31008 27.9254 1.19224ZM4.06781 11.8239C5.37633 10.5445 7.01958 9.75247 8.75412 10.0571C8.26723 10.9101 7.87163 11.763 7.50647 12.616C6.47183 12.0372 5.28503 11.763 4.06781 11.8239ZM16.2096 23.9484C16.24 22.6994 15.9662 21.5114 15.4184 20.4756C16.3009 20.1101 17.153 19.6835 17.9746 19.2266C18.2789 20.963 17.5181 22.6385 16.2096 23.9484ZM13.7752 18.4955L9.48446 14.2001C11.645 8.44257 16.9704 2.25849 25.5214 2.44127C25.8257 12.6465 17.4268 17.0637 13.7752 18.4955ZM21.6567 6.34051C22.0219 6.70607 22.2349 7.22398 22.2349 7.74186C22.2349 8.25973 22.0219 8.77764 21.6567 9.1432C21.2915 9.50876 20.7742 9.72197 20.2569 9.72197C19.7396 9.72197 19.2222 9.50876 18.8571 9.1432C18.4919 8.77764 18.2789 8.25973 18.2789 7.74186C18.2789 7.22398 18.4919 6.70607 18.8571 6.34051C19.2222 5.97495 19.7396 5.76174 20.2569 5.76174C20.7742 5.76174 21.2915 5.97495 21.6567 6.34051ZM4.52427 19.0133C3.12446 20.4146 3.0636 23.2173 3.0636 23.7656C3.0636 24.4358 3.61135 24.9841 4.28082 24.9841H4.31125C4.9503 24.9841 7.62819 24.8928 8.99757 23.5219C9.84962 22.669 10.0322 21.7855 10.0322 21.2067C10.0322 20.3842 9.69747 19.5922 9.05843 18.9524C7.5369 17.3988 5.61977 17.8861 4.52427 19.0133ZM7.29345 21.7855C6.98915 22.0901 6.31967 22.3034 5.61977 22.3947C5.74149 21.6941 5.95451 21.0239 6.22838 20.7498C6.4414 20.5365 6.62398 20.4146 6.83699 20.4146C6.98915 20.4146 7.17173 20.506 7.35431 20.6888C7.5369 20.8715 7.62819 21.0544 7.62819 21.2067C7.59776 21.3895 7.44561 21.6332 7.29345 21.7855Z" fill="white"/>
</svg>
