<svg width="19" height="18" viewBox="0 0 19 18" fill="none" xmlns="http://www.w3.org/2000/svg">
<path d="M1.40625 9.3C1.24056 9.3 1.10625 9.16568 1.10625 9V1C1.10625 0.834315 1.24056 0.7 1.40625 0.7H7.40625C7.57194 0.7 7.70625 0.834315 7.70625 1V9C7.70625 9.16569 7.57194 9.3 7.40625 9.3H1.40625ZM1.40625 17.3C1.24056 17.3 1.10625 17.1657 1.10625 17V13C1.10625 12.8343 1.24057 12.7 1.40625 12.7H7.40625C7.57193 12.7 7.70625 12.8343 7.70625 13V17C7.70625 17.1657 7.57194 17.3 7.40625 17.3H1.40625ZM11.4062 17.3C11.2406 17.3 11.1062 17.1657 11.1062 17V9C11.1062 8.83431 11.2406 8.7 11.4062 8.7H17.4062C17.5719 8.7 17.7062 8.83431 17.7062 9V17C17.7062 17.1657 17.5719 17.3 17.4063 17.3H11.4062ZM11.1062 1C11.1062 0.834314 11.2406 0.7 11.4062 0.7H17.4062C17.5719 0.7 17.7062 0.834314 17.7062 1V5C17.7062 5.16569 17.5719 5.3 17.4063 5.3H11.4062C11.2406 5.3 11.1062 5.16569 11.1062 5V1Z" stroke="white" stroke-width="1.4"/>
</svg>
