<svg width="25" height="24" viewBox="0 0 25 24" fill="none" xmlns="http://www.w3.org/2000/svg">
<path d="M4.40625 12.3C4.24056 12.3 4.10625 12.1657 4.10625 12V4C4.10625 3.83431 4.24056 3.7 4.40625 3.7H10.4062C10.5719 3.7 10.7063 3.83431 10.7063 4V12C10.7063 12.1657 10.5719 12.3 10.4062 12.3H4.40625ZM4.40625 20.3C4.24056 20.3 4.10625 20.1657 4.10625 20V16C4.10625 15.8343 4.24057 15.7 4.40625 15.7H10.4062C10.5719 15.7 10.7063 15.8343 10.7063 16V20C10.7063 20.1657 10.5719 20.3 10.4062 20.3H4.40625ZM14.4062 20.3C14.2406 20.3 14.1062 20.1657 14.1062 20V12C14.1062 11.8343 14.2406 11.7 14.4062 11.7H20.4062C20.5719 11.7 20.7062 11.8343 20.7062 12V20C20.7062 20.1657 20.5719 20.3 20.4063 20.3H14.4062ZM14.1062 4C14.1062 3.83431 14.2406 3.7 14.4062 3.7H20.4062C20.5719 3.7 20.7062 3.83431 20.7062 4V8C20.7062 8.16569 20.5719 8.3 20.4063 8.3H14.4062C14.2406 8.3 14.1062 8.16569 14.1062 8V4Z" stroke="#80AAE1" stroke-width="1.4"/>
</svg>
