<svg width="25" height="24" viewBox="0 0 25 24" fill="none" xmlns="http://www.w3.org/2000/svg">
<path d="M24.0767 2.16262L21.9431 0.237369C21.7653 0.0791273 21.5578 0 21.3208 0C21.0837 0 20.8466 0.0791273 20.6984 0.237369L8.28179 11.4462C8.19289 11.5253 8.1336 11.6044 8.07433 11.7099L6.68154 14.8484C6.563 15.1385 6.62226 15.4813 6.88896 15.6923C7.06677 15.8506 7.2742 15.9297 7.51127 15.9297C7.62981 15.9297 7.71874 15.9033 7.83728 15.8769L11.3341 14.6374C11.4526 14.5846 11.5415 14.5319 11.6304 14.4528L24.0471 3.24397C24.4323 2.95386 24.4323 2.45273 24.0767 2.16262ZM10.534 13.2395L9.11152 13.7407L9.67457 12.4483L21.3208 1.92529L22.2098 2.7165L10.534 13.2395ZM19.602 12.2901V22.9451C19.602 23.5253 19.0093 24 18.3574 24H1.52521C0.873257 24 0.339844 23.5253 0.339844 22.9451V2.84836C0.339844 2.26814 0.873257 1.84615 1.52521 1.84615H13.853C14.5049 1.84615 15.0383 2.32088 15.0383 2.9011C15.0383 3.48132 14.5049 3.95604 13.853 3.95604H2.71057V21.8901H17.2313V12.2901C17.2313 11.7099 17.7647 11.2352 18.4166 11.2352C19.0686 11.2352 19.602 11.7099 19.602 12.2901Z" fill="white"/>
</svg>
