<svg width="25" height="24" viewBox="0 0 25 24" fill="none" xmlns="http://www.w3.org/2000/svg">
<path d="M23.3628 17.8241H7.60624C7.03233 17.8241 6.56277 17.3551 6.56277 16.7818V1.04235C6.56277 0.469055 7.03233 0 7.60624 0H23.3628C23.9367 0 24.4062 0.469055 24.4062 1.04235V16.7557C24.4062 17.3551 23.9367 17.8241 23.3628 17.8241ZM8.64972 15.7134H22.2932V2.08469H8.64972V15.7134ZM17.728 22.7231V19.9349C17.728 19.4919 17.3628 19.1531 16.9454 19.1531C16.5019 19.1531 16.1628 19.5179 16.1628 19.9349V22.3844H1.99755V8.23452H4.42365C4.86713 8.23452 5.20626 7.8697 5.20626 7.45276C5.20626 7.03582 4.84104 6.671 4.42365 6.671H1.65844C0.980176 6.671 0.40625 7.21825 0.40625 7.92183V22.7492C0.40625 23.4267 0.954089 24 1.65844 24H16.5019C17.1802 23.9739 17.728 23.4267 17.728 22.7231Z" fill="#6F9CD6"/>
</svg>
