<svg width="24" height="19" viewBox="0 0 24 19" fill="none" xmlns="http://www.w3.org/2000/svg">
<path d="M2.00682 19C1.78182 19 1.55683 18.95 1.35683 18.825C0.756828 18.475 0.58181 17.7 0.93181 17.1L3.98183 11.975C4.20683 11.625 4.58182 11.375 5.00682 11.375C5.43182 11.35 5.83183 11.55 6.08183 11.9L7.38182 13.7L10.1318 8.99999C10.3318 8.64999 10.7318 8.39999 11.1318 8.37499C11.5568 8.34999 11.9568 8.54999 12.2068 8.87499L14.6068 12.1L20.9318 1.59999C21.2818 0.999992 22.0568 0.824974 22.6568 1.17497C23.2568 1.52497 23.4318 2.29998 23.0818 2.89998L15.8068 15C15.5818 15.35 15.2068 15.575 14.8068 15.6C14.3818 15.625 13.9818 15.425 13.7318 15.1L11.3318 11.9L8.55681 16.625C8.33181 17 7.95682 17.225 7.53182 17.25C7.10682 17.275 6.70683 17.075 6.45683 16.725L5.15682 14.925L3.08183 18.4C2.85683 18.775 2.43182 19 2.00682 19Z" fill="white"/>
</svg>
