<svg width="20" height="20" viewBox="0 0 20 20" fill="none" xmlns="http://www.w3.org/2000/svg">
<path d="M10.0052 13.86C7.88518 13.86 6.14517 12.14 6.14517 10C6.14517 7.88003 7.86518 6.14002 10.0052 6.14002C12.1252 6.14002 13.8652 7.86003 13.8652 10C13.8652 12.12 12.1252 13.86 10.0052 13.86ZM10.0052 7.56004C8.66518 7.56004 7.56519 8.66003 7.56519 10C7.56519 11.34 8.66518 12.44 10.0052 12.44C11.3452 12.44 12.4452 11.34 12.4452 10C12.4452 8.66003 11.3452 7.56004 10.0052 7.56004ZM10.0052 19.2H9.90518C9.20518 19.2 8.60519 19.12 8.56519 19.12C8.24519 19.08 8.00517 18.84 7.94517 18.52L7.74517 17.08C7.30517 16.94 6.88518 16.76 6.48518 16.54L5.34517 17.4C5.08517 17.6 4.74518 17.58 4.48518 17.4C4.46518 17.38 3.98518 17 3.48518 16.52L3.40518 16.44C2.90518 15.94 2.54517 15.46 2.52517 15.44C2.32517 15.18 2.32517 14.84 2.52517 14.58L3.40518 13.42C3.18518 13.02 3.02518 12.58 2.88518 12.14L1.48518 11.94C1.16518 11.9 0.925181 11.64 0.885181 11.32C0.885181 11.3 0.805176 10.68 0.805176 9.98003V9.88003C0.805176 9.18003 0.885181 8.58002 0.885181 8.54002C0.925181 8.22002 1.16518 7.98002 1.48518 7.92002L2.92517 7.72002C3.06517 7.28002 3.24519 6.86004 3.46519 6.46004L2.60518 5.32002C2.40518 5.06002 2.42518 4.72004 2.60518 4.46004C2.62518 4.44004 3.00518 3.96004 3.48518 3.46004L3.56519 3.38003C4.06519 2.88003 4.54519 2.52003 4.56519 2.50003C4.82519 2.30003 5.16517 2.30003 5.42517 2.50003L6.58518 3.38003C6.98518 3.16003 7.42519 3.00004 7.86519 2.86004L8.06519 1.46004C8.10519 1.14004 8.36518 0.900039 8.68518 0.860039C8.70518 0.860039 9.32517 0.780034 10.0252 0.780034H10.1252C10.8252 0.780034 11.4252 0.860039 11.4652 0.860039C11.7852 0.900039 12.0252 1.14004 12.0852 1.46004L12.2852 2.90003C12.7252 3.04003 13.1452 3.22002 13.5452 3.44002L14.6852 2.58003C14.9452 2.38003 15.2852 2.40003 15.5452 2.58003C15.5652 2.60003 16.0452 2.98004 16.5452 3.46004L16.6252 3.54002C17.1252 4.04002 17.4852 4.52002 17.5052 4.54002C17.7052 4.80002 17.7052 5.14003 17.5052 5.40003L16.6252 6.56004C16.8452 6.96004 17.0052 7.40002 17.1452 7.84002L18.5452 8.04002C18.8652 8.08002 19.1052 8.34004 19.1452 8.66004C19.1452 8.68004 19.2252 9.30003 19.2252 10V10.1C19.2252 10.8 19.1452 11.4 19.1452 11.44C19.1052 11.76 18.8652 12 18.5452 12.06L17.1052 12.26C16.9652 12.7 16.7852 13.12 16.5652 13.52L17.4252 14.66C17.6252 14.92 17.6052 15.26 17.4252 15.52C17.4052 15.54 17.0252 16.02 16.5452 16.52L16.4652 16.6C15.9652 17.1 15.4852 17.46 15.4652 17.48C15.2052 17.68 14.8652 17.68 14.6052 17.48L13.4452 16.6C13.0452 16.82 12.6052 16.98 12.1652 17.12L11.9652 18.52C11.9252 18.84 11.6652 19.08 11.3452 19.12C11.3052 19.12 10.7052 19.2 10.0052 19.2ZM9.28518 17.76C9.46518 17.78 9.68518 17.78 9.90518 17.78H10.0052C10.2252 17.78 10.4452 17.78 10.6252 17.76L10.8052 16.44C10.8452 16.14 11.0652 15.92 11.3452 15.84C11.9652 15.7 12.5652 15.46 13.1052 15.12C13.2652 15.02 13.4652 15 13.6452 15.04C13.7452 15.06 13.8452 15.12 13.9252 15.18L14.9852 15.98C15.1252 15.86 15.2852 15.72 15.4452 15.56L15.5252 15.48C15.6852 15.32 15.8252 15.16 15.9452 15.02L15.1452 13.96C14.9652 13.72 14.9652 13.4 15.1052 13.16C15.4452 12.64 15.6852 12.06 15.8252 11.46C15.8852 11.16 16.1252 10.92 16.4252 10.88L17.7652 10.7C17.7852 10.52 17.7852 10.3 17.7852 10.08V9.98003C17.7852 9.76003 17.7852 9.54004 17.7652 9.36004L16.4452 9.18003C16.1652 9.14003 15.9252 8.92002 15.8652 8.64002C15.7252 8.02002 15.4852 7.44003 15.1652 6.90003C15.1252 6.86003 15.1052 6.80002 15.0852 6.74002C15.0052 6.52002 15.0452 6.26003 15.1852 6.08003L16.0052 5.00003C15.8852 4.86003 15.7452 4.70002 15.5852 4.54002L15.5052 4.46004C15.3452 4.30004 15.1852 4.16002 15.0452 4.04002L13.9852 4.84002C13.7252 5.02002 13.3852 5.02002 13.1452 4.84002C12.6252 4.52002 12.0452 4.28002 11.4452 4.12002C11.1652 4.06002 10.9452 3.82002 10.9052 3.52002L10.7252 2.18003C10.5452 2.16003 10.3252 2.16004 10.1052 2.16004H10.0052C9.78518 2.16004 9.56518 2.16003 9.38518 2.18003L9.20518 3.50003C9.16518 3.82003 8.92518 4.06003 8.60518 4.10003C8.00518 4.24003 7.42518 4.48003 6.90518 4.80003C6.74518 4.90003 6.54519 4.92003 6.36519 4.88003C6.26519 4.86003 6.16518 4.80002 6.08518 4.74002L5.04517 3.94002C4.90517 4.06002 4.74518 4.20004 4.58518 4.36004L4.50518 4.44002C4.34518 4.60002 4.20518 4.76003 4.08518 4.90003L4.88518 5.96004C5.06518 6.20004 5.06517 6.50004 4.92517 6.76004C4.90517 6.78004 4.90518 6.80002 4.88518 6.82002C4.56518 7.34002 4.32518 7.92002 4.18518 8.52002C4.12518 8.80002 3.88518 9.02004 3.58518 9.06004L2.24517 9.24002C2.22517 9.42002 2.22517 9.64004 2.22517 9.86004V9.96004C2.22517 10.18 2.22517 10.4 2.24517 10.58L3.56519 10.76C3.88519 10.8 4.12519 11.04 4.16519 11.36V11.38C4.30519 11.98 4.54519 12.54 4.86519 13.06C4.96519 13.24 5.00517 13.46 4.92517 13.66C4.90517 13.74 4.84518 13.82 4.78518 13.9L4.00518 14.94C4.12518 15.08 4.26517 15.24 4.42517 15.4L4.50518 15.48C4.66518 15.64 4.82519 15.78 4.96519 15.9L6.02517 15.1C6.28517 14.9 6.66518 14.92 6.90518 15.12C7.42518 15.44 7.98519 15.66 8.56519 15.8C8.84519 15.86 9.06518 16.1 9.10518 16.4L9.28518 17.76Z" fill="#6F9CD6"/>
</svg>
