<svg width="237" height="69" viewBox="0 0 237 69" fill="none" xmlns="http://www.w3.org/2000/svg">
<rect x="0.5" y="0.5" width="236" height="62" rx="14.5" stroke="#4357BF" stroke-opacity="0.54"/>
<path d="M88.6338 18.0446H91.0397" stroke="white"/>
<path d="M88.6338 24.0593H91.0397" stroke="white"/>
<path d="M89.8379 18.0444V24.0593" stroke="white"/>
<g filter="url(#filter0_d)">
<circle cx="118.825" cy="22.1308" r="6.01482" fill="#E5E5E5"/>
</g>
<rect x="116.02" y="20.5268" width="5.61383" height="1.20296" rx="0.601482" fill="#90A0B7"/>
<rect x="116.02" y="22.5317" width="5.61383" height="1.20296" rx="0.601482" fill="#90A0B7"/>
<g filter="url(#filter1_d)">
<rect x="188.08" y="6.81671" width="24.8612" height="10.4257" rx="5" fill="#4357BF"/>
<rect x="188.18" y="6.91671" width="24.6612" height="10.2257" rx="4.9" stroke="#4357BF" stroke-width="0.2"/>
</g>
<rect x="135.5" y="13.5001" width="82" height="38" rx="2.5" fill="white" stroke="#90A0B7"/>
<g filter="url(#filter2_d)">
<rect x="188.08" y="6.81677" width="24.8612" height="10.4257" rx="5" fill="#90A0B7"/>
</g>
<path d="M194.598 9.40656V12.8326H194.04L192.331 10.648V12.8326H191.629V9.40656H192.182L193.89 11.5863V9.40656H194.598Z" fill="white"/>
<path d="M201.026 12.8326L199.251 11.0859L201.161 9.40656H201.69L199.612 11.211L199.655 10.9656L201.517 12.8326H201.026ZM198.842 12.8326L199.107 9.40656H199.506L199.236 12.8326H198.842Z" fill="white"/>
<path d="M207.235 12.8701C207.059 12.8701 206.893 12.8557 206.739 12.8268C206.585 12.7947 206.443 12.7466 206.311 12.6824C206.18 12.6151 206.061 12.5333 205.955 12.437L206.104 12.1339C206.277 12.2782 206.451 12.3809 206.624 12.4418C206.8 12.5028 207.006 12.5333 207.24 12.5333C207.513 12.5333 207.724 12.4803 207.875 12.3745C208.026 12.2654 208.101 12.113 208.101 11.9173C208.101 11.7987 208.063 11.704 207.986 11.6334C207.912 11.5597 207.809 11.5019 207.678 11.4602C207.549 11.4153 207.403 11.3736 207.24 11.3351C207.076 11.2998 206.921 11.2597 206.773 11.2148C206.626 11.1667 206.494 11.1074 206.379 11.0368C206.266 10.9662 206.178 10.8764 206.114 10.7673C206.05 10.6582 206.018 10.5219 206.018 10.3583C206.018 10.1626 206.069 9.991 206.172 9.84344C206.274 9.69267 206.419 9.57558 206.605 9.49217C206.791 9.40877 207.01 9.36707 207.264 9.36707C207.421 9.36707 207.572 9.38471 207.716 9.42C207.861 9.45207 207.994 9.50019 208.116 9.56435C208.241 9.62851 208.351 9.7071 208.448 9.80013L208.294 10.1033C208.136 9.96534 207.974 9.86429 207.808 9.80013C207.641 9.73597 207.46 9.7039 207.264 9.7039C206.998 9.7039 206.789 9.76003 206.638 9.87231C206.488 9.98459 206.412 10.1418 206.412 10.3439C206.412 10.469 206.446 10.57 206.513 10.647C206.581 10.724 206.675 10.7866 206.797 10.8347C206.919 10.8796 207.059 10.9213 207.216 10.9598C207.383 10.9983 207.543 11.04 207.697 11.0849C207.851 11.1298 207.987 11.1859 208.106 11.2533C208.228 11.3175 208.324 11.4025 208.395 11.5083C208.465 11.611 208.501 11.7425 208.501 11.9029C208.501 12.0986 208.449 12.2686 208.347 12.413C208.244 12.5573 208.098 12.6696 207.909 12.7498C207.719 12.83 207.495 12.8701 207.235 12.8701Z" fill="white"/>
<path d="M205.522 14.0344H208.931" stroke="white" stroke-width="1.2"/>
<rect x="20.5" y="13.5" width="82" height="38" rx="2.5" fill="white" stroke="#90A0B7"/>
<g filter="url(#filter3_d)">
<rect x="73.3711" y="6.63599" width="24.8612" height="10.4257" rx="5" fill="#90A0B7"/>
</g>
<path d="M79.8898 9.22516V12.6512H79.3316L77.6234 10.4666V12.6512H76.9209V9.22516H77.4743L79.1825 11.4049V9.22516H79.8898Z" fill="white"/>
<path d="M86.3184 12.6512L84.5429 10.9045L86.4532 9.22516H86.9825L84.9038 11.0296L84.9471 10.7842L86.8093 12.6512H86.3184ZM84.1339 12.6512L84.3985 9.22516H84.7979L84.5284 12.6512H84.1339Z" fill="white"/>
<path d="M92.526 12.6891C92.3496 12.6891 92.1844 12.6747 92.0304 12.6458C91.8764 12.6137 91.7337 12.5656 91.6022 12.5015C91.4706 12.4341 91.352 12.3523 91.2461 12.2561L91.3953 11.9529C91.5685 12.0973 91.7417 12.1999 91.9149 12.2609C92.0914 12.3218 92.2967 12.3523 92.5309 12.3523C92.8035 12.3523 93.0153 12.2994 93.166 12.1935C93.3168 12.0844 93.3922 11.9321 93.3922 11.7364C93.3922 11.6177 93.3537 11.5231 93.2767 11.4525C93.2029 11.3787 93.1003 11.321 92.9687 11.2793C92.8404 11.2343 92.6945 11.1926 92.5309 11.1541C92.3673 11.1189 92.2117 11.0788 92.0641 11.0338C91.9165 10.9857 91.785 10.9264 91.6695 10.8558C91.5573 10.7852 91.469 10.6954 91.4049 10.5863C91.3407 10.4773 91.3086 10.3409 91.3086 10.1773C91.3086 9.98166 91.36 9.81003 91.4626 9.66247C91.5653 9.5117 91.7096 9.39461 91.8957 9.3112C92.0818 9.2278 92.3015 9.1861 92.5549 9.1861C92.7121 9.1861 92.8629 9.20374 93.0072 9.23903C93.1516 9.27111 93.2847 9.31922 93.4066 9.38338C93.5317 9.44754 93.6424 9.52613 93.7386 9.61916L93.5847 9.92231C93.4275 9.78437 93.2655 9.68332 93.0987 9.61916C92.9318 9.555 92.7506 9.52293 92.5549 9.52293C92.2887 9.52293 92.0801 9.57906 91.9294 9.69134C91.7786 9.80362 91.7032 9.9608 91.7032 10.1629C91.7032 10.288 91.7369 10.3891 91.8043 10.466C91.8716 10.543 91.9663 10.6056 92.0882 10.6537C92.2101 10.6986 92.3496 10.7403 92.5068 10.7788C92.6736 10.8173 92.834 10.859 92.988 10.9039C93.142 10.9488 93.2783 11.005 93.397 11.0723C93.5189 11.1365 93.6151 11.2215 93.6857 11.3274C93.7563 11.43 93.7916 11.5615 93.7916 11.7219C93.7916 11.9176 93.7402 12.0876 93.6376 12.232C93.5349 12.3764 93.389 12.4886 93.1997 12.5688C93.0104 12.649 92.7859 12.6891 92.526 12.6891Z" fill="white"/>
<path d="M90.8135 13.8534H94.2219" stroke="white" stroke-width="1.2"/>
<circle cx="223.688" cy="62.688" r="4.74" fill="#90A0B7"/>
<path d="M226.202 62.7354C226.202 62.9724 226.013 63.162 225.776 63.162H224.069V64.7736C224.069 65.0106 223.88 65.2002 223.643 65.2002C223.406 65.2002 223.216 65.0106 223.216 64.7736V63.162H221.604C221.367 63.162 221.178 62.9724 221.178 62.7354C221.178 62.4984 221.367 62.3088 221.604 62.3088H223.216V60.6024C223.216 60.3654 223.406 60.1758 223.643 60.1758C223.88 60.1758 224.069 60.3654 224.069 60.6024V62.3088H225.776C226.013 62.3088 226.202 62.4984 226.202 62.7354Z" fill="white"/>
<defs>
<filter id="filter0_d" x="109.811" y="14.116" width="18.0296" height="18.0296" filterUnits="userSpaceOnUse" color-interpolation-filters="sRGB">
<feFlood flood-opacity="0" result="BackgroundImageFix"/>
<feColorMatrix in="SourceAlpha" type="matrix" values="0 0 0 0 0 0 0 0 0 0 0 0 0 0 0 0 0 0 127 0"/>
<feOffset dy="1"/>
<feGaussianBlur stdDeviation="1.5"/>
<feColorMatrix type="matrix" values="0 0 0 0 0.2625 0 0 0 0 0.339926 0 0 0 0 0.75 0 0 0 1 0"/>
<feBlend mode="normal" in2="BackgroundImageFix" result="effect1_dropShadow"/>
<feBlend mode="normal" in="SourceGraphic" in2="effect1_dropShadow" result="shape"/>
</filter>
<filter id="filter1_d" x="184.08" y="6.81671" width="32.8612" height="18.4257" filterUnits="userSpaceOnUse" color-interpolation-filters="sRGB">
<feFlood flood-opacity="0" result="BackgroundImageFix"/>
<feColorMatrix in="SourceAlpha" type="matrix" values="0 0 0 0 0 0 0 0 0 0 0 0 0 0 0 0 0 0 127 0"/>
<feOffset dy="4"/>
<feGaussianBlur stdDeviation="2"/>
<feColorMatrix type="matrix" values="0 0 0 0 0 0 0 0 0 0 0 0 0 0 0 0 0 0 0.25 0"/>
<feBlend mode="normal" in2="BackgroundImageFix" result="effect1_dropShadow"/>
<feBlend mode="normal" in="SourceGraphic" in2="effect1_dropShadow" result="shape"/>
</filter>
<filter id="filter2_d" x="184.08" y="6.81677" width="32.8612" height="18.4257" filterUnits="userSpaceOnUse" color-interpolation-filters="sRGB">
<feFlood flood-opacity="0" result="BackgroundImageFix"/>
<feColorMatrix in="SourceAlpha" type="matrix" values="0 0 0 0 0 0 0 0 0 0 0 0 0 0 0 0 0 0 127 0"/>
<feOffset dy="4"/>
<feGaussianBlur stdDeviation="2"/>
<feColorMatrix type="matrix" values="0 0 0 0 0 0 0 0 0 0 0 0 0 0 0 0 0 0 0.25 0"/>
<feBlend mode="normal" in2="BackgroundImageFix" result="effect1_dropShadow"/>
<feBlend mode="normal" in="SourceGraphic" in2="effect1_dropShadow" result="shape"/>
</filter>
<filter id="filter3_d" x="69.3711" y="6.63599" width="32.8612" height="18.4257" filterUnits="userSpaceOnUse" color-interpolation-filters="sRGB">
<feFlood flood-opacity="0" result="BackgroundImageFix"/>
<feColorMatrix in="SourceAlpha" type="matrix" values="0 0 0 0 0 0 0 0 0 0 0 0 0 0 0 0 0 0 127 0"/>
<feOffset dy="4"/>
<feGaussianBlur stdDeviation="2"/>
<feColorMatrix type="matrix" values="0 0 0 0 0 0 0 0 0 0 0 0 0 0 0 0 0 0 0.25 0"/>
<feBlend mode="normal" in2="BackgroundImageFix" result="effect1_dropShadow"/>
<feBlend mode="normal" in="SourceGraphic" in2="effect1_dropShadow" result="shape"/>
</filter>
</defs>
</svg>
