<svg width="224" height="105" viewBox="0 0 224 105" fill="none" xmlns="http://www.w3.org/2000/svg">
<path d="M14.2402 11.0582V7.13757H17.2749V7.80385H15.1797V8.72894H17.1451V9.40073H15.1797V10.3919H17.2749V11.0582H14.2402Z" fill="#334D6E"/>
<path d="M19.0773 11.1022C18.484 11.1022 18.0163 10.9884 17.6743 10.7608L17.9216 10.1827C18.0864 10.2891 18.2697 10.3717 18.4716 10.4304C18.6735 10.4855 18.8796 10.513 19.0897 10.513C19.2504 10.513 19.374 10.491 19.4605 10.447C19.5471 10.4029 19.5903 10.3387 19.5903 10.2542C19.5903 10.1845 19.5594 10.1294 19.4976 10.089C19.4358 10.0487 19.3266 10.0138 19.17 9.98442L18.6571 9.8798C18.3563 9.82106 18.1338 9.72745 17.9896 9.59897C17.8495 9.47048 17.7794 9.29978 17.7794 9.08686C17.7794 8.91433 17.835 8.76015 17.9463 8.62432C18.0617 8.48849 18.2203 8.38387 18.4222 8.31045C18.6241 8.23336 18.8569 8.19481 19.1206 8.19481C19.3431 8.19481 19.5615 8.22602 19.7757 8.28842C19.99 8.34716 20.1816 8.43159 20.3505 8.54172L20.0909 9.09788C19.9302 8.99876 19.7654 8.9235 19.5965 8.87211C19.4317 8.82072 19.271 8.79502 19.1144 8.79502C18.962 8.79502 18.8425 8.81888 18.7559 8.8666C18.6694 8.91433 18.6262 8.98041 18.6262 9.06484C18.6262 9.12724 18.6509 9.17864 18.7003 9.21902C18.7539 9.25573 18.8466 9.28693 18.9784 9.31263L19.5038 9.41725C19.8252 9.48333 20.058 9.58245 20.2022 9.7146C20.3464 9.84676 20.4185 10.023 20.4185 10.2432C20.4185 10.5075 20.299 10.7168 20.06 10.871C19.8211 11.0251 19.4935 11.1022 19.0773 11.1022Z" fill="#334D6E"/>
<path d="M22.47 11.1022C21.9591 11.1022 21.5574 10.9738 21.2648 10.7168C20.9764 10.4598 20.8322 10.1092 20.8322 9.66505C20.8322 9.37504 20.9022 9.1199 21.0423 8.89964C21.1824 8.67571 21.3781 8.50318 21.6295 8.38203C21.8849 8.25722 22.1795 8.19481 22.5133 8.19481C22.7399 8.19481 22.9603 8.22602 23.1746 8.28842C23.3889 8.35083 23.5599 8.43526 23.6876 8.54172L23.4404 9.1199C23.3168 9.0318 23.1808 8.96389 23.0324 8.91616C22.8841 8.86477 22.7399 8.83907 22.5998 8.83907C22.3443 8.83907 22.1445 8.90882 22.0003 9.04832C21.8602 9.18415 21.7902 9.38421 21.7902 9.64853C21.7902 9.91651 21.8602 10.1202 22.0003 10.2597C22.1404 10.3956 22.3402 10.4635 22.5998 10.4635C22.7399 10.4635 22.8841 10.4396 23.0324 10.3919C23.1808 10.3405 23.3168 10.2708 23.4404 10.1827L23.6876 10.7608C23.5516 10.8673 23.3744 10.9517 23.1561 11.0141C22.9377 11.0729 22.709 11.1022 22.47 11.1022Z" fill="#334D6E"/>
<path d="M25.9545 8.20032C26.0864 8.20032 26.1976 8.21867 26.2883 8.25538L26.2821 9.01528C26.1297 8.95287 25.9772 8.92167 25.8248 8.92167C25.5775 8.92167 25.388 8.98224 25.2561 9.10338C25.1284 9.22086 25.0645 9.38605 25.0645 9.59897V11.0582H24.1313V9.06484C24.1313 8.76749 24.1148 8.50134 24.0818 8.2664H24.9595L25.0213 8.74546C25.0996 8.56925 25.2211 8.43526 25.3859 8.34349C25.5549 8.24804 25.7444 8.20032 25.9545 8.20032Z" fill="#334D6E"/>
<path d="M26.6663 11.0582V8.2664H27.5995V11.0582H26.6663ZM26.6354 6.95585H27.6304V7.73777H26.6354V6.95585Z" fill="#334D6E"/>
<path d="M30.2783 8.19481C30.5502 8.19481 30.7913 8.25538 31.0014 8.37653C31.2115 8.494 31.3743 8.66286 31.4897 8.88312C31.605 9.09971 31.6627 9.35118 31.6627 9.63751C31.6627 9.92385 31.603 10.179 31.4835 10.4029C31.3681 10.6232 31.2054 10.7957 30.9952 10.9205C30.7851 11.0417 30.5461 11.1022 30.2783 11.1022C30.0599 11.1022 29.8621 11.0619 29.6849 10.9811C29.5119 10.8967 29.38 10.7829 29.2894 10.6397V11.0582H28.3623V7.00541H29.2956V8.65736C29.3862 8.51419 29.5181 8.40222 29.6911 8.32146C29.8683 8.23703 30.064 8.19481 30.2783 8.19481ZM30.0125 10.469C30.2432 10.469 30.4204 10.3974 30.544 10.2542C30.6676 10.1111 30.7295 9.90549 30.7295 9.63751C30.7295 9.38054 30.6676 9.18231 30.544 9.04281C30.4204 8.90331 30.2432 8.83357 30.0125 8.83357C29.7818 8.83357 29.6025 8.90515 29.4748 9.04832C29.3512 9.18782 29.2894 9.38789 29.2894 9.64853C29.2894 9.91284 29.3512 10.1166 29.4748 10.2597C29.6025 10.3992 29.7818 10.469 30.0125 10.469Z" fill="#334D6E"/>
<path d="M35.0735 9.73112H33.0092C33.0257 9.99176 33.1019 10.1827 33.2379 10.3038C33.3739 10.4213 33.5758 10.48 33.8436 10.48C34.0043 10.48 34.165 10.4561 34.3257 10.4084C34.4864 10.3607 34.6347 10.2909 34.7707 10.1992L35.0179 10.7608C34.8695 10.8673 34.6841 10.9517 34.4616 11.0141C34.2433 11.0729 34.0228 11.1022 33.8003 11.1022C33.2729 11.1022 32.8588 10.9738 32.558 10.7168C32.2572 10.4561 32.1068 10.1019 32.1068 9.65403C32.1068 9.37137 32.1707 9.1199 32.2984 8.89964C32.4303 8.67571 32.6136 8.50318 32.8485 8.38203C33.0834 8.25722 33.3491 8.19481 33.6458 8.19481C34.0867 8.19481 34.4348 8.3233 34.6903 8.58027C34.9458 8.83357 35.0735 9.1768 35.0735 9.60998V9.73112ZM33.6705 8.7785C33.4933 8.7785 33.3491 8.82439 33.2379 8.91616C33.1308 9.00794 33.0607 9.14193 33.0277 9.31814H34.27C34.2206 8.95838 34.0208 8.7785 33.6705 8.7785Z" fill="#334D6E"/>
<path d="M40.3891 8.2664V11.0582H39.4806V10.6507C39.3817 10.7975 39.2519 10.9095 39.0912 10.9866C38.9305 11.0637 38.7492 11.1022 38.5473 11.1022C38.1559 11.1022 37.8633 11.005 37.6697 10.8104C37.476 10.6158 37.3792 10.3222 37.3792 9.92936V8.2664H38.3125V9.94588C38.3125 10.2836 38.4752 10.4525 38.8007 10.4525C38.9944 10.4525 39.1509 10.3937 39.2704 10.2763C39.3899 10.1588 39.4497 10.0046 39.4497 9.81372V8.2664H40.3891Z" fill="#334D6E"/>
<path d="M43.0804 8.19481C43.8221 8.19481 44.1929 8.58577 44.1929 9.36769V11.0582H43.2596V9.40624C43.2596 9.21168 43.2184 9.07034 43.136 8.98224C43.0577 8.89047 42.9321 8.84458 42.759 8.84458C42.553 8.84458 42.3882 8.90331 42.2646 9.02079C42.141 9.13826 42.0792 9.29611 42.0792 9.49434V11.0582H41.1459V9.06484C41.1459 8.76749 41.1294 8.50134 41.0964 8.2664H41.9741L42.0359 8.70692C42.1471 8.54172 42.2914 8.41507 42.4685 8.32697C42.6498 8.23887 42.8538 8.19481 43.0804 8.19481Z" fill="#334D6E"/>
<path d="M47.8489 8.88863V9.97341C47.8489 10.1276 47.8942 10.2414 47.9849 10.3148C48.0755 10.3846 48.1929 10.4194 48.3372 10.4194C48.4278 10.4194 48.5308 10.4066 48.6462 10.3809V11.0251C48.4978 11.0765 48.3186 11.1022 48.1085 11.1022C47.7212 11.1022 47.4245 11.005 47.2185 10.8104C47.0166 10.6158 46.9156 10.3423 46.9156 9.98993V8.88863H46.3223V8.2664H46.9156V7.61113L47.8489 7.34131V8.2664H48.6462V8.88863H47.8489Z" fill="#334D6E"/>
<path d="M49.1251 11.0582V8.2664H50.0583V11.0582H49.1251ZM49.8791 7.90848H49.3043L49.9162 6.77414H50.8309L49.8791 7.90848Z" fill="#334D6E"/>
<path d="M51.9954 8.88863V9.97341C51.9954 10.1276 52.0407 10.2414 52.1314 10.3148C52.222 10.3846 52.3395 10.4194 52.4837 10.4194C52.5743 10.4194 52.6773 10.4066 52.7927 10.3809V11.0251C52.6444 11.0765 52.4651 11.1022 52.255 11.1022C51.8677 11.1022 51.571 11.005 51.365 10.8104C51.1631 10.6158 51.0621 10.3423 51.0621 9.98993V8.88863H50.4688V8.2664H51.0621V7.61113L51.9954 7.34131V8.2664H52.7927V8.88863H51.9954Z" fill="#334D6E"/>
<path d="M56.263 8.2664V11.0582H55.3544V10.6507C55.2556 10.7975 55.1258 10.9095 54.9651 10.9866C54.8044 11.0637 54.6231 11.1022 54.4212 11.1022C54.0297 11.1022 53.7372 11.005 53.5435 10.8104C53.3499 10.6158 53.2531 10.3222 53.2531 9.92936V8.2664H54.1863V9.94588C54.1863 10.2836 54.3491 10.4525 54.6746 10.4525C54.8682 10.4525 55.0248 10.3937 55.1443 10.2763C55.2638 10.1588 55.3235 10.0046 55.3235 9.81372V8.2664H56.263Z" fill="#334D6E"/>
<path d="M57.0198 11.0582V7.00541H57.953V11.0582H57.0198Z" fill="#334D6E"/>
<path d="M60.2115 11.1022C59.8777 11.1022 59.5852 11.0435 59.3338 10.926C59.0866 10.8086 58.895 10.6397 58.759 10.4194C58.6272 10.1992 58.5613 9.9422 58.5613 9.64853C58.5613 9.35485 58.6272 9.09788 58.759 8.87762C58.895 8.65736 59.0866 8.48849 59.3338 8.37102C59.5852 8.25355 59.8777 8.19481 60.2115 8.19481C60.5411 8.19481 60.8295 8.25355 61.0768 8.37102C61.324 8.48849 61.5135 8.65736 61.6454 8.87762C61.7813 9.09788 61.8493 9.35485 61.8493 9.64853C61.8493 9.9422 61.7813 10.1992 61.6454 10.4194C61.5135 10.6397 61.324 10.8086 61.0768 10.926C60.8295 11.0435 60.5411 11.1022 60.2115 11.1022ZM60.2115 10.469C60.4422 10.469 60.6173 10.4011 60.7368 10.2653C60.8604 10.1294 60.9222 9.92385 60.9222 9.64853C60.9222 9.37687 60.8604 9.17313 60.7368 9.03731C60.6173 8.89781 60.4422 8.82806 60.2115 8.82806C59.9766 8.82806 59.7974 8.89781 59.6738 9.03731C59.5502 9.17313 59.4884 9.37687 59.4884 9.64853C59.4884 10.1955 59.7294 10.469 60.2115 10.469Z" fill="#334D6E"/>
<rect x="13.6582" y="26.7506" width="190.518" height="28.2147" rx="4.5" stroke="#90A0B7"/>
<rect x="0.672852" y="0.782043" width="94.2182" height="17.3944" rx="4.5" stroke="#90A0B7"/>
<rect x="21.2324" y="62.4575" width="191.6" height="26.0506" rx="4.5" fill="white" stroke="#90A0B7"/>
<g filter="url(#filter0_d)">
<rect x="176.678" y="56.5413" width="44.3947" height="9.2341" rx="4.61705" fill="#E5E5E5"/>
</g>
<path d="M182.452 59.5445V62.5789H181.957L180.445 60.644V62.5789H179.822V59.5445H180.312L181.825 61.4751V59.5445H182.452Z" fill="#334D6E"/>
<path d="M188.145 62.5789L186.572 61.0319L188.264 59.5445H188.733L186.892 61.1427L186.93 60.9253L188.58 62.5789H188.145ZM186.21 62.5789L186.444 59.5445H186.798L186.559 62.5789H186.21Z" fill="#334D6E"/>
<path d="M193.644 62.6131C193.488 62.6131 193.342 62.6003 193.205 62.5747C193.069 62.5463 192.943 62.5037 192.826 62.4469C192.71 62.3872 192.605 62.3147 192.511 62.2295L192.643 61.961C192.796 62.0889 192.95 62.1798 193.103 62.2338C193.259 62.2877 193.441 62.3147 193.649 62.3147C193.89 62.3147 194.078 62.2679 194.211 62.1741C194.345 62.0775 194.412 61.9425 194.412 61.7692C194.412 61.6641 194.377 61.5803 194.309 61.5178C194.244 61.4524 194.153 61.4013 194.037 61.3643C193.923 61.3246 193.794 61.2876 193.649 61.2535C193.504 61.2223 193.366 61.1868 193.235 61.147C193.105 61.1044 192.988 61.0518 192.886 60.9893C192.786 60.9268 192.708 60.8472 192.651 60.7506C192.595 60.654 192.566 60.5333 192.566 60.3884C192.566 60.215 192.612 60.063 192.703 59.9323C192.793 59.7988 192.921 59.6951 193.086 59.6212C193.251 59.5473 193.446 59.5104 193.67 59.5104C193.809 59.5104 193.943 59.526 194.071 59.5573C194.198 59.5857 194.316 59.6283 194.424 59.6851C194.535 59.742 194.633 59.8116 194.718 59.894L194.582 60.1625C194.443 60.0403 194.299 59.9508 194.152 59.894C194.004 59.8372 193.843 59.8087 193.67 59.8087C193.434 59.8087 193.249 59.8585 193.116 59.9579C192.982 60.0573 192.916 60.1966 192.916 60.3756C192.916 60.4864 192.945 60.5759 193.005 60.6441C193.065 60.7123 193.149 60.7677 193.257 60.8103C193.365 60.8501 193.488 60.887 193.627 60.9211C193.775 60.9552 193.917 60.9921 194.054 61.0319C194.19 61.0717 194.311 61.1214 194.416 61.1811C194.524 61.2379 194.609 61.3132 194.672 61.4069C194.734 61.4979 194.765 61.6144 194.765 61.7564C194.765 61.9297 194.72 62.0803 194.629 62.2082C194.538 62.336 194.409 62.4355 194.241 62.5065C194.073 62.5775 193.875 62.6131 193.644 62.6131Z" fill="#334D6E"/>
<path d="M192.126 63.6443H195.145" stroke="#5570FF" stroke-width="0.5"/>
<path d="M199.994 59.6257V59.7376H199.526V59.6257H199.692V59.1367L199.538 59.2294V59.1069L199.749 58.979H199.829V59.6257H199.994Z" fill="#6F9CD6"/>
<path d="M199.992 61.4015V61.5134H199.482V61.4122L199.74 61.1341C199.771 61.1007 199.793 61.0702 199.807 61.0425C199.822 61.0148 199.829 60.9874 199.829 60.9604C199.829 60.9256 199.818 60.8993 199.798 60.8816C199.778 60.8638 199.749 60.8549 199.711 60.8549C199.645 60.8549 199.576 60.8812 199.506 60.9338L199.46 60.8336C199.49 60.8066 199.528 60.7853 199.575 60.7697C199.622 60.7534 199.669 60.7452 199.717 60.7452C199.793 60.7452 199.853 60.764 199.897 60.8017C199.942 60.8386 199.964 60.8887 199.964 60.9519C199.964 60.9952 199.954 61.0361 199.935 61.0744C199.917 61.1128 199.885 61.1558 199.841 61.2034L199.655 61.4015H199.992Z" fill="#6F9CD6"/>
<path d="M199.844 62.8992C199.888 62.9113 199.922 62.9333 199.946 62.9653C199.97 62.9973 199.982 63.0367 199.982 63.0836C199.982 63.1496 199.958 63.2018 199.909 63.2402C199.86 63.2785 199.795 63.2977 199.712 63.2977C199.661 63.2977 199.612 63.2899 199.564 63.2743C199.517 63.2587 199.479 63.237 199.448 63.2093L199.495 63.1091C199.563 63.1617 199.633 63.188 199.707 63.188C199.755 63.188 199.791 63.1784 199.815 63.1592C199.839 63.14 199.851 63.1109 199.851 63.0718C199.851 63.0335 199.839 63.0054 199.815 62.9877C199.791 62.9692 199.753 62.96 199.703 62.96H199.603V62.8502H199.685C199.783 62.8502 199.832 62.8129 199.832 62.7383C199.832 62.7035 199.821 62.6769 199.8 62.6584C199.779 62.64 199.749 62.6307 199.71 62.6307C199.642 62.6307 199.574 62.657 199.506 62.7096L199.46 62.6094C199.491 62.5824 199.529 62.5611 199.575 62.5455C199.622 62.5292 199.67 62.521 199.719 62.521C199.793 62.521 199.853 62.5395 199.897 62.5764C199.942 62.6126 199.964 62.6613 199.964 62.7224C199.963 62.7643 199.952 62.8009 199.931 62.8321C199.91 62.8627 199.881 62.885 199.844 62.8992Z" fill="#6F9CD6"/>
<rect x="211.838" y="59.3824" width="4.97221" height="0.355158" fill="#6F9CD6"/>
<rect x="211.838" y="61.1582" width="4.97221" height="0.355158" fill="#6F9CD6"/>
<rect x="211.838" y="62.9341" width="4.97221" height="0.355158" fill="#6F9CD6"/>
<rect x="200.475" y="59.3824" width="4.97221" height="0.355158" fill="#6F9CD6"/>
<rect x="200.475" y="61.1582" width="4.97221" height="0.355158" fill="#6F9CD6"/>
<rect x="200.475" y="62.9341" width="4.97221" height="0.355158" fill="#6F9CD6"/>
<circle cx="210.773" cy="59.3823" r="0.355158" fill="#6F9CD6"/>
<circle cx="210.773" cy="61.1583" r="0.355158" fill="#6F9CD6"/>
<circle cx="210.773" cy="62.934" r="0.355158" fill="#6F9CD6"/>
<path d="M36.9629 99.8284H38.0449" stroke="#C4C4C4"/>
<path d="M36.9629 104.156H38.0449" stroke="#C4C4C4"/>
<path d="M6.66504 16.5124V34.9068H14.2392" stroke="#90A0B7" stroke-dasharray="1 1"/>
<path d="M17.4854 52.2192V71.6957H22.8955" stroke="#90A0B7" stroke-dasharray="1 1"/>
<defs>
<filter id="filter0_d" x="174.678" y="56.5413" width="48.3947" height="13.2341" filterUnits="userSpaceOnUse" color-interpolation-filters="sRGB">
<feFlood flood-opacity="0" result="BackgroundImageFix"/>
<feColorMatrix in="SourceAlpha" type="matrix" values="0 0 0 0 0 0 0 0 0 0 0 0 0 0 0 0 0 0 127 0"/>
<feOffset dy="2"/>
<feGaussianBlur stdDeviation="1"/>
<feColorMatrix type="matrix" values="0 0 0 0 0 0 0 0 0 0 0 0 0 0 0 0 0 0 0.25 0"/>
<feBlend mode="normal" in2="BackgroundImageFix" result="effect1_dropShadow"/>
<feBlend mode="normal" in="SourceGraphic" in2="effect1_dropShadow" result="shape"/>
</filter>
</defs>
</svg>
