<svg width="173" height="116" viewBox="0 0 173 116" fill="none" xmlns="http://www.w3.org/2000/svg">
<rect x="0.5" y="12.3396" width="171.652" height="102.384" rx="2.5" fill="white" stroke="#90A0B7"/>
<g filter="url(#filter0_d)">
<rect x="133.883" y="3.56885" width="32.0491" height="13.44" rx="5" fill="#90A0B7"/>
</g>
<path d="M141.373 7.94001H142.285V12.3566H141.566L139.364 9.54039V12.3566H138.458V7.94001H139.171L141.373 10.75V7.94001Z" fill="#C4C4C4"/>
<path d="M150.573 12.3566L148.284 10.1049L150.746 7.94001H151.429L148.749 10.2662L148.805 9.9498L151.205 12.3566H150.573ZM147.756 12.3566L148.098 7.94001H148.612L148.265 12.3566H147.756Z" fill="#C4C4C4"/>
<path d="M158.575 12.4062C157.884 12.4062 157.334 12.2201 156.925 11.8479L157.117 11.4571C157.336 11.6432 157.559 11.7756 157.787 11.8541C158.014 11.9327 158.279 11.972 158.581 11.972C158.936 11.972 159.209 11.9038 159.4 11.7673C159.594 11.6267 159.691 11.4303 159.691 11.178C159.691 11.0291 159.644 10.9092 159.548 10.8182C159.457 10.7231 159.335 10.6487 159.182 10.5949C159.034 10.5412 158.833 10.4853 158.581 10.4274C158.242 10.353 157.962 10.2724 157.743 10.1855C157.524 10.0987 157.346 9.97461 157.21 9.81333C157.073 9.64791 157.005 9.43287 157.005 9.16821C157.005 8.91595 157.071 8.69471 157.204 8.50448C157.336 8.31012 157.522 8.15918 157.762 8.05166C158.006 7.94414 158.289 7.89038 158.612 7.89038C158.918 7.89038 159.203 7.93794 159.468 8.03305C159.732 8.12816 159.956 8.2667 160.138 8.44866L159.939 8.83945C159.732 8.66163 159.522 8.53136 159.306 8.44866C159.096 8.36595 158.864 8.32459 158.612 8.32459C158.269 8.32459 158 8.39903 157.805 8.5479C157.611 8.69264 157.514 8.89321 157.514 9.1496C157.514 9.37291 157.599 9.54039 157.768 9.65205C157.938 9.7637 158.198 9.86089 158.55 9.94359C158.93 10.0346 159.228 10.1193 159.443 10.1979C159.662 10.2724 159.844 10.3881 159.989 10.5453C160.134 10.6983 160.206 10.903 160.206 11.1594C160.206 11.4075 160.14 11.6267 160.007 11.8169C159.875 12.003 159.685 12.1477 159.437 12.2511C159.193 12.3545 158.905 12.4062 158.575 12.4062Z" fill="#C4C4C4"/>
<path d="M156.368 13.9073H160.762" stroke="white"/>
<path d="M0 29.9318L172.135 29.9318" stroke="#90A0B7"/>
<path d="M6.20312 18.0427H9.30465" stroke="#90A0B7"/>
<path d="M6.20312 25.7965H9.30465" stroke="#90A0B7"/>
<path d="M7.75391 18.0427V25.7965" stroke="#90A0B7"/>
<path d="M2.59315 4.6771C2.15066 4.6771 1.74953 4.58199 1.38975 4.39176C1.03411 4.1974 0.752906 3.93067 0.546137 3.59157C0.343504 3.24833 0.242188 2.86168 0.242188 2.4316C0.242188 2.00152 0.343504 1.61693 0.546137 1.27783C0.752906 0.934594 1.03411 0.667863 1.38975 0.477636C1.74953 0.283273 2.15273 0.186092 2.59935 0.186092C2.97567 0.186092 3.31477 0.252258 3.61665 0.38459C3.92267 0.516922 4.17906 0.707149 4.38583 0.955271L3.74071 1.55076C3.4471 1.21166 3.08319 1.04211 2.64897 1.04211C2.38017 1.04211 2.14032 1.10208 1.92942 1.222C1.71852 1.33779 1.5531 1.50114 1.43317 1.71204C1.31738 1.92295 1.25949 2.1628 1.25949 2.4316C1.25949 2.7004 1.31738 2.94025 1.43317 3.15115C1.5531 3.36206 1.71852 3.52747 1.92942 3.6474C2.14032 3.76319 2.38017 3.82108 2.64897 3.82108C3.08319 3.82108 3.4471 3.64947 3.74071 3.30623L4.38583 3.90172C4.17906 4.15398 3.92267 4.34628 3.61665 4.47861C3.31063 4.61094 2.96947 4.6771 2.59315 4.6771Z" fill="#334D6E"/>
<path d="M8.27345 1.26542V4.60267H7.3554V4.20567C7.2272 4.35041 7.07419 4.46207 6.89637 4.54064C6.71855 4.61507 6.52626 4.65229 6.31949 4.65229C5.88114 4.65229 5.53377 4.52616 5.27737 4.27391C5.02098 4.02165 4.89278 3.6474 4.89278 3.15115V1.26542H5.86046V3.00848C5.86046 3.54608 6.08584 3.81488 6.53659 3.81488C6.76817 3.81488 6.95427 3.74044 7.09487 3.59157C7.23547 3.43856 7.30577 3.21318 7.30577 2.91544V1.26542H8.27345Z" fill="#334D6E"/>
<path d="M10.516 1.2158C11.0329 1.2158 11.4299 1.33986 11.707 1.58798C11.9841 1.83197 12.1226 2.20209 12.1226 2.69833V4.60267H11.2169V4.18706C11.035 4.49722 10.6959 4.65229 10.1996 4.65229C9.94325 4.65229 9.71994 4.60887 9.52971 4.52203C9.34362 4.43519 9.20095 4.31526 9.1017 4.16225C9.00245 4.00924 8.95283 3.83556 8.95283 3.64119C8.95283 3.33104 9.06862 3.08705 9.3002 2.90923C9.53592 2.73141 9.89776 2.6425 10.3857 2.6425H11.1549C11.1549 2.4316 11.0908 2.27032 10.9626 2.15866C10.8344 2.04287 10.6421 1.98498 10.3857 1.98498C10.2079 1.98498 10.0322 2.01393 9.85848 2.07182C9.68893 2.12558 9.54419 2.20002 9.42426 2.29513L9.07689 1.619C9.25885 1.4908 9.47595 1.39155 9.72821 1.32125C9.9846 1.25095 10.2472 1.2158 10.516 1.2158ZM10.4416 4.00097C10.607 4.00097 10.7538 3.96375 10.882 3.88932C11.0102 3.81075 11.1012 3.69702 11.1549 3.54815V3.20698H10.4912C10.0942 3.20698 9.89569 3.33724 9.89569 3.59777C9.89569 3.72183 9.94325 3.82108 10.0384 3.89552C10.1376 3.96582 10.272 4.00097 10.4416 4.00097Z" fill="#334D6E"/>
<path d="M16.434 0V4.60267H15.5098V4.21808C15.2699 4.50756 14.9225 4.65229 14.4676 4.65229C14.1533 4.65229 13.868 4.58199 13.6116 4.44139C13.3594 4.30079 13.1609 4.10022 13.0161 3.83969C12.8714 3.57916 12.799 3.27728 12.799 2.93405C12.799 2.59081 12.8714 2.28893 13.0161 2.0284C13.1609 1.76787 13.3594 1.56731 13.6116 1.4267C13.868 1.2861 14.1533 1.2158 14.4676 1.2158C14.8936 1.2158 15.2265 1.3502 15.4663 1.619V0H16.434ZM14.6351 3.8583C14.8791 3.8583 15.0817 3.77559 15.243 3.61018C15.4043 3.44063 15.4849 3.21525 15.4849 2.93405C15.4849 2.65284 15.4043 2.42953 15.243 2.26412C15.0817 2.09457 14.8791 2.00979 14.6351 2.00979C14.387 2.00979 14.1823 2.09457 14.021 2.26412C13.8597 2.42953 13.7791 2.65284 13.7791 2.93405C13.7791 3.21525 13.8597 3.44063 14.021 3.61018C14.1823 3.77559 14.387 3.8583 14.6351 3.8583Z" fill="#334D6E"/>
<path d="M18.2539 1.70584C18.3697 1.54456 18.5247 1.42257 18.7191 1.33986C18.9176 1.25715 19.1451 1.2158 19.4014 1.2158V2.10904C19.2939 2.10077 19.2216 2.09663 19.1843 2.09663C18.9073 2.09663 18.6902 2.17521 18.533 2.33235C18.3759 2.48536 18.2973 2.71694 18.2973 3.02709V4.60267H17.3296V1.26542H18.2539V1.70584Z" fill="#334D6E"/>
<path d="M21.5345 4.65229C21.183 4.65229 20.8667 4.57992 20.5855 4.43519C20.3084 4.28631 20.0913 4.08161 19.9341 3.82108C19.777 3.56055 19.6984 3.26488 19.6984 2.93405C19.6984 2.60322 19.777 2.30754 19.9341 2.04701C20.0913 1.78648 20.3084 1.58385 20.5855 1.43911C20.8667 1.29024 21.183 1.2158 21.5345 1.2158C21.886 1.2158 22.2003 1.29024 22.4774 1.43911C22.7545 1.58385 22.9716 1.78648 23.1287 2.04701C23.2859 2.30754 23.3644 2.60322 23.3644 2.93405C23.3644 3.26488 23.2859 3.56055 23.1287 3.82108C22.9716 4.08161 22.7545 4.28631 22.4774 4.43519C22.2003 4.57992 21.886 4.65229 21.5345 4.65229ZM21.5345 3.8583C21.7826 3.8583 21.9853 3.77559 22.1424 3.61018C22.3037 3.44063 22.3843 3.21525 22.3843 2.93405C22.3843 2.65284 22.3037 2.42953 22.1424 2.26412C21.9853 2.09457 21.7826 2.00979 21.5345 2.00979C21.2864 2.00979 21.0817 2.09457 20.9204 2.26412C20.7591 2.42953 20.6785 2.65284 20.6785 2.93405C20.6785 3.21525 20.7591 3.44063 20.9204 3.61018C21.0817 3.77559 21.2864 3.8583 21.5345 3.8583Z" fill="#334D6E"/>
<path d="M27.4242 4.6771C27.0644 4.6771 26.7439 4.58819 26.4627 4.41037C26.1815 4.23255 25.9603 3.97616 25.799 3.64119C25.6418 3.30209 25.5633 2.8989 25.5633 2.4316C25.5633 1.9643 25.6418 1.56317 25.799 1.22821C25.9603 0.889105 26.1815 0.630644 26.4627 0.452823C26.7439 0.275002 27.0644 0.186092 27.4242 0.186092C27.784 0.186092 28.1044 0.275002 28.3856 0.452823C28.6669 0.630644 28.886 0.889105 29.0432 1.22821C29.2045 1.56317 29.2851 1.9643 29.2851 2.4316C29.2851 2.8989 29.2045 3.30209 29.0432 3.64119C28.886 3.97616 28.6669 4.23255 28.3856 4.41037C28.1044 4.58819 27.784 4.6771 27.4242 4.6771ZM27.4242 3.82729C27.6888 3.82729 27.8956 3.71356 28.0445 3.48612C28.1975 3.25867 28.274 2.90717 28.274 2.4316C28.274 1.95603 28.1975 1.60452 28.0445 1.37708C27.8956 1.14963 27.6888 1.03591 27.4242 1.03591C27.1636 1.03591 26.9569 1.14963 26.8039 1.37708C26.655 1.60452 26.5806 1.95603 26.5806 2.4316C26.5806 2.90717 26.655 3.25867 26.8039 3.48612C26.9569 3.71356 27.1636 3.82729 27.4242 3.82729Z" fill="#334D6E"/>
<path d="M31.4118 0.260528V4.60267H30.4069V1.06693H29.5385V0.260528H31.4118Z" fill="#334D6E"/>
<path d="M150.927 108.024C150.592 108.024 150.292 107.935 150.027 107.757C149.767 107.58 149.562 107.325 149.413 106.995C149.269 106.66 149.196 106.267 149.196 105.816C149.196 105.365 149.269 104.974 149.413 104.644C149.562 104.309 149.767 104.052 150.027 103.874C150.292 103.697 150.592 103.608 150.927 103.608C151.262 103.608 151.56 103.697 151.82 103.874C152.085 104.052 152.292 104.309 152.44 104.644C152.589 104.974 152.664 105.365 152.664 105.816C152.664 106.267 152.589 106.66 152.44 106.995C152.292 107.325 152.085 107.58 151.82 107.757C151.56 107.935 151.262 108.024 150.927 108.024ZM150.927 107.615C151.179 107.615 151.4 107.545 151.591 107.404C151.785 107.263 151.936 107.059 152.043 106.79C152.151 106.521 152.205 106.196 152.205 105.816C152.205 105.435 152.151 105.111 152.043 104.842C151.936 104.573 151.785 104.369 151.591 104.228C151.4 104.087 151.179 104.017 150.927 104.017C150.675 104.017 150.451 104.087 150.257 104.228C150.067 104.369 149.918 104.573 149.81 104.842C149.703 105.111 149.649 105.435 149.649 105.816C149.649 106.196 149.703 106.521 149.81 106.79C149.918 107.059 150.067 107.263 150.257 107.404C150.451 107.545 150.675 107.615 150.927 107.615Z" fill="#334D6E"/>
<path d="M154.752 102.764H155.155L153.108 108.607H152.705L154.752 102.764Z" fill="#334D6E"/>
<path d="M156.736 105.506C157.191 105.531 157.537 105.655 157.772 105.878C158.012 106.097 158.132 106.385 158.132 106.74C158.132 106.988 158.072 107.21 157.952 107.404C157.832 107.594 157.654 107.745 157.419 107.857C157.183 107.968 156.896 108.024 156.556 108.024C156.242 108.024 155.944 107.975 155.663 107.875C155.386 107.772 155.163 107.636 154.993 107.466L155.21 107.112C155.355 107.261 155.547 107.383 155.787 107.478C156.027 107.569 156.284 107.615 156.556 107.615C156.912 107.615 157.187 107.538 157.381 107.385C157.576 107.228 157.673 107.013 157.673 106.74C157.673 106.471 157.576 106.26 157.381 106.107C157.187 105.954 156.893 105.878 156.501 105.878H156.19V105.549L157.394 104.042H155.173V103.645H157.965V103.961L156.736 105.506Z" fill="#334D6E"/>
<path d="M160.492 108.024C160.157 108.024 159.857 107.935 159.593 107.757C159.332 107.58 159.127 107.325 158.978 106.995C158.834 106.66 158.761 106.267 158.761 105.816C158.761 105.365 158.834 104.974 158.978 104.644C159.127 104.309 159.332 104.052 159.593 103.874C159.857 103.697 160.157 103.608 160.492 103.608C160.827 103.608 161.125 103.697 161.385 103.874C161.65 104.052 161.857 104.309 162.006 104.644C162.154 104.974 162.229 105.365 162.229 105.816C162.229 106.267 162.154 106.66 162.006 106.995C161.857 107.325 161.65 107.58 161.385 107.757C161.125 107.935 160.827 108.024 160.492 108.024ZM160.492 107.615C160.744 107.615 160.966 107.545 161.156 107.404C161.35 107.263 161.501 107.059 161.609 106.79C161.716 106.521 161.77 106.196 161.77 105.816C161.77 105.435 161.716 105.111 161.609 104.842C161.501 104.573 161.35 104.369 161.156 104.228C160.966 104.087 160.744 104.017 160.492 104.017C160.24 104.017 160.016 104.087 159.822 104.228C159.632 104.369 159.483 104.573 159.375 104.842C159.268 105.111 159.214 105.435 159.214 105.816C159.214 106.196 159.268 106.521 159.375 106.79C159.483 107.059 159.632 107.263 159.822 107.404C160.016 107.545 160.24 107.615 160.492 107.615Z" fill="#334D6E"/>
<path d="M164.599 108.024C164.264 108.024 163.964 107.935 163.7 107.757C163.439 107.58 163.234 107.325 163.086 106.995C162.941 106.66 162.868 106.267 162.868 105.816C162.868 105.365 162.941 104.974 163.086 104.644C163.234 104.309 163.439 104.052 163.7 103.874C163.964 103.697 164.264 103.608 164.599 103.608C164.934 103.608 165.232 103.697 165.492 103.874C165.757 104.052 165.964 104.309 166.113 104.644C166.262 104.974 166.336 105.365 166.336 105.816C166.336 106.267 166.262 106.66 166.113 106.995C165.964 107.325 165.757 107.58 165.492 107.757C165.232 107.935 164.934 108.024 164.599 108.024ZM164.599 107.615C164.851 107.615 165.073 107.545 165.263 107.404C165.457 107.263 165.608 107.059 165.716 106.79C165.823 106.521 165.877 106.196 165.877 105.816C165.877 105.435 165.823 105.111 165.716 104.842C165.608 104.573 165.457 104.369 165.263 104.228C165.073 104.087 164.851 104.017 164.599 104.017C164.347 104.017 164.124 104.087 163.929 104.228C163.739 104.369 163.59 104.573 163.483 104.842C163.375 105.111 163.321 105.435 163.321 105.816C163.321 106.196 163.375 106.521 163.483 106.79C163.59 107.059 163.739 107.263 163.929 107.404C164.124 107.545 164.347 107.615 164.599 107.615Z" fill="#334D6E"/>
<defs>
<filter id="filter0_d" x="129.883" y="3.56885" width="40.0491" height="21.44" filterUnits="userSpaceOnUse" color-interpolation-filters="sRGB">
<feFlood flood-opacity="0" result="BackgroundImageFix"/>
<feColorMatrix in="SourceAlpha" type="matrix" values="0 0 0 0 0 0 0 0 0 0 0 0 0 0 0 0 0 0 127 0"/>
<feOffset dy="4"/>
<feGaussianBlur stdDeviation="2"/>
<feColorMatrix type="matrix" values="0 0 0 0 0 0 0 0 0 0 0 0 0 0 0 0 0 0 0.25 0"/>
<feBlend mode="normal" in2="BackgroundImageFix" result="effect1_dropShadow"/>
<feBlend mode="normal" in="SourceGraphic" in2="effect1_dropShadow" result="shape"/>
</filter>
</defs>
</svg>
