<svg width="267" height="153" viewBox="0 0 267 153" fill="none" xmlns="http://www.w3.org/2000/svg">
<g filter="url(#filter0_d)">
<path d="M5 5C5 2.23858 7.23858 0 10 0H257C259.761 0 262 2.23858 262 5V138C262 140.761 259.761 143 257 143H10C7.23858 143 5 140.761 5 138V5Z" fill="white"/>
<path d="M10 0.5H257C259.485 0.5 261.5 2.51472 261.5 5V138C261.5 140.485 259.485 142.5 257 142.5H10C7.51472 142.5 5.5 140.485 5.5 138V5C5.5 2.51472 7.51472 0.5 10 0.5Z" stroke="#5570FF" stroke-opacity="0.87"/>
</g>
<rect x="26.877" y="30.0986" width="56.1157" height="14.0289" rx="7.01447" fill="#90A0B7"/>
<rect opacity="0.78" x="59.8418" y="98.8405" width="55.4143" height="14.0289" rx="7.01447" fill="#90A0B7"/>
<rect x="178.107" y="38.9298" width="61.3766" height="14.0289" rx="7.01447" fill="#90A0B7"/>
<path d="M117.01 64.4697C116.66 55.234 109.365 36.8327 82.9902 37.1133" stroke="#90A0B7" stroke-width="2"/>
<path d="M177.557 68.1827C183.628 68.1827 200.186 73.7022 200.738 52.7283" stroke="#90A0B7" stroke-width="2"/>
<path d="M133.763 76.0431C136.323 84.0647 136.207 101.257 115.258 105.855" stroke="#90A0B7" stroke-width="2"/>
<rect x="108.246" y="61.313" width="69.7939" height="15.0811" rx="7.54055" fill="#7594C1"/>
<rect x="125.08" y="90.7736" width="17.8869" height="5.61157" fill="white"/>
<rect x="102.279" y="47.9855" width="17.8869" height="5.61157" fill="white"/>
<path d="M126.131 91.4752H127.944C128.394 91.4752 128.744 91.5843 128.995 91.8026C129.245 92.0169 129.37 92.3111 129.37 92.6852C129.37 93.0593 129.243 93.3555 128.989 93.5737C128.738 93.7919 128.39 93.9011 127.944 93.9011H126.888V95.6371H126.131V91.4752ZM127.856 93.3165C128.118 93.3165 128.316 93.2639 128.449 93.1587C128.586 93.0496 128.654 92.8937 128.654 92.6911C128.654 92.4845 128.588 92.3286 128.455 92.2234C128.322 92.1143 128.122 92.0598 127.856 92.0598H126.888V93.3165H127.856Z" fill="#334D6E"/>
<path d="M131.28 95.6839C130.979 95.6839 130.713 95.6215 130.482 95.4968C130.255 95.3721 130.079 95.1948 129.954 94.9649C129.832 94.7311 129.772 94.4583 129.772 94.1466C129.772 93.8348 129.832 93.564 129.954 93.3341C130.079 93.1002 130.255 92.921 130.482 92.7963C130.713 92.6716 130.979 92.6092 131.28 92.6092C131.577 92.6092 131.839 92.6716 132.066 92.7963C132.293 92.921 132.467 93.1002 132.589 93.3341C132.714 93.564 132.776 93.8348 132.776 94.1466C132.776 94.4583 132.714 94.7311 132.589 94.9649C132.467 95.1948 132.293 95.3721 132.066 95.4968C131.839 95.6215 131.577 95.6839 131.28 95.6839ZM131.274 95.1111C131.524 95.1111 131.714 95.0312 131.843 94.8714C131.976 94.7077 132.043 94.4661 132.043 94.1466C132.043 93.8309 131.976 93.5913 131.843 93.4276C131.71 93.26 131.523 93.1762 131.28 93.1762C131.034 93.1762 130.844 93.26 130.711 93.4276C130.578 93.5913 130.511 93.8309 130.511 94.1466C130.511 94.4661 130.576 94.7077 130.705 94.8714C130.838 95.0312 131.028 95.1111 131.274 95.1111Z" fill="#334D6E"/>
<path d="M134.553 95.6839C134.017 95.6839 133.591 95.5592 133.274 95.3098L133.479 94.7954C133.796 95.0292 134.158 95.1461 134.565 95.1461C134.741 95.1461 134.876 95.1169 134.97 95.0584C135.068 95 135.117 94.9182 135.117 94.8129C135.117 94.7233 135.083 94.6532 135.017 94.6025C134.95 94.5479 134.837 94.5012 134.676 94.4622L134.184 94.3512C133.644 94.2342 133.374 93.9595 133.374 93.527C133.374 93.3477 133.425 93.1899 133.526 93.0535C133.628 92.9132 133.771 92.8041 133.955 92.7261C134.139 92.6482 134.352 92.6092 134.594 92.6092C134.806 92.6092 135.009 92.6423 135.205 92.7086C135.4 92.7709 135.572 92.8625 135.721 92.9833L135.504 93.4802C135.207 93.262 134.901 93.1528 134.588 93.1528C134.42 93.1528 134.289 93.184 134.195 93.2464C134.101 93.3087 134.054 93.3945 134.054 93.5036C134.054 93.5893 134.082 93.6575 134.137 93.7082C134.195 93.7588 134.293 93.8017 134.43 93.8368L134.935 93.9478C135.228 94.0141 135.441 94.1173 135.574 94.2576C135.711 94.394 135.78 94.5733 135.78 94.7954C135.78 95.0682 135.67 95.2845 135.451 95.4442C135.232 95.604 134.933 95.6839 134.553 95.6839Z" fill="#334D6E"/>
<path d="M139.06 94.1992H137.018C137.033 94.5148 137.112 94.7486 137.252 94.9006C137.397 95.0487 137.61 95.1227 137.892 95.1227C138.217 95.1227 138.518 95.0175 138.796 94.8071L139.007 95.3098C138.866 95.4228 138.692 95.5144 138.485 95.5845C138.281 95.6508 138.074 95.6839 137.863 95.6839C137.378 95.6839 136.996 95.5475 136.718 95.2747C136.441 95.0019 136.302 94.6278 136.302 94.1524C136.302 93.8523 136.362 93.5854 136.484 93.3516C136.605 93.1178 136.775 92.9366 136.994 92.808C137.213 92.6755 137.462 92.6092 137.74 92.6092C138.146 92.6092 138.467 92.7417 138.702 93.0067C138.941 93.2678 139.06 93.6283 139.06 94.0881V94.1992ZM137.757 93.1353C137.562 93.1353 137.401 93.1938 137.276 93.3107C137.155 93.4237 137.076 93.5893 137.041 93.8075H138.42C138.397 93.5854 138.328 93.4178 138.215 93.3048C138.105 93.1918 137.953 93.1353 137.757 93.1353Z" fill="#334D6E"/>
<path d="M142.333 94.1992H140.291C140.307 94.5148 140.385 94.7486 140.526 94.9006C140.671 95.0487 140.884 95.1227 141.166 95.1227C141.49 95.1227 141.792 95.0175 142.069 94.8071L142.281 95.3098C142.14 95.4228 141.966 95.5144 141.758 95.5845C141.555 95.6508 141.348 95.6839 141.136 95.6839C140.651 95.6839 140.27 95.5475 139.992 95.2747C139.714 95.0019 139.575 94.6278 139.575 94.1524C139.575 93.8523 139.636 93.5854 139.757 93.3516C139.879 93.1178 140.049 92.9366 140.268 92.808C140.487 92.6755 140.735 92.6092 141.013 92.6092C141.42 92.6092 141.741 92.7417 141.976 93.0067C142.214 93.2678 142.333 93.6283 142.333 94.0881V94.1992ZM141.031 93.1353C140.835 93.1353 140.675 93.1938 140.55 93.3107C140.428 93.4237 140.35 93.5893 140.315 93.8075H141.694C141.67 93.5854 141.602 93.4178 141.488 93.3048C141.379 93.1918 141.226 93.1353 141.031 93.1353Z" fill="#334D6E"/>
<path d="M144.709 92.6092C145.417 92.6092 145.771 93.0145 145.771 93.8251V95.6371H145.038V93.8601C145.038 93.6263 144.993 93.4568 144.903 93.3516C144.813 93.2425 144.674 93.1879 144.486 93.1879C144.263 93.1879 144.083 93.26 143.946 93.4042C143.809 93.5445 143.741 93.7315 143.741 93.9654V95.6371H143.013V93.5211C143.013 93.2094 142.998 92.9307 142.966 92.6852H143.653L143.706 93.1704C143.807 92.9911 143.944 92.8528 144.117 92.7554C144.293 92.6579 144.49 92.6092 144.709 92.6092Z" fill="#334D6E"/>
<path d="M110.227 52.8954C109.902 52.8954 109.597 52.8532 109.311 52.7686C109.03 52.6841 108.79 52.563 108.592 52.4054L108.853 51.8635C109.06 52.0134 109.274 52.1248 109.496 52.1978C109.722 52.267 109.967 52.3016 110.233 52.3016C110.526 52.3016 110.752 52.2517 110.911 52.1517C111.074 52.0518 111.155 51.9115 111.155 51.7309C111.155 51.5771 111.08 51.4599 110.929 51.3792C110.782 51.2946 110.538 51.2158 110.197 51.1428C109.666 51.0313 109.28 50.8872 109.038 50.7104C108.796 50.5336 108.675 50.2761 108.675 49.9378C108.675 49.6957 108.742 49.4805 108.877 49.2921C109.012 49.1038 109.202 48.9558 109.448 48.8482C109.698 48.7406 109.985 48.6868 110.31 48.6868C110.608 48.6868 110.889 48.731 111.155 48.8194C111.424 48.9039 111.645 49.0231 111.815 49.1768L111.559 49.7188C111.183 49.4266 110.766 49.2806 110.31 49.2806C110.037 49.2806 109.821 49.3363 109.662 49.4478C109.504 49.5554 109.424 49.7034 109.424 49.8917C109.424 50.0531 109.494 50.1761 109.632 50.2607C109.775 50.3453 110.017 50.424 110.358 50.4971C110.711 50.5778 110.998 50.6662 111.22 50.7623C111.442 50.8545 111.613 50.9756 111.732 51.1255C111.851 51.2716 111.91 51.456 111.91 51.679C111.91 51.925 111.843 52.1402 111.708 52.3247C111.573 52.5053 111.379 52.6456 111.125 52.7455C110.871 52.8455 110.572 52.8954 110.227 52.8954Z" fill="#334D6E"/>
<path d="M115.256 51.4253H113.186C113.202 51.7366 113.281 51.9672 113.424 52.1171C113.571 52.2632 113.787 52.3362 114.072 52.3362C114.401 52.3362 114.706 52.2324 114.988 52.0249L115.202 52.5207C115.059 52.6322 114.883 52.7225 114.673 52.7917C114.467 52.857 114.256 52.8897 114.042 52.8897C113.551 52.8897 113.164 52.7552 112.883 52.4861C112.601 52.2171 112.461 51.8481 112.461 51.3792C112.461 51.0832 112.522 50.8199 112.645 50.5893C112.768 50.3587 112.94 50.18 113.162 50.0531C113.384 49.9225 113.636 49.8571 113.918 49.8571C114.33 49.8571 114.655 49.9878 114.893 50.2492C115.135 50.5067 115.256 50.8622 115.256 51.3158V51.4253ZM113.935 50.376C113.737 50.376 113.575 50.4337 113.448 50.549C113.325 50.6604 113.246 50.8238 113.21 51.039H114.607C114.584 50.8199 114.514 50.6547 114.399 50.5432C114.288 50.4317 114.134 50.376 113.935 50.376Z" fill="#334D6E"/>
<circle cx="195.966" cy="65.6186" r="3.50723" fill="#6F9CD6"/>
<g clip-path="url(#clip0)">
<path d="M196.248 64.6813C196.044 64.5696 195.837 64.5336 195.608 64.5768C195.627 64.5546 195.641 64.537 195.656 64.5213C195.877 64.3002 196.096 64.077 196.32 63.8592C196.647 63.5417 197.031 63.4229 197.466 63.5892C198.062 63.8171 198.257 64.5502 197.877 65.0915C197.834 65.1532 197.784 65.2116 197.731 65.2652C197.466 65.5319 197.203 65.7998 196.933 66.0614C196.608 66.3762 196.227 66.4836 195.794 66.3249C195.677 66.2817 195.569 66.1991 195.472 66.1165C195.362 66.0223 195.365 65.8638 195.457 65.7594C195.553 65.651 195.714 65.6296 195.821 65.7334C196.045 65.95 196.367 65.8873 196.559 65.6929C196.825 65.4233 197.095 65.1572 197.363 64.8891C197.482 64.7704 197.559 64.63 197.545 64.4587C197.518 64.1399 197.215 63.9565 196.917 64.0816C196.832 64.1172 196.754 64.1778 196.686 64.2415C196.535 64.3837 196.392 64.5355 196.248 64.6813Z" fill="white"/>
<path d="M195.689 66.5559C195.893 66.67 196.1 66.7035 196.319 66.6626C196.327 66.6707 196.336 66.6791 196.344 66.6872C196.317 66.702 196.285 66.7115 196.264 66.7321C196.046 66.9473 195.832 67.1661 195.613 67.38C195.301 67.6846 194.932 67.8049 194.511 67.664C193.886 67.4546 193.667 66.7005 194.059 66.1435C194.086 66.1049 194.114 66.0661 194.147 66.0327C194.453 65.7264 194.752 65.4129 195.068 65.1179C195.437 64.7728 196.003 64.7491 196.381 65.0443C196.414 65.0694 196.445 65.0967 196.472 65.1267C196.567 65.2295 196.568 65.3778 196.477 65.4792C196.385 65.5817 196.24 65.597 196.126 65.5163C195.815 65.2956 195.608 65.3136 195.335 65.586C195.082 65.8384 194.83 66.0905 194.577 66.3425C194.456 66.4635 194.376 66.6058 194.39 66.7804C194.417 67.0979 194.725 67.2819 195.02 67.1557C195.102 67.1207 195.178 67.0633 195.244 67.0017C195.395 66.859 195.538 66.7075 195.689 66.5559Z" fill="white"/>
</g>
<defs>
<filter id="filter0_d" x="0" y="0" width="267" height="153" filterUnits="userSpaceOnUse" color-interpolation-filters="sRGB">
<feFlood flood-opacity="0" result="BackgroundImageFix"/>
<feColorMatrix in="SourceAlpha" type="matrix" values="0 0 0 0 0 0 0 0 0 0 0 0 0 0 0 0 0 0 127 0"/>
<feOffset dy="5"/>
<feGaussianBlur stdDeviation="2.5"/>
<feColorMatrix type="matrix" values="0 0 0 0 0.333333 0 0 0 0 0.439216 0 0 0 0 1 0 0 0 0.56 0"/>
<feBlend mode="normal" in2="BackgroundImageFix" result="effect1_dropShadow"/>
<feBlend mode="normal" in="SourceGraphic" in2="effect1_dropShadow" result="shape"/>
</filter>
<clipPath id="clip0">
<rect width="4.20868" height="4.20868" fill="white" transform="translate(193.863 63.5142)"/>
</clipPath>
</defs>
</svg>
