<svg width="227" height="101" viewBox="0 0 227 101" fill="none" xmlns="http://www.w3.org/2000/svg">
<rect x="0.81543" y="48.8648" width="64.283" height="14.2851" rx="7.14256" fill="#7594C1"/>
<circle cx="143.667" cy="38.8654" r="2.85702" fill="#7594C1"/>
<path fill-rule="evenodd" clip-rule="evenodd" d="M143.667 37.437C143.667 37.437 143.667 37.5649 143.667 37.7227V40.0083C143.667 40.1661 143.667 40.294 143.667 40.294C143.667 40.294 143.667 40.1661 143.667 40.0083V37.7227C143.667 37.5649 143.667 37.437 143.667 37.437Z" stroke="white" stroke-width="0.5" stroke-linecap="round" stroke-linejoin="round"/>
<path fill-rule="evenodd" clip-rule="evenodd" d="M142.238 38.8655C142.238 38.8655 142.366 38.8655 142.524 38.8655H144.81C144.967 38.8655 145.095 38.8655 145.095 38.8655C145.095 38.8655 144.967 38.8655 144.81 38.8655H142.524C142.366 38.8655 142.238 38.8655 142.238 38.8655Z" stroke="white" stroke-width="0.5" stroke-linecap="round" stroke-linejoin="round"/>
<circle cx="143.667" cy="67.4353" r="2.85702" fill="#7594C1"/>
<path fill-rule="evenodd" clip-rule="evenodd" d="M143.667 66.0068C143.667 66.0068 143.667 66.1347 143.667 66.2925V68.5781C143.667 68.7359 143.667 68.8638 143.667 68.8638C143.667 68.8638 143.667 68.7359 143.667 68.5781V66.2925C143.667 66.1347 143.667 66.0068 143.667 66.0068Z" stroke="white" stroke-width="0.5" stroke-linecap="round" stroke-linejoin="round"/>
<path fill-rule="evenodd" clip-rule="evenodd" d="M142.238 67.4353C142.238 67.4353 142.366 67.4353 142.524 67.4353H144.81C144.967 67.4353 145.095 67.4353 145.095 67.4353C145.095 67.4353 144.967 67.4353 144.81 67.4353H142.524C142.366 67.4353 142.238 67.4353 142.238 67.4353Z" stroke="white" stroke-width="0.5" stroke-linecap="round" stroke-linejoin="round"/>
<circle cx="143.667" cy="97.4343" r="2.85702" fill="#7594C1"/>
<path fill-rule="evenodd" clip-rule="evenodd" d="M143.667 96.0058C143.667 96.0058 143.667 96.1337 143.667 96.2915V98.5771C143.667 98.7349 143.667 98.8628 143.667 98.8628C143.667 98.8628 143.667 98.7349 143.667 98.5771V96.2915C143.667 96.1337 143.667 96.0058 143.667 96.0058Z" stroke="white" stroke-width="0.5" stroke-linecap="round" stroke-linejoin="round"/>
<path fill-rule="evenodd" clip-rule="evenodd" d="M142.238 97.4343C142.238 97.4343 142.366 97.4343 142.524 97.4343H144.81C144.967 97.4343 145.095 97.4343 145.095 97.4343C145.095 97.4343 144.967 97.4343 144.81 97.4343H142.524C142.366 97.4343 142.238 97.4343 142.238 97.4343Z" stroke="white" stroke-width="0.5" stroke-linecap="round" stroke-linejoin="round"/>
<path d="M102.238 0.403449H102.851V3.6086H102.238V0.403449Z" fill="#334D6E"/>
<path d="M105.883 0.29541V3.6086H105.299V3.24397C105.226 3.37001 105.121 3.46905 104.985 3.54107C104.849 3.6101 104.694 3.64461 104.52 3.64461C104.314 3.64461 104.13 3.59509 103.968 3.49606C103.807 3.39702 103.68 3.25747 103.588 3.07741C103.5 2.89434 103.455 2.68577 103.455 2.45168C103.455 2.2176 103.5 2.01203 103.588 1.83496C103.677 1.6579 103.802 1.52135 103.964 1.42532C104.125 1.32628 104.311 1.27676 104.52 1.27676C104.691 1.27676 104.843 1.31127 104.976 1.3803C105.112 1.44632 105.216 1.54086 105.289 1.6639V0.29541H105.883ZM104.676 3.20345C104.873 3.20345 105.025 3.13893 105.132 3.00988C105.243 2.88084 105.299 2.69777 105.299 2.46069C105.299 2.2236 105.245 2.04054 105.137 1.91149C105.029 1.78244 104.877 1.71792 104.681 1.71792C104.482 1.71792 104.326 1.78244 104.216 1.91149C104.108 2.03753 104.054 2.2176 104.054 2.45168C104.054 2.68877 104.108 2.87333 104.216 3.00538C104.326 3.13743 104.48 3.20345 104.676 3.20345Z" fill="#334D6E"/>
<path d="M108.677 2.5012H107.024C107.036 2.74429 107.1 2.92435 107.214 3.04139C107.331 3.15544 107.504 3.21246 107.732 3.21246C107.995 3.21246 108.238 3.13143 108.463 2.96937L108.634 3.35651C108.52 3.44354 108.379 3.51406 108.211 3.56808C108.047 3.6191 107.879 3.64461 107.708 3.64461C107.315 3.64461 107.006 3.53957 106.782 3.3295C106.557 3.11942 106.444 2.83132 106.444 2.46519C106.444 2.23411 106.493 2.02853 106.591 1.84847C106.69 1.6684 106.827 1.52885 107.005 1.42982C107.182 1.32778 107.383 1.27676 107.608 1.27676C107.938 1.27676 108.197 1.3788 108.387 1.58287C108.58 1.78394 108.677 2.06154 108.677 2.41567V2.5012ZM107.622 1.68191C107.464 1.68191 107.334 1.72692 107.233 1.81696C107.135 1.90399 107.071 2.03153 107.043 2.19959H108.159C108.14 2.02853 108.085 1.89949 107.993 1.81245C107.904 1.72542 107.781 1.68191 107.622 1.68191Z" fill="#334D6E"/>
<path d="M111.522 1.33528V3.6086H110.938V3.24397C110.865 3.37001 110.76 3.46905 110.624 3.54107C110.488 3.6101 110.333 3.64461 110.159 3.64461C109.949 3.64461 109.764 3.59659 109.603 3.50056C109.441 3.40452 109.316 3.26798 109.227 3.09091C109.139 2.91385 109.094 2.70827 109.094 2.47419C109.094 2.24011 109.139 2.03303 109.227 1.85297C109.319 1.6699 109.446 1.52885 109.607 1.42982C109.769 1.32778 109.953 1.27676 110.159 1.27676C110.333 1.27676 110.488 1.31277 110.624 1.3848C110.76 1.45383 110.865 1.55136 110.938 1.67741V1.33528H111.522ZM110.32 3.20345C110.516 3.20345 110.668 3.13893 110.776 3.00988C110.884 2.88084 110.938 2.69927 110.938 2.46519C110.938 2.2251 110.884 2.04054 110.776 1.91149C110.668 1.78244 110.515 1.71792 110.315 1.71792C110.119 1.71792 109.965 1.78544 109.854 1.92049C109.747 2.05254 109.693 2.23711 109.693 2.47419C109.693 2.70827 109.747 2.88834 109.854 3.01438C109.965 3.14043 110.121 3.20345 110.32 3.20345Z" fill="#334D6E"/>
<path d="M113.095 3.64461C112.661 3.64461 112.316 3.54858 112.059 3.35651L112.226 2.96037C112.482 3.14043 112.775 3.23046 113.105 3.23046C113.247 3.23046 113.356 3.20795 113.432 3.16294C113.512 3.11792 113.551 3.0549 113.551 2.97387C113.551 2.90485 113.524 2.85083 113.47 2.81181C113.417 2.7698 113.325 2.73378 113.195 2.70377L112.796 2.61824C112.359 2.52821 112.14 2.31663 112.14 1.98352C112.14 1.84547 112.181 1.72392 112.264 1.61888C112.346 1.51085 112.462 1.42682 112.611 1.36679C112.759 1.30677 112.932 1.27676 113.128 1.27676C113.299 1.27676 113.464 1.30227 113.622 1.35329C113.781 1.40131 113.92 1.47183 114.04 1.56487L113.865 1.9475C113.624 1.77944 113.377 1.69541 113.124 1.69541C112.987 1.69541 112.881 1.71942 112.805 1.76744C112.729 1.81546 112.691 1.88148 112.691 1.96551C112.691 2.03153 112.713 2.08405 112.758 2.12307C112.805 2.16208 112.884 2.19509 112.995 2.2221L113.404 2.30763C113.641 2.35865 113.814 2.43818 113.922 2.54622C114.033 2.65125 114.088 2.7893 114.088 2.96037C114.088 3.17044 113.999 3.337 113.822 3.46004C113.645 3.58309 113.402 3.64461 113.095 3.64461Z" fill="#334D6E"/>
<path d="M116.038 0.403449H117.506C117.87 0.403449 118.153 0.487479 118.356 0.655539C118.559 0.820599 118.66 1.04718 118.66 1.33528C118.66 1.62339 118.557 1.85147 118.351 2.01953C118.148 2.18759 117.867 2.27162 117.506 2.27162H116.65V3.6086H116.038V0.403449ZM117.434 1.82146C117.646 1.82146 117.806 1.78094 117.914 1.69991C118.025 1.61588 118.08 1.49584 118.08 1.33978C118.08 1.18073 118.027 1.06068 117.919 0.979655C117.811 0.895625 117.65 0.85361 117.434 0.85361H116.65V1.82146H117.434Z" fill="#334D6E"/>
<path d="M120.452 1.28126C120.544 1.28126 120.623 1.29327 120.69 1.31728L120.685 1.83046C120.584 1.79145 120.479 1.77194 120.371 1.77194C120.169 1.77194 120.013 1.82746 119.906 1.9385C119.801 2.04954 119.749 2.19659 119.749 2.37966V3.6086H119.16V1.97901C119.16 1.73893 119.147 1.52435 119.122 1.33528H119.678L119.725 1.73593C119.785 1.58887 119.88 1.47633 120.01 1.39831C120.14 1.32028 120.287 1.28126 120.452 1.28126Z" fill="#334D6E"/>
<path d="M121.068 1.33528H121.657V3.6086H121.068V1.33528ZM121.69 0.304414V0.858112H121.03V0.304414H121.69Z" fill="#334D6E"/>
<path d="M123.727 1.27676C124.3 1.27676 124.587 1.58887 124.587 2.2131V3.6086H123.993V2.24011C123.993 2.06004 123.957 1.9295 123.884 1.84847C123.811 1.76444 123.698 1.72242 123.546 1.72242C123.366 1.72242 123.22 1.77794 123.109 1.88898C122.998 1.99702 122.943 2.14107 122.943 2.32114V3.6086H122.354V1.97901C122.354 1.73893 122.341 1.52435 122.316 1.33528H122.872L122.915 1.70892C122.997 1.57087 123.108 1.46433 123.247 1.3893C123.39 1.31428 123.55 1.27676 123.727 1.27676Z" fill="#334D6E"/>
<path d="M126.352 3.64461C126.102 3.64461 125.885 3.59659 125.701 3.50056C125.517 3.40452 125.376 3.26948 125.278 3.09541C125.18 2.91835 125.131 2.71128 125.131 2.47419C125.131 2.23711 125.182 2.02853 125.283 1.84847C125.387 1.6684 125.533 1.52885 125.72 1.42982C125.91 1.32778 126.129 1.27676 126.376 1.27676C126.547 1.27676 126.711 1.30227 126.87 1.35329C127.031 1.40431 127.159 1.47483 127.254 1.56487L127.088 1.96101C126.987 1.88298 126.879 1.82446 126.765 1.78544C126.651 1.74343 126.539 1.72242 126.428 1.72242C126.212 1.72242 126.045 1.78694 125.924 1.91599C125.804 2.04204 125.744 2.2251 125.744 2.46519C125.744 2.70527 125.802 2.88834 125.92 3.01438C126.04 3.14043 126.209 3.20345 126.428 3.20345C126.539 3.20345 126.651 3.18244 126.765 3.14043C126.879 3.09841 126.987 3.03839 127.088 2.96037L127.254 3.35651C127.153 3.44654 127.022 3.51706 126.86 3.56808C126.699 3.6191 126.529 3.64461 126.352 3.64461Z" fill="#334D6E"/>
<path d="M127.701 1.33528H128.29V3.6086H127.701V1.33528ZM128.323 0.304414V0.858112H127.663V0.304414H128.323Z" fill="#334D6E"/>
<path d="M130.355 1.27676C130.561 1.27676 130.743 1.32778 130.901 1.42982C131.063 1.52885 131.188 1.6699 131.277 1.85297C131.369 2.03303 131.414 2.24011 131.414 2.47419C131.414 2.70827 131.37 2.91385 131.281 3.09091C131.193 3.26798 131.068 3.40452 130.906 3.50056C130.748 3.59659 130.564 3.64461 130.355 3.64461C130.181 3.64461 130.026 3.6101 129.889 3.54107C129.753 3.46905 129.649 3.37001 129.576 3.24397V4.58095H128.987V1.97901C128.987 1.73893 128.974 1.52435 128.949 1.33528H129.505L129.552 1.72692C129.616 1.58587 129.718 1.47633 129.861 1.39831C130.004 1.31728 130.168 1.27676 130.355 1.27676ZM130.194 3.20345C130.393 3.20345 130.547 3.14043 130.654 3.01438C130.762 2.88834 130.816 2.70827 130.816 2.47419C130.816 2.23711 130.762 2.05254 130.654 1.92049C130.547 1.78544 130.395 1.71792 130.198 1.71792C129.996 1.71792 129.84 1.78244 129.733 1.91149C129.625 2.04054 129.571 2.2251 129.571 2.46519C129.571 2.70227 129.625 2.88534 129.733 3.01438C129.84 3.14043 129.994 3.20345 130.194 3.20345Z" fill="#334D6E"/>
<path d="M134.275 1.33528V3.6086H133.691V3.24397C133.618 3.37001 133.513 3.46905 133.377 3.54107C133.241 3.6101 133.086 3.64461 132.911 3.64461C132.702 3.64461 132.517 3.59659 132.356 3.50056C132.194 3.40452 132.069 3.26798 131.98 3.09091C131.892 2.91385 131.847 2.70827 131.847 2.47419C131.847 2.24011 131.892 2.03303 131.98 1.85297C132.072 1.6699 132.199 1.52885 132.36 1.42982C132.522 1.32778 132.706 1.27676 132.911 1.27676C133.086 1.27676 133.241 1.31277 133.377 1.3848C133.513 1.45383 133.618 1.55136 133.691 1.67741V1.33528H134.275ZM133.073 3.20345C133.269 3.20345 133.421 3.13893 133.529 3.00988C133.637 2.88084 133.691 2.69927 133.691 2.46519C133.691 2.2251 133.637 2.04054 133.529 1.91149C133.421 1.78244 133.268 1.71792 133.068 1.71792C132.872 1.71792 132.718 1.78544 132.607 1.92049C132.5 2.05254 132.446 2.23711 132.446 2.47419C132.446 2.70827 132.5 2.88834 132.607 3.01438C132.718 3.14043 132.873 3.20345 133.073 3.20345Z" fill="#334D6E"/>
<path d="M134.969 0.29541H135.558V3.6086H134.969V0.29541Z" fill="#334D6E"/>
<path d="M138.355 2.5012H136.702C136.715 2.74429 136.778 2.92435 136.892 3.04139C137.009 3.15544 137.182 3.21246 137.41 3.21246C137.673 3.21246 137.916 3.13143 138.141 2.96937L138.312 3.35651C138.198 3.44354 138.057 3.51406 137.89 3.56808C137.725 3.6191 137.557 3.64461 137.386 3.64461C136.993 3.64461 136.684 3.53957 136.46 3.3295C136.235 3.11942 136.122 2.83132 136.122 2.46519C136.122 2.23411 136.171 2.02853 136.27 1.84847C136.368 1.6684 136.506 1.52885 136.683 1.42982C136.86 1.32778 137.061 1.27676 137.286 1.27676C137.616 1.27676 137.875 1.3788 138.065 1.58287C138.259 1.78394 138.355 2.06154 138.355 2.41567V2.5012ZM137.3 1.68191C137.142 1.68191 137.012 1.72692 136.911 1.81696C136.813 1.90399 136.749 2.03153 136.721 2.19959H137.837C137.818 2.02853 137.763 1.89949 137.671 1.81245C137.582 1.72542 137.459 1.68191 137.3 1.68191Z" fill="#334D6E"/>
<path d="M139.784 3.64461C139.35 3.64461 139.005 3.54858 138.749 3.35651L138.915 2.96037C139.172 3.14043 139.464 3.23046 139.794 3.23046C139.936 3.23046 140.046 3.20795 140.122 3.16294C140.201 3.11792 140.24 3.0549 140.24 2.97387C140.24 2.90485 140.213 2.85083 140.16 2.81181C140.106 2.7698 140.014 2.73378 139.884 2.70377L139.485 2.61824C139.048 2.52821 138.829 2.31663 138.829 1.98352C138.829 1.84547 138.871 1.72392 138.953 1.61888C139.035 1.51085 139.151 1.42682 139.3 1.36679C139.449 1.30677 139.621 1.27676 139.818 1.27676C139.989 1.27676 140.153 1.30227 140.312 1.35329C140.47 1.40131 140.609 1.47183 140.73 1.56487L140.554 1.9475C140.313 1.77944 140.066 1.69541 139.813 1.69541C139.677 1.69541 139.571 1.71942 139.495 1.76744C139.419 1.81546 139.381 1.88148 139.381 1.96551C139.381 2.03153 139.403 2.08405 139.447 2.12307C139.495 2.16208 139.574 2.19509 139.685 2.2221L140.093 2.30763C140.331 2.35865 140.503 2.43818 140.611 2.54622C140.722 2.65125 140.777 2.7893 140.777 2.96037C140.777 3.17044 140.689 3.337 140.511 3.46004C140.334 3.58309 140.092 3.64461 139.784 3.64461Z" fill="#334D6E"/>
<path d="M180.465 0.403449H181.078V3.6086H180.465V0.403449Z" fill="#334D6E"/>
<path d="M184.11 0.29541V3.6086H183.526V3.24397C183.453 3.37001 183.348 3.46905 183.212 3.54107C183.076 3.6101 182.921 3.64461 182.747 3.64461C182.541 3.64461 182.357 3.59509 182.196 3.49606C182.034 3.39702 181.907 3.25747 181.816 3.07741C181.727 2.89434 181.682 2.68577 181.682 2.45168C181.682 2.2176 181.727 2.01203 181.816 1.83496C181.904 1.6579 182.029 1.52135 182.191 1.42532C182.352 1.32628 182.538 1.27676 182.747 1.27676C182.918 1.27676 183.07 1.31127 183.203 1.3803C183.339 1.44632 183.443 1.54086 183.516 1.6639V0.29541H184.11ZM182.903 3.20345C183.1 3.20345 183.252 3.13893 183.359 3.00988C183.47 2.88084 183.526 2.69777 183.526 2.46069C183.526 2.2236 183.472 2.04054 183.364 1.91149C183.257 1.78244 183.105 1.71792 182.908 1.71792C182.709 1.71792 182.553 1.78244 182.443 1.91149C182.335 2.03753 182.281 2.2176 182.281 2.45168C182.281 2.68877 182.335 2.87333 182.443 3.00538C182.553 3.13743 182.707 3.20345 182.903 3.20345Z" fill="#334D6E"/>
<path d="M186.904 2.5012H185.251C185.264 2.74429 185.327 2.92435 185.441 3.04139C185.558 3.15544 185.731 3.21246 185.959 3.21246C186.222 3.21246 186.465 3.13143 186.69 2.96937L186.861 3.35651C186.747 3.44354 186.606 3.51406 186.439 3.56808C186.274 3.6191 186.106 3.64461 185.935 3.64461C185.542 3.64461 185.233 3.53957 185.009 3.3295C184.784 3.11942 184.671 2.83132 184.671 2.46519C184.671 2.23411 184.72 2.02853 184.819 1.84847C184.917 1.6684 185.055 1.52885 185.232 1.42982C185.409 1.32778 185.61 1.27676 185.835 1.27676C186.165 1.27676 186.424 1.3788 186.614 1.58287C186.808 1.78394 186.904 2.06154 186.904 2.41567V2.5012ZM185.849 1.68191C185.691 1.68191 185.561 1.72692 185.46 1.81696C185.362 1.90399 185.298 2.03153 185.27 2.19959H186.386C186.367 2.02853 186.312 1.89949 186.22 1.81245C186.131 1.72542 186.008 1.68191 185.849 1.68191Z" fill="#334D6E"/>
<path d="M189.749 1.33528V3.6086H189.165V3.24397C189.092 3.37001 188.987 3.46905 188.851 3.54107C188.715 3.6101 188.56 3.64461 188.386 3.64461C188.177 3.64461 187.991 3.59659 187.83 3.50056C187.668 3.40452 187.543 3.26798 187.454 3.09091C187.366 2.91385 187.321 2.70827 187.321 2.47419C187.321 2.24011 187.366 2.03303 187.454 1.85297C187.546 1.6699 187.673 1.52885 187.835 1.42982C187.996 1.32778 188.18 1.27676 188.386 1.27676C188.56 1.27676 188.715 1.31277 188.851 1.3848C188.987 1.45383 189.092 1.55136 189.165 1.67741V1.33528H189.749ZM188.547 3.20345C188.743 3.20345 188.896 3.13893 189.003 3.00988C189.111 2.88084 189.165 2.69927 189.165 2.46519C189.165 2.2251 189.111 2.04054 189.003 1.91149C188.896 1.78244 188.742 1.71792 188.542 1.71792C188.346 1.71792 188.192 1.78544 188.082 1.92049C187.974 2.05254 187.92 2.23711 187.92 2.47419C187.92 2.70827 187.974 2.88834 188.082 3.01438C188.192 3.14043 188.348 3.20345 188.547 3.20345Z" fill="#334D6E"/>
<path d="M191.322 3.64461C190.888 3.64461 190.543 3.54858 190.287 3.35651L190.453 2.96037C190.709 3.14043 191.002 3.23046 191.332 3.23046C191.474 3.23046 191.583 3.20795 191.659 3.16294C191.739 3.11792 191.778 3.0549 191.778 2.97387C191.778 2.90485 191.751 2.85083 191.697 2.81181C191.644 2.7698 191.552 2.73378 191.422 2.70377L191.023 2.61824C190.586 2.52821 190.367 2.31663 190.367 1.98352C190.367 1.84547 190.408 1.72392 190.491 1.61888C190.573 1.51085 190.689 1.42682 190.838 1.36679C190.986 1.30677 191.159 1.27676 191.355 1.27676C191.526 1.27676 191.691 1.30227 191.849 1.35329C192.008 1.40131 192.147 1.47183 192.268 1.56487L192.092 1.9475C191.851 1.77944 191.604 1.69541 191.351 1.69541C191.214 1.69541 191.108 1.71942 191.032 1.76744C190.956 1.81546 190.918 1.88148 190.918 1.96551C190.918 2.03153 190.941 2.08405 190.985 2.12307C191.032 2.16208 191.112 2.19509 191.222 2.2221L191.631 2.30763C191.868 2.35865 192.041 2.43818 192.149 2.54622C192.26 2.65125 192.315 2.7893 192.315 2.96037C192.315 3.17044 192.226 3.337 192.049 3.46004C191.872 3.58309 191.629 3.64461 191.322 3.64461Z" fill="#334D6E"/>
<path d="M195.41 3.64911C195.15 3.64911 194.906 3.6161 194.678 3.55008C194.453 3.48405 194.261 3.38952 194.103 3.26647L194.312 2.84332C194.477 2.96037 194.648 3.0474 194.825 3.10442C195.006 3.15844 195.202 3.18545 195.414 3.18545C195.649 3.18545 195.829 3.14643 195.956 3.0684C196.086 2.99038 196.151 2.88084 196.151 2.73979C196.151 2.61974 196.09 2.52821 195.97 2.46519C195.853 2.39916 195.658 2.33764 195.386 2.28062C194.961 2.19359 194.653 2.08105 194.459 1.943C194.266 1.80495 194.17 1.60388 194.17 1.33978C194.17 1.15072 194.223 0.982657 194.331 0.835604C194.439 0.688551 194.591 0.57301 194.787 0.48898C194.987 0.40495 195.216 0.362935 195.476 0.362935C195.714 0.362935 195.938 0.397447 196.151 0.466472C196.366 0.532495 196.542 0.625528 196.678 0.745572L196.474 1.16872C196.173 0.940641 195.84 0.826601 195.476 0.826601C195.258 0.826601 195.085 0.870116 194.958 0.957147C194.832 1.04118 194.768 1.15672 194.768 1.30377C194.768 1.42982 194.824 1.52585 194.935 1.59187C195.049 1.6579 195.242 1.71942 195.514 1.77644C195.796 1.83946 196.026 1.90849 196.203 1.98352C196.38 2.05554 196.516 2.15007 196.611 2.26712C196.706 2.38116 196.754 2.52521 196.754 2.69927C196.754 2.89134 196.7 3.0594 196.592 3.20345C196.485 3.3445 196.33 3.45404 196.127 3.53207C195.924 3.6101 195.685 3.64911 195.41 3.64911Z" fill="#334D6E"/>
<path d="M199.426 2.5012H197.773C197.786 2.74429 197.849 2.92435 197.963 3.04139C198.08 3.15544 198.253 3.21246 198.481 3.21246C198.744 3.21246 198.988 3.13143 199.213 2.96937L199.384 3.35651C199.27 3.44354 199.129 3.51406 198.961 3.56808C198.796 3.6191 198.628 3.64461 198.457 3.64461C198.065 3.64461 197.756 3.53957 197.531 3.3295C197.306 3.11942 197.194 2.83132 197.194 2.46519C197.194 2.23411 197.243 2.02853 197.341 1.84847C197.439 1.6684 197.577 1.52885 197.754 1.42982C197.932 1.32778 198.133 1.27676 198.358 1.27676C198.687 1.27676 198.947 1.3788 199.137 1.58287C199.33 1.78394 199.426 2.06154 199.426 2.41567V2.5012ZM198.372 1.68191C198.213 1.68191 198.084 1.72692 197.982 1.81696C197.884 1.90399 197.821 2.03153 197.792 2.19959H198.909C198.89 2.02853 198.834 1.89949 198.742 1.81245C198.654 1.72542 198.53 1.68191 198.372 1.68191Z" fill="#334D6E"/>
<path d="M201.065 3.64461C200.815 3.64461 200.598 3.59659 200.414 3.50056C200.23 3.40452 200.089 3.26948 199.991 3.09541C199.893 2.91835 199.844 2.71128 199.844 2.47419C199.844 2.23711 199.895 2.02853 199.996 1.84847C200.1 1.6684 200.246 1.52885 200.433 1.42982C200.623 1.32778 200.841 1.27676 201.089 1.27676C201.26 1.27676 201.424 1.30227 201.583 1.35329C201.744 1.40431 201.872 1.47483 201.967 1.56487L201.801 1.96101C201.7 1.88298 201.592 1.82446 201.478 1.78544C201.364 1.74343 201.252 1.72242 201.141 1.72242C200.925 1.72242 200.758 1.78694 200.637 1.91599C200.517 2.04204 200.457 2.2251 200.457 2.46519C200.457 2.70527 200.515 2.88834 200.632 3.01438C200.753 3.14043 200.922 3.20345 201.141 3.20345C201.252 3.20345 201.364 3.18244 201.478 3.14043C201.592 3.09841 201.7 3.03839 201.801 2.96037L201.967 3.35651C201.866 3.44654 201.735 3.51706 201.573 3.56808C201.412 3.6191 201.242 3.64461 201.065 3.64461Z" fill="#334D6E"/>
<path d="M204.599 1.33528V3.6086H204.019V3.25747C203.943 3.38352 203.842 3.47955 203.715 3.54558C203.589 3.6116 203.443 3.64461 203.278 3.64461C202.692 3.64461 202.399 3.3325 202.399 2.70828V1.33528H202.988V2.71278C202.988 2.87784 203.023 2.99938 203.093 3.07741C203.166 3.15544 203.277 3.19445 203.425 3.19445C203.6 3.19445 203.739 3.14043 203.844 3.03239C203.948 2.92435 204 2.7803 204 2.60024V1.33528H204.599Z" fill="#334D6E"/>
<path d="M206.664 1.27676C207.237 1.27676 207.524 1.58887 207.524 2.2131V3.6086H206.93V2.24011C206.93 2.06004 206.894 1.9295 206.821 1.84847C206.748 1.76444 206.635 1.72242 206.483 1.72242C206.303 1.72242 206.157 1.77794 206.046 1.88898C205.936 1.99702 205.88 2.14107 205.88 2.32114V3.6086H205.291V1.97901C205.291 1.73893 205.278 1.52435 205.253 1.33528H205.809L205.852 1.70892C205.934 1.57087 206.045 1.46433 206.184 1.3893C206.327 1.31428 206.487 1.27676 206.664 1.27676Z" fill="#334D6E"/>
<path d="M210.496 0.29541V3.6086H209.911V3.24397C209.838 3.37001 209.734 3.46905 209.598 3.54107C209.462 3.6101 209.306 3.64461 209.132 3.64461C208.926 3.64461 208.743 3.59509 208.581 3.49606C208.42 3.39702 208.293 3.25747 208.201 3.07741C208.112 2.89434 208.068 2.68577 208.068 2.45168C208.068 2.2176 208.112 2.01203 208.201 1.83496C208.29 1.6579 208.415 1.52135 208.576 1.42532C208.738 1.32628 208.923 1.27676 209.132 1.27676C209.303 1.27676 209.455 1.31127 209.588 1.3803C209.724 1.44632 209.829 1.54086 209.902 1.6639V0.29541H210.496ZM209.289 3.20345C209.485 3.20345 209.637 3.13893 209.745 3.00988C209.856 2.88084 209.911 2.69777 209.911 2.46069C209.911 2.2236 209.857 2.04054 209.75 1.91149C209.642 1.78244 209.49 1.71792 209.294 1.71792C209.094 1.71792 208.939 1.78244 208.828 1.91149C208.72 2.03753 208.667 2.2176 208.667 2.45168C208.667 2.68877 208.72 2.87333 208.828 3.00538C208.939 3.13743 209.093 3.20345 209.289 3.20345Z" fill="#334D6E"/>
<path d="M213.484 1.33528V3.6086H212.9V3.24397C212.827 3.37001 212.723 3.46905 212.587 3.54107C212.45 3.6101 212.295 3.64461 212.121 3.64461C211.912 3.64461 211.727 3.59659 211.565 3.50056C211.404 3.40452 211.279 3.26798 211.19 3.09091C211.101 2.91385 211.057 2.70827 211.057 2.47419C211.057 2.24011 211.101 2.03303 211.19 1.85297C211.282 1.6699 211.408 1.52885 211.57 1.42982C211.731 1.32778 211.915 1.27676 212.121 1.27676C212.295 1.27676 212.45 1.31277 212.587 1.3848C212.723 1.45383 212.827 1.55136 212.9 1.67741V1.33528H213.484ZM212.282 3.20345C212.479 3.20345 212.631 3.13893 212.739 3.00988C212.846 2.88084 212.9 2.69927 212.9 2.46519C212.9 2.2251 212.846 2.04054 212.739 1.91149C212.631 1.78244 212.477 1.71792 212.278 1.71792C212.081 1.71792 211.928 1.78544 211.817 1.92049C211.709 2.05254 211.655 2.23711 211.655 2.47419C211.655 2.70827 211.709 2.88834 211.817 3.01438C211.928 3.14043 212.083 3.20345 212.282 3.20345Z" fill="#334D6E"/>
<path d="M215.471 1.28126C215.563 1.28126 215.642 1.29327 215.708 1.31728L215.704 1.83046C215.602 1.79145 215.498 1.77194 215.39 1.77194C215.187 1.77194 215.032 1.82746 214.924 1.9385C214.82 2.04954 214.768 2.19659 214.768 2.37966V3.6086H214.179V1.97901C214.179 1.73893 214.166 1.52435 214.141 1.33528H214.696L214.744 1.73593C214.804 1.58887 214.899 1.47633 215.029 1.39831C215.159 1.32028 215.306 1.28126 215.471 1.28126Z" fill="#334D6E"/>
<path d="M216.087 1.33528H216.676V3.6086H216.087V1.33528ZM216.709 0.304414V0.858112H216.049V0.304414H216.709Z" fill="#334D6E"/>
<path d="M219.667 1.33528V3.6086H219.083V3.24397C219.01 3.37001 218.906 3.46905 218.769 3.54107C218.633 3.6101 218.478 3.64461 218.304 3.64461C218.095 3.64461 217.91 3.59659 217.748 3.50056C217.586 3.40452 217.461 3.26798 217.373 3.09091C217.284 2.91385 217.24 2.70827 217.24 2.47419C217.24 2.24011 217.284 2.03303 217.373 1.85297C217.465 1.6699 217.591 1.52885 217.753 1.42982C217.914 1.32778 218.098 1.27676 218.304 1.27676C218.478 1.27676 218.633 1.31277 218.769 1.3848C218.906 1.45383 219.01 1.55136 219.083 1.67741V1.33528H219.667ZM218.465 3.20345C218.662 3.20345 218.814 3.13893 218.921 3.00988C219.029 2.88084 219.083 2.69927 219.083 2.46519C219.083 2.2251 219.029 2.04054 218.921 1.91149C218.814 1.78244 218.66 1.71792 218.461 1.71792C218.264 1.71792 218.111 1.78544 218 1.92049C217.892 2.05254 217.838 2.23711 217.838 2.47419C217.838 2.70827 217.892 2.88834 218 3.01438C218.111 3.14043 218.266 3.20345 218.465 3.20345Z" fill="#334D6E"/>
<path d="M221.24 3.64461C220.806 3.64461 220.461 3.54858 220.205 3.35651L220.371 2.96037C220.628 3.14043 220.921 3.23046 221.25 3.23046C221.392 3.23046 221.502 3.20795 221.578 3.16294C221.657 3.11792 221.696 3.0549 221.696 2.97387C221.696 2.90485 221.67 2.85083 221.616 2.81181C221.562 2.7698 221.47 2.73378 221.34 2.70377L220.941 2.61824C220.504 2.52821 220.286 2.31663 220.286 1.98352C220.286 1.84547 220.327 1.72392 220.409 1.61888C220.491 1.51085 220.607 1.42682 220.756 1.36679C220.905 1.30677 221.077 1.27676 221.274 1.27676C221.445 1.27676 221.609 1.30227 221.768 1.35329C221.926 1.40131 222.065 1.47183 222.186 1.56487L222.01 1.9475C221.769 1.77944 221.522 1.69541 221.269 1.69541C221.133 1.69541 221.027 1.71942 220.951 1.76744C220.875 1.81546 220.837 1.88148 220.837 1.96551C220.837 2.03153 220.859 2.08405 220.903 2.12307C220.951 2.16208 221.03 2.19509 221.141 2.2221L221.549 2.30763C221.787 2.35865 221.959 2.43818 222.067 2.54622C222.178 2.65125 222.233 2.7893 222.233 2.96037C222.233 3.17044 222.145 3.337 221.967 3.46004C221.79 3.58309 221.548 3.64461 221.24 3.64461Z" fill="#334D6E"/>
<rect x="95.0977" y="21.7231" width="51.4264" height="12.8566" rx="6.4283" fill="#90A0B7"/>
<rect x="173.665" y="11.7234" width="52.8549" height="11.4281" rx="5.71405" fill="#90A0B7"/>
<rect x="173.665" y="31.7229" width="52.8549" height="12.8566" rx="6.4283" fill="#90A0B7"/>
<rect x="173.665" y="48.8648" width="52.8549" height="14.2851" rx="7.14256" fill="#90A0B7"/>
<rect x="95.0977" y="48.8648" width="51.4264" height="14.2851" rx="7.14256" fill="#90A0B7"/>
<rect x="95.0977" y="81.7206" width="51.4264" height="12.8566" rx="6.4283" fill="#90A0B7"/>
<path d="M97.9529 27.4371H75.0967V90.2916H97.9529" stroke="#90A0B7" stroke-width="1.5"/>
<path d="M95.0954 56.0072H65.0967" stroke="#90A0B7" stroke-width="1.5"/>
<path d="M175.094 18.8658H162.237V37.4365H175.094" stroke="#90A0B7"/>
<path d="M140.81 27.4371H162.237" stroke="#90A0B7"/>
<path d="M143.666 56.2532H176.07" stroke="#90A0B7"/>
</svg>
