<svg width="48" height="58" viewBox="0 0 48 58" fill="none" xmlns="http://www.w3.org/2000/svg">
<path d="M15.417 43.2078C18.2145 45.3082 21.5389 46.4169 25.0591 46.4169C33.9268 46.4169 41.1418 39.2029 41.1418 30.3364C41.1418 26.6883 39.8854 23.1145 37.6058 20.2757C35.5512 17.7172 32.738 15.8363 29.614 14.9121V10.8565C33.007 11.6456 36.1276 13.307 38.7034 15.7091C41.5966 18.4072 43.6072 21.8549 44.5191 25.6786C44.859 27.1037 47.0644 26.569 46.7267 25.1518C45.7113 20.8925 43.4721 17.053 40.2513 14.0488C37.2534 11.2528 33.5935 9.35835 29.614 8.53215V5.97926C29.614 5.35229 29.1063 4.84464 28.4792 4.84464H23.384V1.13462C23.3829 0.507652 22.874 0 22.2481 0H11.1931C10.5661 0 10.0584 0.507652 10.0584 1.13462V22.4751C10.0584 23.1021 10.5661 23.6097 11.1931 23.6097H13.1756V24.3493C13.1756 26.4474 14.9791 28.0131 17.0268 27.9344C19.0037 27.9344 20.6124 26.3259 20.6124 24.3493V23.6097H22.2481C22.8752 23.6097 23.3829 23.101 23.3829 22.4751V20.1496H28.4781C29.1051 20.1496 29.6129 19.642 29.6129 19.015V17.2973C32.0377 18.1471 34.2116 19.6735 35.8349 21.6951C37.8208 24.1681 38.8711 27.1566 38.8711 30.3353C38.8711 37.9512 32.6749 44.1466 25.058 44.1466C23.3063 44.1466 21.6109 43.8258 20.0281 43.2067H22.614C23.241 43.2067 23.7488 42.699 23.7488 42.0721V36.605C23.7488 35.978 23.2399 35.4703 22.614 35.4703H21.1663C21.0368 33.3812 19.2964 31.7209 17.1743 31.7209C16.3897 31.7209 15.6579 31.9483 15.0399 32.34C14.3903 31.0084 13.0214 30.0888 11.4431 30.0888C9.23769 30.0888 7.44323 31.883 7.44323 34.0892V35.4715H1.32471C0.69766 35.4692 0.189941 35.978 0.189941 36.605V42.0732C0.189941 42.7002 0.69766 43.2078 1.32471 43.2078H6.88147C9.36152 46.7051 12.7444 49.3593 16.6002 50.9408C14.6436 51.902 13.2938 53.9158 13.2938 56.2379C13.2218 56.9358 13.6698 57.6314 14.4286 57.6314H35.1606C35.9182 57.6314 36.3674 56.9358 36.2954 56.2379C36.2954 54.0058 35.0492 52.0585 33.2153 51.0567C35.3936 50.2001 37.4392 49.0013 39.2618 47.4919C43.1895 44.2366 45.9015 39.7049 46.8978 34.7308C47.1837 33.3024 44.9592 32.8544 44.6722 34.2851C43.7772 38.7504 41.3422 42.8195 37.8129 45.7438C34.2386 48.7053 29.7085 50.3374 25.058 50.3374C19.1061 50.3374 13.528 47.7069 9.74541 43.2078H15.417ZM22.2481 15.1136C20.8049 15.1136 19.6318 13.9396 19.6318 12.4977C19.6318 11.0547 20.806 9.88176 22.2481 9.88176C23.6902 9.88176 24.8644 11.0558 24.8644 12.4977C24.8644 13.9396 23.6902 15.1136 22.2481 15.1136ZM18.3429 24.3493C18.3429 26.0872 15.444 26.1019 15.444 24.3493V23.6097H18.3429V24.3493ZM19.4765 21.3405H12.3268V2.26924H21.1122V7.74647C18.9643 8.25975 17.3612 10.1947 17.3612 12.4977C17.3612 14.8007 18.9631 16.7356 21.1122 17.2489V21.3416H19.4765V21.3405ZM27.3422 17.8815H23.3818V17.2478C25.5308 16.7345 27.1328 14.7996 27.1328 12.4966C27.1328 10.1936 25.5308 8.25975 23.3818 7.74647V7.11388H27.3422V17.8815ZM17.1743 33.989C18.0434 33.989 18.7661 34.634 18.8866 35.4692H15.4609C15.5836 34.634 16.3052 33.989 17.1743 33.989ZM9.71276 34.0881C9.71276 33.1336 10.4884 32.358 11.4431 32.358C12.3977 32.358 13.1745 33.1336 13.1745 34.0881V35.4703H9.71276V34.0881ZM21.4792 37.7396V40.9386H2.45948V37.7396H21.4792ZM30.3941 52.6067C32.094 52.6067 33.526 53.7818 33.9189 55.3622H15.6703C16.0632 53.7818 17.494 52.6067 19.1951 52.6067H30.3941Z" fill="#334D6E"/>
<path d="M45.2571 29.191C44.8214 29.6288 44.8203 30.3594 45.2571 30.7972C45.6939 31.234 46.4256 31.2328 46.8613 30.7972C47.2857 30.3729 47.2992 29.6694 46.8951 29.2281C46.4673 28.7599 45.7074 28.7419 45.2571 29.191C45.0466 29.4026 45.4687 28.9794 45.2571 29.191Z" fill="#334D6E"/>
<path d="M14.6079 3.44336C13.9899 3.44336 13.4731 3.96002 13.4731 4.57798C13.4731 5.19481 13.991 5.7126 14.6079 5.7126C15.2068 5.7126 15.7145 5.22408 15.7404 4.6275C15.7686 3.99266 15.2451 3.44336 14.6079 3.44336Z" fill="#334D6E"/>
<path d="M14.6079 18.0039C13.991 18.0039 13.4731 18.5217 13.4731 19.1385C13.4731 19.7554 13.991 20.2731 14.6079 20.2731C15.2068 20.2731 15.7145 19.7858 15.7404 19.1881C15.7686 18.5532 15.244 18.0039 14.6079 18.0039Z" fill="#334D6E"/>
</svg>
