<svg width="80" height="90" viewBox="0 0 80 90" fill="none" xmlns="http://www.w3.org/2000/svg">
<path d="M25.9188 67.4754C30.6806 70.7555 36.3392 72.4869 42.3312 72.4869C57.4253 72.4869 69.7064 61.2211 69.7064 47.3748C69.7064 41.6777 67.5679 36.0967 63.6875 31.6635C60.1904 27.668 55.4018 24.7307 50.0843 23.2875V16.9541C55.8598 18.1863 61.1715 20.7809 65.5558 24.532C70.4805 28.7455 73.9029 34.1297 75.455 40.101C76.0337 42.3264 79.7876 41.4914 79.2128 39.2783C77.4843 32.6268 73.673 26.6309 68.1907 21.9393C63.0878 17.5729 56.8581 14.6145 50.0843 13.3242V9.3375C50.0843 8.3584 49.2201 7.56563 48.1527 7.56563H39.4799V1.77187C39.478 0.792773 38.6119 0 37.5464 0H18.7291C17.6618 0 16.7976 0.792773 16.7976 1.77187V35.0982C16.7976 36.0773 17.6618 36.8701 18.7291 36.8701H22.1036V38.025C22.1036 41.3016 25.1734 43.7467 28.659 43.6236C32.0239 43.6236 34.7622 41.1117 34.7622 38.025V36.8701H37.5464C38.6138 36.8701 39.478 36.0756 39.478 35.0982V31.4666H48.1508C49.2181 31.4666 50.0824 30.6738 50.0824 29.6947V27.0123C54.2099 28.3395 57.9101 30.723 60.6733 33.8801C64.0535 37.742 65.8414 42.409 65.8414 47.373C65.8414 59.2664 55.2945 68.9414 42.3293 68.9414C39.3477 68.9414 36.4619 68.4404 33.7677 67.4736H38.1692C39.2365 67.4736 40.1008 66.6809 40.1008 65.7018V57.1641C40.1008 56.185 39.2346 55.3922 38.1692 55.3922H35.705C35.4846 52.1297 32.5221 49.5369 28.91 49.5369C27.5744 49.5369 26.3289 49.892 25.2769 50.5037C24.1712 48.4242 21.8411 46.9881 19.1545 46.9881C15.4007 46.9881 12.3462 49.79 12.3462 53.2354V55.3939H1.93155C0.864216 55.3904 0 56.185 0 57.1641V65.7035C0 66.6826 0.864216 67.4754 1.93155 67.4754H11.39C15.6115 72.9369 21.3697 77.0818 27.9328 79.5516C24.6024 81.0527 22.3048 84.1975 22.3048 87.8238C22.1822 88.9137 22.9448 90 24.2364 90H59.5255C60.8151 90 61.5797 88.9137 61.4571 87.8238C61.4571 84.3381 59.3358 81.2971 56.2143 79.7326C59.9222 78.3949 63.4039 76.5229 66.5063 74.1656C73.192 69.082 77.8082 62.0051 79.504 54.2373C79.9907 52.0066 76.2043 51.307 75.7157 53.5412C74.1923 60.5145 70.0475 66.8689 64.0401 71.4357C57.9561 76.0605 50.2452 78.6094 42.3293 78.6094C32.1983 78.6094 22.7034 74.5014 16.2649 67.4754H25.9188ZM37.5464 23.6021C35.0898 23.6021 33.0931 21.7687 33.0931 19.517C33.0931 17.2635 35.0918 15.4318 37.5464 15.4318C40.0011 15.4318 41.9997 17.2652 41.9997 19.517C41.9997 21.7687 40.0011 23.6021 37.5464 23.6021ZM30.8991 38.025C30.8991 40.7391 25.9648 40.7619 25.9648 38.025V36.8701H30.8991V38.025ZM32.8287 33.3264H20.6588V3.54375H35.613V12.0973C31.9568 12.8988 29.2281 15.9205 29.2281 19.517C29.2281 23.1135 31.9549 26.1352 35.613 26.9367V33.3281H32.8287V33.3264ZM46.2173 27.9246H39.4761V26.935C43.1341 26.1334 45.8609 23.1117 45.8609 19.5152C45.8609 15.9187 43.1341 12.8988 39.4761 12.0973V11.1094H46.2173V27.9246ZM28.91 53.0789C30.3894 53.0789 31.6196 54.0861 31.8246 55.3904H25.9935C26.2024 54.0861 27.4307 53.0789 28.91 53.0789ZM16.2093 53.2336C16.2093 51.743 17.5296 50.5318 19.1545 50.5318C20.7795 50.5318 22.1017 51.743 22.1017 53.2336V55.3922H16.2093V53.2336ZM36.2377 58.9359V63.9316H3.8631V58.9359H36.2377ZM51.4122 82.1531C54.3057 82.1531 56.7431 83.9883 57.4119 86.4562H26.35C27.0187 83.9883 29.4542 82.1531 32.3497 82.1531H51.4122Z" fill="white"/>
<path d="M76.7112 45.5868C75.9696 46.2706 75.9677 47.4114 76.7112 48.0952C77.4547 48.7773 78.7002 48.7755 79.4418 48.0952C80.1642 47.4325 80.1872 46.3339 79.4993 45.6448C78.7711 44.9136 77.4777 44.8855 76.7112 45.5868C77.0714 45.2564 76.3529 45.9173 76.7112 45.5868Z" fill="white"/>
<path d="M24.5417 5.37695C23.4897 5.37695 22.6101 6.18379 22.6101 7.14883C22.6101 8.11211 23.4916 8.9207 24.5417 8.9207C25.5611 8.9207 26.4253 8.15781 26.4694 7.22617C26.5173 6.23477 25.6262 5.37695 24.5417 5.37695Z" fill="white"/>
<path d="M24.5417 28.1152C23.4916 28.1152 22.6101 28.9238 22.6101 29.8871C22.6101 30.8504 23.4916 31.659 24.5417 31.659C25.5611 31.659 26.4253 30.8979 26.4694 29.9645C26.5173 28.973 25.6243 28.1152 24.5417 28.1152Z" fill="white"/>
</svg>
