<svg width="56" height="55" viewBox="0 0 56 55" fill="none" xmlns="http://www.w3.org/2000/svg">
<path d="M52.3669 45.5903C51.1096 47.6195 51.1096 50.1884 52.3669 52.2187H49.0449C47.604 52.2187 47.6019 54.4627 49.0449 54.4627H54.8903C55.9351 54.4627 56.4035 53.0941 55.5778 52.454C54.3366 51.4912 53.6524 50.2305 53.6524 48.904C53.6524 47.5774 54.3366 46.3178 55.5778 45.355C56.4035 44.715 55.9351 43.3463 54.8903 43.3463H51.4409C50.5688 42.4224 50.0918 41.2599 50.0918 40.0327C50.0918 38.6716 50.6757 37.3914 51.7366 36.4265C52.4878 35.7432 51.9751 34.4739 50.9811 34.4739H39.7597C43.2458 31.987 44.6057 27.8552 44.1956 23.6867C43.7628 19.299 42.3468 14.2044 38.0804 12.0705C39.6335 11.0807 41.0042 9.53183 41.7402 7.83183C41.9712 7.30078 41.7586 6.68122 41.2513 6.40166C37.3097 4.23644 34.1722 4.9715 32.2349 5.96991C31.6715 6.26026 31.1772 6.58947 30.7541 6.91436C30.6257 5.62667 30.5847 4.28178 30.6311 2.89371C30.6505 2.33136 30.2501 1.84132 29.6943 1.74958L24.0787 0.813764C23.4042 0.70151 22.7728 1.23688 22.7728 1.92012C22.7728 6.20737 24.532 9.24472 25.8196 10.8962C20.925 11.2178 18.053 15.2309 16.8302 19.611C15.4509 24.548 16.1405 31.0437 20.3692 34.4739H9.55362C6.85 34.4739 4.6504 36.9673 4.6504 40.0316C4.6504 41.2901 5.02168 42.4526 5.64659 43.3852C2.88792 43.7101 0.741211 46.0599 0.741211 48.904C0.741211 51.9683 3.23437 54.4627 6.29848 54.4627H40.1979C41.6388 54.4627 41.6409 52.2187 40.1979 52.2187H6.29848C4.47124 52.2187 2.98506 50.7324 2.98506 48.9051C2.98506 47.0777 4.47124 45.5914 6.29848 45.5914H52.3669V45.5903ZM39.1478 7.875C38.8078 8.38986 38.3048 9.03856 37.6314 9.61602C35.9045 11.0958 33.8398 11.452 31.4913 10.6803C31.3553 10.3629 31.2528 10.0003 31.1589 9.56421C32.1205 8.5183 34.9202 6.11779 39.1478 7.875ZM28.3689 3.80362C28.3559 6.1696 28.4811 8.73526 29.2215 11.0095C29.2183 11.0073 29.2151 11.0052 29.2118 11.0041C28.6581 10.6609 28.1649 10.2313 27.7515 9.72828C26.8169 8.5917 25.4073 6.40382 25.0835 3.25638L28.3689 3.80362ZM31.0984 34.1091C30.4023 33.4442 29.8745 33.754 29.1136 33.9849C27.7861 34.3876 26.3906 34.4674 25.0803 34.217C21.9482 33.619 19.8673 31.4862 18.896 27.8768C18.2387 25.4374 18.2721 22.7876 18.9909 20.2144C19.9083 16.932 21.4312 14.7614 23.5196 13.7597C26.4067 12.376 29.5248 13.6691 29.5809 13.6928C29.8044 13.7889 30.0537 13.8105 30.29 13.7532C33.4891 12.9793 36.0524 13.2567 37.912 14.5779C40.1461 16.1646 41.5082 19.3023 41.9615 23.9058C42.7008 31.4063 37.2083 34.0324 33.8463 34.4005C33.0962 34.4836 31.7082 34.693 31.0984 34.1091ZM9.55362 43.3463C8.08686 43.3463 6.89425 41.86 6.89425 40.0316C6.89425 38.2042 8.08794 36.7179 9.55362 36.7179H32.6159C32.6289 36.7179 32.6407 36.7179 32.6537 36.7179C32.6634 36.7179 32.6753 36.7179 32.685 36.7179H48.6887C48.1393 37.7314 47.849 38.8594 47.849 40.0327C47.849 41.2049 48.1393 42.3328 48.6887 43.3463H9.55362Z" fill="#334D6E"/>
<path d="M48.6331 49.0668C48.6331 48.4472 48.1302 47.9453 47.5107 47.9453H7.0502C5.60935 47.9453 5.60719 50.1893 7.0502 50.1893H47.5117C48.1302 50.1882 48.6331 49.6863 48.6331 49.0668Z" fill="#334D6E"/>
<path d="M44.4292 39.0098H10.1337C8.69284 39.0098 8.69068 41.2538 10.1337 41.2538H44.4292C45.8701 41.2538 45.8722 39.0098 44.4292 39.0098Z" fill="#334D6E"/>
<path d="M25.61 15.4425C24.3623 15.9336 21.8573 18.4561 21.7202 22.0601C21.6662 23.5011 23.9068 23.6069 23.9619 22.1454C24.0623 19.4934 25.9381 17.7599 26.4378 17.5279C27.7718 16.9936 26.9483 14.9147 25.61 15.4425Z" fill="#334D6E"/>
<path d="M24.1041 26.2317C23.8698 25.6681 23.2026 25.3906 22.639 25.6238C22.0744 25.8581 21.7991 26.5253 22.0323 27.0889C22.2579 27.6342 22.8895 27.9138 23.4455 27.7152C24.0404 27.5014 24.3437 26.8179 24.1041 26.2317Z" fill="#334D6E"/>
<path d="M45.6714 52.9115C45.436 52.3468 44.771 52.0704 44.2063 52.3036C43.6417 52.5368 43.3642 53.2041 43.5985 53.7688C43.8328 54.3334 44.4989 54.6098 45.0635 54.3766C45.6282 54.1445 45.9067 53.4762 45.6714 52.9115Z" fill="#334D6E"/>
</svg>
