<svg width="61" height="42" viewBox="0 0 61 42" fill="none" xmlns="http://www.w3.org/2000/svg">
<g clip-path="url(#clip0)">
<path d="M32.227 35.25H28.7852C27.2811 35.25 27.2788 37.5869 28.7852 37.5869H32.227C33.7299 37.5881 33.7322 35.25 32.227 35.25Z" fill="#334D6E"/>
<path d="M47.5043 41.2638C47.6829 41.2638 47.865 41.221 48.0262 41.1412L59.4858 35.4527C60.0656 35.1658 60.301 34.4636 60.0123 33.8863L43.4792 0.742481C43.1951 0.172133 42.4807 -0.0661864 41.909 0.217252L30.4505 5.90685C29.8718 6.19492 29.6353 6.89599 29.924 7.47328L32.5993 12.839L34.3585 16.3652H25.8629V9.0293C25.8629 8.38376 25.3388 7.86084 24.6917 7.86084H16.0187V3.03544C16.0187 2.3899 15.4934 1.86698 14.8474 1.86698H2.04722C1.40014 1.86698 0.875977 2.3899 0.875977 3.03544V40.0548C0.875977 40.7004 1.40014 41.2233 2.04722 41.2233L47.5043 41.2638ZM45.6129 38.9257H37.413V22.4886L45.6129 38.9257ZM45.4274 33.3078L38.0717 18.5633L47.4336 13.9149L54.7892 28.6595L45.4274 33.3078ZM37.028 16.4716L35.2178 12.8447L35.3523 12.7776L44.5785 8.1975L46.3887 11.8244L37.028 16.4716ZM41.9032 2.83067L43.536 6.10352L34.1741 10.7519L32.5414 7.47791L41.9032 2.83067ZM3.21847 10.1978H13.675V32.5767H3.21847V10.1978ZM3.21847 4.2039H13.675V7.86084H3.21847V4.2039ZM3.21847 34.9136H13.675V38.8852H3.21847V34.9136ZM16.0187 38.8864V10.1978H18.5977V15.4188C18.5977 16.9193 20.9402 16.9216 20.9402 15.4188V10.1978H23.5204V38.8864H16.0187ZM25.8629 18.7021H35.0706V38.8852H25.8629V18.7021ZM48.0308 38.5277L46.4711 35.4007L55.8329 30.7523L57.3926 33.8794L48.0308 38.5277Z" fill="#334D6E"/>
<path d="M19.7675 21.2705C20.4053 21.2705 20.9388 20.7372 20.9388 20.1021C20.9388 19.4669 20.4042 18.9336 19.7675 18.9336C19.1494 18.9336 18.6264 19.4357 18.5997 20.0512C18.5708 20.7048 19.1112 21.2705 19.7675 21.2705Z" fill="#334D6E"/>
</g>
<defs>
<clipPath id="clip0">
<rect width="59.2581" height="41.3011" fill="white" transform="translate(0.875977)"/>
</clipPath>
</defs>
</svg>
