<svg width="80" height="70" viewBox="0 0 80 70" fill="none" xmlns="http://www.w3.org/2000/svg">
<g clip-path="url(#clip0)">
<path d="M42.3247 59.7441H37.6781C35.6476 59.7441 35.6445 63.7049 37.6781 63.7049H42.3247C44.3537 63.7069 44.3568 59.7441 42.3247 59.7441Z" fill="white"/>
<path d="M62.9495 69.9373C63.1906 69.9373 63.4364 69.8648 63.654 69.7295L79.1249 60.0883C79.9077 59.602 80.2255 58.4118 79.8356 57.4334L57.5155 1.25891C57.1319 0.292245 56.1675 -0.111677 55.3957 0.368715L39.9264 10.0119C39.1452 10.5001 38.8258 11.6883 39.2157 12.6668L42.8274 21.7609L45.2024 27.7373H33.7331V15.304C33.7331 14.2099 33.0254 13.3236 32.1519 13.3236H20.4431V5.14519C20.4431 4.05107 19.7339 3.16479 18.8618 3.16479H1.58121C0.707632 3.16479 0 4.05107 0 5.14519V67.8883C0 68.9824 0.707632 69.8687 1.58121 69.8687L62.9495 69.9373ZM60.3961 65.9746H49.326V38.1158L60.3961 65.9746ZM60.1456 56.453L50.2153 31.4628L62.854 23.5844L72.7844 48.5746L60.1456 56.453ZM48.8063 27.9177L46.3624 21.7707L46.544 21.6569L58.9996 13.8942L61.4435 20.0413L48.8063 27.9177ZM55.3879 4.79813L57.5922 10.3452L44.9534 18.2236L42.7491 12.6746L55.3879 4.79813ZM3.16243 17.2844H17.2791V55.2138H3.16243V17.2844ZM3.16243 7.12558H17.2791V13.3236H3.16243V7.12558ZM3.16243 59.1746H17.2791V65.906H3.16243V59.1746ZM20.4431 65.9079V17.2844H23.9249V26.1334C23.9249 28.6766 27.0873 28.6805 27.0873 26.1334V17.2844H30.5707V65.9079H20.4431ZM33.7331 31.6981H46.1636V65.906H33.7331V31.6981ZM63.6603 65.3001L61.5546 60.0001L74.1934 52.1217L76.299 57.4217L63.6603 65.3001Z" fill="white"/>
<path d="M25.5043 36.0506C26.3654 36.0506 27.0855 35.1467 27.0855 34.0702C27.0855 32.9938 26.3638 32.0898 25.5043 32.0898C24.6699 32.0898 23.9638 32.9408 23.9278 33.984C23.8886 35.0918 24.6182 36.0506 25.5043 36.0506Z" fill="white"/>
</g>
<defs>
<clipPath id="clip0">
<rect width="80" height="70" fill="white"/>
</clipPath>
</defs>
</svg>
