<svg width="58" height="46" viewBox="0 0 58 46" fill="none" xmlns="http://www.w3.org/2000/svg">
<g clip-path="url(#clip0)">
<path d="M56.191 3.25592H52.0061V1.07591C52.0061 -0.357529 49.7756 -0.359741 49.7756 1.07591V3.25592H8.373V1.07591C8.373 -0.357529 6.14246 -0.359741 6.14246 1.07591V3.25592H1.85593C1.24057 3.25592 0.741211 3.75586 0.741211 4.37303V44.6055C0.741211 45.2215 1.24057 45.7226 1.85593 45.7226H44.6671C46.0989 45.7226 46.1011 43.4895 44.6671 43.4895H2.97175V5.48903H55.0752V43.4895H53.7064C52.2746 43.4895 52.2724 45.7226 53.7064 45.7226H56.1899C56.8053 45.7226 57.3046 45.2226 57.3046 44.6055V4.37303C57.3057 3.75586 56.8064 3.25592 56.191 3.25592Z" fill="#334D6E"/>
<path d="M50.8992 36.5611C51.5146 36.5611 52.014 36.0612 52.014 35.4451V9.36014C52.014 8.74297 51.5146 8.24414 50.8992 8.24414H7.14792C6.53256 8.24414 6.0332 8.74407 6.0332 9.36014V35.444C6.0332 36.0601 6.53256 36.56 7.14792 36.56H50.8992V36.5611ZM38.5302 34.328V32.2863H45.5643V34.328H38.5302ZM49.7834 34.328H47.7948V31.1703C47.7948 30.5542 47.2955 30.0532 46.6801 30.0532H37.4155C36.8001 30.0532 36.3007 30.5531 36.3007 31.1703V34.328H8.26374V10.4772H49.7845V34.328H49.7834Z" fill="#334D6E"/>
<path d="M19.9123 22.2534C18.6882 22.2534 17.7336 22.4315 17.0763 22.7832C15.8511 23.4391 15.6898 25.4465 16.6742 26.3922C17.0851 26.7871 17.6176 26.9872 18.2562 26.9872C19.098 26.9872 19.8824 26.5968 20.5906 25.8237C20.5541 26.1245 20.6525 26.4198 20.8988 26.6123C21.3993 27.0027 22.7604 26.9131 22.7604 26.0703V22.124C22.7604 21.196 22.4632 20.414 21.8766 19.7991C21.2888 19.183 20.384 18.8711 19.1897 18.8711C18.5655 18.8711 17.9645 18.9905 17.4 19.2261C15.9936 19.8145 16.5283 21.7656 17.9701 20.998C18.296 20.8255 18.6948 20.7381 19.1566 20.7381C20.0062 20.7381 20.5011 21.4327 20.4613 22.2545L19.9123 22.2534ZM19.0914 25.1214C18.2971 25.1214 18.1402 24.2542 18.6959 23.8151C19.0936 23.501 19.9852 23.5463 20.4602 23.5563C20.5276 24.3084 19.8747 25.1214 19.0914 25.1214Z" fill="#334D6E"/>
<path d="M26.044 26.623C26.6317 27.0322 27.8669 26.8718 27.8768 25.977C28.3707 26.6042 29.2081 26.9891 30.0013 26.9891C30.7724 26.9891 31.4607 26.6396 32.0496 25.9516C33.3046 24.4817 33.3388 21.3438 32.0562 19.8772C31.2254 18.9271 29.7561 18.5112 28.6446 19.249C28.3905 19.4182 28.1762 19.6151 28.005 19.8385V15.2783C28.005 14.2507 25.707 14.2253 25.707 15.2783V26.0733C25.7059 26.2834 25.8197 26.4681 26.044 26.623ZM28.005 23.8579V22.2585C28.005 20.5497 30.6299 20.5563 30.6299 22.2585V23.5703C30.6299 25.1508 28.005 25.372 28.005 23.8579Z" fill="#334D6E"/>
<path d="M38.9962 26.9884C39.7397 26.9884 40.3882 26.8468 40.9229 26.5648C42.3381 25.8193 41.5648 23.9843 40.1208 24.7066C39.0812 25.2275 37.6914 24.8758 37.6914 23.5696V22.2899C37.6914 20.9715 39.0691 20.6585 40.1153 21.1385C41.4985 21.7723 42.2243 19.9816 40.8654 19.2704C40.3584 19.006 39.7231 18.8711 38.9796 18.8711C37.7953 18.8711 36.8905 19.1885 36.2917 19.8157C34.9814 21.1883 34.9726 24.6812 36.2917 26.0515C36.8905 26.6743 37.8008 26.9884 38.9962 26.9884Z" fill="#334D6E"/>
<path d="M7.25826 38.7598C5.82648 38.7598 5.82427 40.9929 7.25826 40.9929H15.8092C16.4246 40.9929 16.9239 40.4929 16.9239 39.8769C16.9239 39.2608 16.4246 38.7609 15.8092 38.7609H7.25826V38.7598Z" fill="#334D6E"/>
<path d="M49.1489 43.4902C48.5435 43.4902 48.0331 44.0001 48.0342 44.6062C48.0342 45.2123 48.5435 45.7222 49.1489 45.7222C49.7378 45.7222 50.236 45.2422 50.2614 44.6549C50.289 44.03 49.7753 43.4902 49.1489 43.4902Z" fill="#334D6E"/>
</g>
<defs>
<clipPath id="clip0">
<rect width="56.5645" height="45.7903" fill="white" transform="translate(0.741211)"/>
</clipPath>
</defs>
</svg>
