<svg width="80" height="70" viewBox="0 0 80 70" fill="none" xmlns="http://www.w3.org/2000/svg">
<path d="M78.4234 4.97736H72.5047V1.64475C72.5047 -0.546558 69.35 -0.549939 69.35 1.64475V4.97736H10.7938V1.64475C10.7938 -0.546558 7.63906 -0.549939 7.63906 1.64475V4.97736H1.57656C0.70625 4.97736 0 5.74161 0 6.68509V68.1887C0 69.1305 0.70625 69.8964 1.57656 69.8964H62.125C64.15 69.8964 64.1531 66.4827 62.125 66.4827H3.15469V8.39112H76.8453V66.4827H74.9094C72.8844 66.4827 72.8813 69.8964 74.9094 69.8964H78.4219C79.2922 69.8964 79.9984 69.1322 79.9984 68.1887V6.68509C80 5.74161 79.2938 4.97736 78.4234 4.97736Z" fill="white"/>
<path d="M70.9391 55.8919C71.8094 55.8919 72.5156 55.1277 72.5156 54.1859V14.3096C72.5156 13.3661 71.8094 12.6035 70.9391 12.6035H9.06094C8.19062 12.6035 7.48438 13.3678 7.48438 14.3096V54.1842C7.48438 55.126 8.19062 55.8902 9.06094 55.8902H70.9391V55.8919ZM53.4453 52.4782V49.3569H63.3937V52.4782H53.4453ZM69.3609 52.4782H66.5484V47.6509C66.5484 46.7091 65.8422 45.9431 64.9719 45.9431H51.8687C50.9984 45.9431 50.2922 46.7074 50.2922 47.6509V52.4782H10.6391V16.0173H69.3625V52.4782H69.3609Z" fill="white"/>
<path d="M27.1136 34.0201C25.3824 34.0201 24.0324 34.2924 23.1027 34.83C21.3699 35.8327 21.1418 38.9015 22.534 40.3472C23.1152 40.9508 23.8683 41.2568 24.7715 41.2568C25.9621 41.2568 27.0715 40.66 28.073 39.4781C28.0215 39.938 28.1605 40.3895 28.509 40.6837C29.2168 41.2805 31.1418 41.1436 31.1418 39.8552V33.8223C31.1418 32.4037 30.7215 31.2083 29.8918 30.2682C29.0605 29.3264 27.7808 28.8496 26.0918 28.8496C25.209 28.8496 24.359 29.0322 23.5605 29.3924C21.5715 30.2919 22.3277 33.2745 24.3668 32.1011C24.8277 31.8373 25.3918 31.7037 26.0449 31.7037C27.2465 31.7037 27.9465 32.7655 27.8902 34.0218L27.1136 34.0201ZM25.9527 38.4044C24.8293 38.4044 24.6074 37.0788 25.3933 36.4076C25.9558 35.9274 27.2168 35.9967 27.8887 36.0119C27.984 37.1617 27.0605 38.4044 25.9527 38.4044Z" fill="white"/>
<path d="M35.7861 40.6976C36.6174 41.3232 38.3643 41.078 38.3783 39.7102C39.0768 40.6688 40.2612 41.2573 41.383 41.2573C42.4737 41.2573 43.4471 40.723 44.2799 39.6713C46.0549 37.4242 46.1034 32.6273 44.2893 30.3853C43.1143 28.9328 41.0362 28.2971 39.4643 29.4249C39.1049 29.6836 38.8018 29.9845 38.5596 30.3261V23.3548C38.5596 21.784 35.3096 21.7452 35.3096 23.3548V39.8573C35.308 40.1785 35.469 40.4609 35.7861 40.6976ZM38.5596 36.4705V34.0256C38.5596 31.4133 42.2721 31.4234 42.2721 34.0256V36.0309C42.2721 38.4471 38.5596 38.7853 38.5596 36.4705Z" fill="white"/>
<path d="M54.1043 41.2566C55.1559 41.2566 56.073 41.0402 56.8293 40.609C58.8309 39.4694 57.7371 36.6643 55.6949 37.7684C54.2246 38.5648 52.259 38.0271 52.259 36.0303V34.074C52.259 32.0585 54.2074 31.58 55.6871 32.3138C57.6434 33.2827 58.6699 30.5452 56.748 29.458C56.0309 29.0539 55.1324 28.8477 54.0809 28.8477C52.4059 28.8477 51.1262 29.3329 50.2793 30.2916C48.4262 32.3899 48.4137 37.7295 50.2793 39.8245C51.1262 40.7764 52.4137 41.2566 54.1043 41.2566Z" fill="white"/>
<path d="M9.21719 59.252C7.19219 59.252 7.18906 62.6657 9.21719 62.6657H21.3109C22.1813 62.6657 22.8875 61.9015 22.8875 60.9597C22.8875 60.0179 22.1813 59.2536 21.3109 59.2536H9.21719V59.252Z" fill="white"/>
<path d="M68.4638 66.4824C67.6075 66.4824 66.8856 67.2619 66.8872 68.1885C66.8872 69.115 67.6075 69.8945 68.4638 69.8945C69.2966 69.8945 70.0013 69.1607 70.0372 68.2628C70.0763 67.3075 69.3497 66.4824 68.4638 66.4824Z" fill="white"/>
</svg>
