<svg width="60" height="60" viewBox="0 0 60 60" fill="none" xmlns="http://www.w3.org/2000/svg">
<path d="M59.08 33.6579L49.2568 25.9674C48.5136 25.3858 47.3665 25.9363 47.3665 26.8883V30.9044H45.6793C44.178 30.9044 44.1756 33.2436 45.6793 33.2436H47.3665V35.6543H27.6672C27.3684 35.6543 27.096 35.7674 26.8894 35.9521C26.5236 36.1494 26.2755 36.5372 26.2755 36.9815V56.7466H23.8636V36.9422C23.8636 36.3641 23.4446 35.8852 22.893 35.7905C22.7291 35.704 22.5434 35.6532 22.3449 35.6532H2.77135V33.2424H22.4026C22.5918 33.2424 22.7695 33.1963 22.9276 33.1166C23.4608 33.007 23.8624 32.5362 23.8624 31.9707V12.1514H26.2743V31.9718C26.2743 32.4865 26.6078 32.9239 27.0718 33.0797C27.246 33.1824 27.4491 33.2436 27.6672 33.2436H36.3225C37.825 33.2436 37.8273 30.9044 36.3225 30.9044H28.6136V12.1514H32.76C33.704 12.1514 34.2683 11.0112 33.6809 10.2611L25.9904 0.437955C25.5334 -0.14483 24.6068 -0.147138 24.1486 0.437955L16.4581 10.2611C15.8765 11.0043 16.4258 12.1514 17.3791 12.1514H21.5255V30.9044H1.60232C0.956059 30.9044 0.432129 31.4271 0.432129 32.0734V36.8234C0.432129 37.4696 0.956059 37.9936 1.60232 37.9936H21.5243V57.9156C21.5243 58.5618 22.0483 59.0858 22.6945 59.0858H27.4445C28.0908 59.0858 28.6147 58.5618 28.6147 57.9156V37.9936H47.3677V42.2692C47.3677 43.2109 48.5148 43.773 49.2592 43.1902L59.0823 35.4997C59.6627 35.0427 59.6662 34.116 59.08 33.6579ZM19.7794 9.81214L25.0695 3.05645L30.3596 9.81214H19.7794ZM49.7058 29.2887L56.4615 34.5776L49.7058 39.8677V29.2887Z" fill="#334D6E"/>
<path d="M7.68159 24.9211C8.30015 25.5385 9.40455 25.2477 9.63651 24.4041L11.3145 18.2923H16.8538C18.3552 18.2923 18.3575 15.9531 16.8538 15.9531H10.4236C9.89617 15.9531 9.43456 16.3051 9.29492 16.8129L7.91355 21.8433L6.56448 20.4942C5.49816 19.4268 3.84328 21.0816 4.91076 22.148L7.68159 24.9211Z" fill="#334D6E"/>
<path d="M12.5478 25.952C11.7781 25.952 11.6765 27.2756 12.1797 27.6553C13.8576 28.9224 15.3406 26.4505 15.7722 25.2341L17.1316 21.8401C17.614 20.9031 15.6233 19.9487 15.2194 20.9481L14.6505 22.7841L13.8773 20.9481C13.4745 19.9533 11.4734 20.8638 11.9708 21.8471L13.6211 25.0945C13.6061 25.5284 13.4468 25.952 12.5478 25.952Z" fill="#334D6E"/>
<path d="M43.5449 42.1367H37.1135C36.5861 42.1367 36.1245 42.4887 35.986 42.9965L34.6046 48.0269L33.2556 46.6778C32.1881 45.6115 30.5344 47.2652 31.6007 48.3327L34.3715 51.1047C34.9901 51.7232 36.0945 51.4324 36.3265 50.5877L38.0044 44.4771H43.5438C45.0475 44.4759 45.0486 42.1367 43.5449 42.1367Z" fill="#334D6E"/>
<path d="M42.6169 49.3184C43.1027 48.6722 43.9451 47.9832 43.33 47.2066C42.4484 46.0929 41.7063 47.1096 41.2332 47.869C40.7692 47.1096 40.0491 46.056 39.1409 47.2066C38.535 47.974 39.3625 48.6653 39.8449 49.3104C39.4317 49.8585 38.5235 50.6329 38.8663 51.3818C39.5921 52.9686 40.7681 51.4949 41.232 50.7921C41.7306 51.5411 42.498 52.7598 43.4397 51.548C44.0617 50.746 43.1189 49.9739 42.6169 49.3184Z" fill="#334D6E"/>
<path d="M40.1159 32.8997C40.5648 33.351 41.3219 33.3487 41.7696 32.8997C42.2185 32.4497 42.2185 31.6961 41.7696 31.246C41.3334 30.8086 40.6075 30.7948 40.154 31.2114C39.6716 31.6534 39.6508 32.437 40.1159 32.8997C40.334 33.119 39.8978 32.6839 40.1159 32.8997Z" fill="#334D6E"/>
</svg>
