<svg width="80" height="80" viewBox="0 0 80 80" fill="none" xmlns="http://www.w3.org/2000/svg">
<path d="M79.4061 45.5715L66.1061 35.1589C65.0998 34.3714 63.5467 35.1168 63.5467 36.4058V41.8434H61.2623C59.2295 41.8434 59.2264 45.0106 61.2623 45.0106H63.5467V48.2747H36.8749C36.4702 48.2747 36.1015 48.4278 35.8218 48.6778C35.3265 48.945 34.9905 49.47 34.9905 50.0716V76.8328H31.7249V50.0185C31.7249 49.2356 31.1577 48.5872 30.4109 48.4591C30.189 48.3419 29.9374 48.2731 29.6687 48.2731H3.16718V45.009H29.7468C30.0031 45.009 30.2437 44.9465 30.4577 44.8387C31.1796 44.6903 31.7234 44.0528 31.7234 43.2871V16.4525H34.989V43.2887C34.989 43.9856 35.4405 44.5778 36.0687 44.7887C36.3046 44.9278 36.5796 45.0106 36.8749 45.0106H48.5936C50.628 45.0106 50.6311 41.8434 48.5936 41.8434H38.1562V16.4525H43.7702C45.0483 16.4525 45.8124 14.9087 45.0171 13.8931L34.6046 0.592975C33.9859 -0.196095 32.7312 -0.19922 32.1109 0.592975L21.6984 13.8931C20.9109 14.8994 21.6546 16.4525 22.9453 16.4525H28.5593V41.8434H1.58437C0.709373 41.8434 0 42.5512 0 43.4262V49.8575C0 50.7325 0.709373 51.4419 1.58437 51.4419H28.5577V78.4156C28.5577 79.2906 29.2671 80 30.1421 80H36.5733C37.4483 80 38.1577 79.2906 38.1577 78.4156V51.4419H63.5483V57.231C63.5483 58.506 65.1014 59.267 66.1092 58.4779L79.4092 48.0653C80.1951 47.4466 80.1998 46.1919 79.4061 45.5715ZM26.1952 13.2853L33.3577 4.13832L40.5202 13.2853H26.1952ZM66.7139 39.6559L75.8608 46.8169L66.7139 53.9794V39.6559Z" fill="white"/>
<path d="M9.81562 33.7419C10.6531 34.5779 12.1484 34.1841 12.4625 33.0419L14.7344 24.7668H22.2343C24.2671 24.7668 24.2703 21.5996 22.2343 21.5996H13.5281C12.814 21.5996 12.189 22.0762 12 22.7637L10.1297 29.5747L8.30312 27.7481C6.85938 26.3028 4.61876 28.5434 6.06406 29.9872L9.81562 33.7419Z" fill="white"/>
<path d="M16.4039 35.1372C15.3617 35.1372 15.2242 36.9294 15.9055 37.4435C18.1773 39.1592 20.1851 35.8122 20.7695 34.1654L22.6101 29.57C23.2633 28.3012 20.568 27.009 20.0211 28.3622L19.2508 30.8481L18.2039 28.3622C17.6586 27.0153 14.9492 28.2481 15.6227 29.5794L17.857 33.9763C17.8367 34.5638 17.6211 35.1372 16.4039 35.1372Z" fill="white"/>
<path d="M58.3727 57.0508H49.6649C48.9508 57.0508 48.3258 57.5273 48.1383 58.2149L46.268 65.0259L44.4415 63.1993C42.9962 61.7555 40.7571 63.9946 42.2009 65.4399L45.9524 69.1931C46.7899 70.0306 48.2852 69.6368 48.5993 68.4931L50.8711 60.2196H58.3711C60.4071 60.218 60.4086 57.0508 58.3727 57.0508Z" fill="white"/>
<path d="M57.1162 66.7755C57.774 65.9005 58.9146 64.9677 58.0818 63.9161C56.8881 62.4083 55.8834 63.7849 55.2428 64.813C54.6146 63.7849 53.6396 62.3583 52.4099 63.9161C51.5896 64.9552 52.7099 65.8911 53.3631 66.7646C52.8037 67.5068 51.574 68.5552 52.0381 69.5693C53.0209 71.7178 54.6131 69.7224 55.2412 68.7709C55.9162 69.7849 56.9553 71.4349 58.2302 69.7943C59.0724 68.7084 57.7959 67.663 57.1162 66.7755Z" fill="white"/>
<path d="M53.7294 44.5441C54.3372 45.1551 55.3622 45.1519 55.9685 44.5441C56.5763 43.9347 56.5763 42.9144 55.9685 42.305C55.3779 41.7128 54.395 41.6941 53.781 42.2582C53.1279 42.8566 53.0997 43.9176 53.7294 44.5441C53.4341 44.2519 54.0247 44.841 53.7294 44.5441Z" fill="white"/>
</svg>
