<svg width="80" height="90" viewBox="0 0 80 90" fill="none" xmlns="http://www.w3.org/2000/svg">
<g clip-path="url(#clip0)">
<path d="M34.8906 0H1.58125C0.707812 0 0 0.800542 0 1.78841V39.4616C0 40.4495 0.707812 41.25 1.58125 41.25H34.8906C35.7641 41.25 36.4719 40.4495 36.4719 39.4616V1.78841C36.4719 0.800542 35.7641 0 34.8906 0ZM33.3094 37.6732H3.1625V3.57681H33.3109V37.6732H33.3094Z" fill="white"/>
<path d="M12.4406 22.4123H16.9609V27.5249C16.9609 29.8204 20.1234 29.824 20.1234 27.5249V22.4123H24.6437C26.6734 22.4123 26.6766 18.8373 24.6437 18.8373H20.1234V13.723C20.1234 11.4274 16.9609 11.4239 16.9609 13.723V18.8355H12.4406C10.4094 18.8355 10.4063 22.4123 12.4406 22.4123Z" fill="white"/>
<path d="M78.4184 0H45.1091C44.2356 0 43.5278 0.800542 43.5278 1.78841V21.5192C43.5278 23.8148 46.6903 23.8183 46.6903 21.5192V3.57681H76.8387V37.675H46.6903V35.7646C46.6903 33.469 43.5278 33.4655 43.5278 35.7646V39.4634C43.5278 40.4512 44.2356 41.2518 45.1091 41.2518H78.42C79.2934 41.2518 80.0012 40.4512 80.0012 39.4634V1.78841C79.9997 0.800542 79.2919 0 78.4184 0Z" fill="white"/>
<path d="M68.1688 22.4149C70.1984 22.4149 70.2016 18.8398 68.1688 18.8398H55.9688C53.9391 18.8398 53.9359 22.4149 55.9688 22.4149H68.1688Z" fill="white"/>
<path d="M34.8906 48.75H1.58125C0.707812 48.75 0 49.5505 0 50.5384V88.2134C0 89.2012 0.707812 90.0018 1.58125 90.0018H34.8906C35.7641 90.0018 36.4719 89.2012 36.4719 88.2134V50.5384C36.4719 49.5505 35.7641 48.75 34.8906 48.75ZM33.3094 86.425H3.1625V52.3268H33.3109V86.425H33.3094Z" fill="white"/>
<path d="M12.4406 71.1628H24.6422C26.6719 71.1628 26.675 67.5859 24.6422 67.5859H12.4406C10.4094 67.5859 10.4063 71.1628 12.4406 71.1628Z" fill="white"/>
<path d="M78.4184 48.75H45.1091C44.2356 48.75 43.5278 49.5505 43.5278 50.5384V88.2134C43.5278 89.2012 44.2356 90.0018 45.1091 90.0018H78.42C79.2934 90.0018 80.0012 89.2012 80.0012 88.2134V50.5384C79.9997 49.5505 79.2919 48.75 78.4184 48.75ZM76.8372 86.425H46.6903V52.3268H76.8387V86.425H76.8372Z" fill="white"/>
<path d="M56.6372 75.5195C57.2482 76.2105 58.2638 76.2105 58.8732 75.5195L62.0685 71.9056L65.2638 75.5195C66.706 77.1507 68.9419 74.6218 67.4997 72.9907L64.3044 69.3767L67.4997 65.7628C68.931 64.1423 66.6997 61.6116 65.2638 63.2339L62.0685 66.8478L58.8732 63.2339C57.431 61.6028 55.195 64.1317 56.6372 65.7628L59.8326 69.3767L56.6372 72.9907C56.0263 73.6799 56.0263 74.8286 56.6372 75.5195Z" fill="white"/>
<path d="M18.541 64.6395C19.4004 64.6395 20.1223 63.823 20.1223 62.8511C20.1223 61.8791 19.4004 61.0645 18.541 61.0645C17.7067 61.0645 17.0004 61.8314 16.9629 62.7716C16.9239 63.7736 17.6535 64.6395 18.541 64.6395Z" fill="white"/>
<path d="M46.2266 29.8745C46.836 29.1889 46.8329 28.0313 46.2266 27.3457C45.6188 26.6582 44.5985 26.6582 43.9907 27.3457C43.4016 28.0119 43.3829 29.1217 43.9438 29.8162C44.5422 30.5567 45.5985 30.5849 46.2266 29.8745C45.9313 30.2068 46.5219 29.5423 46.2266 29.8745Z" fill="white"/>
<path d="M18.5402 73.7637C17.6809 73.7637 16.959 74.5801 16.959 75.5521C16.959 76.524 17.6809 77.3405 18.5402 77.3405C19.3746 77.3405 20.0809 76.5718 20.1184 75.6298C20.1574 74.6296 19.4277 73.7637 18.5402 73.7637Z" fill="white"/>
</g>
<defs>
<clipPath id="clip0">
<rect width="80" height="90" fill="white"/>
</clipPath>
</defs>
</svg>
