<svg width="57" height="56" viewBox="0 0 57 56" fill="none" xmlns="http://www.w3.org/2000/svg">
<g clip-path="url(#clip0)">
<path d="M25.0193 0H1.8415C1.23373 0 0.741211 0.49515 0.741211 1.10616V24.4077C0.741211 25.0187 1.23373 25.5139 1.8415 25.5139H25.0193C25.627 25.5139 26.1196 25.0187 26.1196 24.4077V1.10616C26.1196 0.49515 25.627 0 25.0193 0ZM23.919 23.3016H2.94178V2.21233H23.9201V23.3016H23.919Z" fill="#334D6E"/>
<path d="M9.39779 13.8621H12.5432V17.0243C12.5432 18.4442 14.7437 18.4463 14.7437 17.0243V13.8621H17.8891C19.3015 13.8621 19.3036 11.6509 17.8891 11.6509H14.7437V8.4876C14.7437 7.06773 12.5432 7.06554 12.5432 8.4876V11.6498H9.39779C7.98438 11.6498 7.9822 13.8621 9.39779 13.8621Z" fill="#334D6E"/>
<path d="M55.3073 0H32.1296C31.5218 0 31.0293 0.49515 31.0293 1.10616V13.31C31.0293 14.7299 33.2299 14.7321 33.2299 13.31V2.21233H54.2081V23.3027H33.2299V22.1211C33.2299 20.7012 31.0293 20.699 31.0293 22.1211V24.4088C31.0293 25.0198 31.5218 25.515 32.1296 25.515H55.3084C55.9162 25.515 56.4087 25.0198 56.4087 24.4088V1.10616C56.4076 0.49515 55.9151 0 55.3073 0Z" fill="#334D6E"/>
<path d="M48.1752 13.8636C49.5875 13.8636 49.5897 11.6523 48.1752 11.6523H39.686C38.2737 11.6523 38.2715 13.8636 39.686 13.8636H48.1752Z" fill="#334D6E"/>
<path d="M25.0193 30.1523H1.8415C1.23373 30.1523 0.741211 30.6475 0.741211 31.2585V54.5612C0.741211 55.1722 1.23373 55.6673 1.8415 55.6673H25.0193C25.627 55.6673 26.1196 55.1722 26.1196 54.5612V31.2585C26.1196 30.6475 25.627 30.1523 25.0193 30.1523ZM23.919 53.455H2.94178V32.3647H23.9201V53.455H23.919Z" fill="#334D6E"/>
<path d="M9.39779 44.0151H17.888C19.3004 44.0151 19.3025 41.8027 17.888 41.8027H9.39779C7.98438 41.8027 7.9822 44.0151 9.39779 44.0151Z" fill="#334D6E"/>
<path d="M55.3073 30.1523H32.1296C31.5218 30.1523 31.0293 30.6475 31.0293 31.2585V54.5612C31.0293 55.1722 31.5218 55.6673 32.1296 55.6673H55.3084C55.9162 55.6673 56.4087 55.1722 56.4087 54.5612V31.2585C56.4076 30.6475 55.9151 30.1523 55.3073 30.1523ZM54.207 53.455H33.2299V32.3647H54.2081V53.455H54.207Z" fill="#334D6E"/>
<path d="M40.1513 46.7099C40.5764 47.1373 41.2831 47.1373 41.7071 46.7099L43.9305 44.4746L46.154 46.7099C47.1575 47.7188 48.7133 46.1547 47.7098 45.1458L45.4864 42.9105L47.7098 40.6752C48.7057 39.6729 47.1531 38.1076 46.154 39.111L43.9305 41.3463L41.7071 39.111C40.7036 38.1022 39.1478 39.6663 40.1513 40.6752L42.3747 42.9105L40.1513 45.1458C39.7262 45.5721 39.7262 46.2825 40.1513 46.7099Z" fill="#334D6E"/>
<path d="M13.6426 39.9808C14.2406 39.9808 14.7429 39.4758 14.7429 38.8746C14.7429 38.2734 14.2406 37.7695 13.6426 37.7695C13.062 37.7695 12.5706 38.2439 12.5445 38.8254C12.5173 39.4452 13.0251 39.9808 13.6426 39.9808Z" fill="#334D6E"/>
<path d="M32.9071 18.4788C33.3312 18.0546 33.329 17.3387 32.9071 16.9146C32.4842 16.4894 31.7742 16.4894 31.3513 16.9146C30.9414 17.3267 30.9284 18.0131 31.3187 18.4427C31.7351 18.9007 32.4701 18.9182 32.9071 18.4788C33.1126 18.2733 32.7016 18.6842 32.9071 18.4788Z" fill="#334D6E"/>
<path d="M13.6423 45.625C13.0443 45.625 12.542 46.13 12.542 46.7312C12.542 47.3323 13.0443 47.8373 13.6423 47.8373C14.2229 47.8373 14.7143 47.3619 14.7404 46.7793C14.7676 46.1606 14.2598 45.625 13.6423 45.625Z" fill="#334D6E"/>
</g>
<defs>
<clipPath id="clip0">
<rect width="55.6667" height="55.6667" fill="white" transform="translate(0.741211)"/>
</clipPath>
</defs>
</svg>
