<svg width="203" height="248" viewBox="0 0 203 248" fill="none" xmlns="http://www.w3.org/2000/svg">
<path d="M24.0389 196.829L22.6189 193.489H15.6589L14.2189 196.829H11.6189L18.0589 182.589H20.1589L26.6189 196.829H24.0389ZM16.5189 191.489H21.7589L19.1389 185.389L16.5189 191.489ZM37.3789 186.729V196.829H34.9389V195.269C34.6189 195.829 34.1922 196.256 33.6589 196.549C33.1256 196.842 32.5122 196.989 31.8189 196.989C29.3522 196.989 28.1189 195.602 28.1189 192.829V186.729H30.5989V192.849C30.5989 193.582 30.7456 194.122 31.0389 194.469C31.3456 194.816 31.8122 194.989 32.4389 194.989C33.1722 194.989 33.7589 194.749 34.1989 194.269C34.6389 193.789 34.8589 193.149 34.8589 192.349V186.729H37.3789ZM33.5589 185.429H31.9389L33.9389 181.309H36.4989L33.5589 185.429ZM46.073 186.469C48.4863 186.469 49.693 187.856 49.693 190.629V196.829H47.193V190.749C47.193 189.949 47.0396 189.369 46.733 189.009C46.4263 188.636 45.953 188.449 45.313 188.449C44.553 188.449 43.9396 188.696 43.473 189.189C43.0063 189.669 42.773 190.309 42.773 191.109V196.829H40.293V189.589C40.293 188.522 40.2396 187.569 40.133 186.729H42.473L42.653 188.389C42.9996 187.776 43.4663 187.302 44.053 186.969C44.653 186.636 45.3263 186.469 46.073 186.469ZM64.012 186.469C66.4253 186.469 67.632 187.856 67.632 190.629V196.829H65.132V190.749C65.132 189.949 64.9787 189.369 64.672 189.009C64.3653 188.636 63.892 188.449 63.252 188.449C62.492 188.449 61.8787 188.696 61.412 189.189C60.9453 189.669 60.712 190.309 60.712 191.109V196.829H58.232V189.589C58.232 188.522 58.1787 187.569 58.072 186.729H60.412L60.592 188.389C60.9387 187.776 61.4053 187.302 61.992 186.969C62.592 186.636 63.2653 186.469 64.012 186.469ZM75.0628 196.989C74.0361 196.989 73.1295 196.776 72.3428 196.349C71.5695 195.922 70.9695 195.316 70.5428 194.529C70.1295 193.729 69.9228 192.796 69.9228 191.729C69.9228 190.662 70.1295 189.736 70.5428 188.949C70.9695 188.149 71.5695 187.536 72.3428 187.109C73.1295 186.682 74.0361 186.469 75.0628 186.469C76.0761 186.469 76.9695 186.682 77.7428 187.109C78.5161 187.536 79.1095 188.149 79.5228 188.949C79.9495 189.736 80.1628 190.662 80.1628 191.729C80.1628 192.796 79.9495 193.729 79.5228 194.529C79.1095 195.316 78.5161 195.922 77.7428 196.349C76.9695 196.776 76.0761 196.989 75.0628 196.989ZM75.0428 195.029C75.8961 195.029 76.5428 194.756 76.9828 194.209C77.4361 193.649 77.6628 192.822 77.6628 191.729C77.6628 190.649 77.4361 189.829 76.9828 189.269C76.5295 188.696 75.8895 188.409 75.0628 188.409C74.2228 188.409 73.5761 188.696 73.1228 189.269C72.6695 189.829 72.4428 190.649 72.4428 191.729C72.4428 192.822 72.6628 193.649 73.1028 194.209C73.5561 194.756 74.2028 195.029 75.0428 195.029ZM93.987 186.469C96.4003 186.469 97.607 187.856 97.607 190.629V196.829H95.107V190.749C95.107 189.949 94.9537 189.369 94.647 189.009C94.3403 188.636 93.867 188.449 93.227 188.449C92.467 188.449 91.8537 188.696 91.387 189.189C90.9203 189.669 90.687 190.309 90.687 191.109V196.829H88.207V182.109H90.687V188.189C91.0337 187.642 91.4937 187.222 92.067 186.929C92.6403 186.622 93.2803 186.469 93.987 186.469ZM110.118 186.729V196.829H107.658V195.209C107.351 195.769 106.911 196.209 106.338 196.529C105.764 196.836 105.111 196.989 104.378 196.989C103.498 196.989 102.718 196.776 102.038 196.349C101.358 195.922 100.831 195.316 100.458 194.529C100.084 193.742 99.8978 192.829 99.8978 191.789C99.8978 190.749 100.084 189.829 100.458 189.029C100.844 188.216 101.378 187.589 102.058 187.149C102.738 186.696 103.511 186.469 104.378 186.469C105.111 186.469 105.764 186.629 106.338 186.949C106.911 187.256 107.351 187.689 107.658 188.249V186.729H110.118ZM105.058 195.029C105.884 195.029 106.524 194.742 106.978 194.169C107.431 193.596 107.658 192.789 107.658 191.749C107.658 190.682 107.431 189.862 106.978 189.289C106.524 188.716 105.878 188.429 105.038 188.429C104.211 188.429 103.564 188.729 103.098 189.329C102.644 189.916 102.418 190.736 102.418 191.789C102.418 192.829 102.644 193.629 103.098 194.189C103.564 194.749 104.218 195.029 105.058 195.029ZM122.601 186.729L117.901 197.509C117.367 198.762 116.687 199.676 115.861 200.249C115.034 200.822 114.014 201.202 112.801 201.389L112.241 199.469C113.187 199.256 113.894 198.982 114.361 198.649C114.841 198.329 115.227 197.849 115.521 197.209L115.841 196.469L111.641 186.729H114.261L117.161 193.989L120.121 186.729H122.601ZM134.368 196.989C133.315 196.989 132.402 196.776 131.628 196.349C130.855 195.922 130.262 195.322 129.848 194.549C129.435 193.762 129.228 192.842 129.228 191.789C129.228 190.736 129.442 189.809 129.868 189.009C130.308 188.209 130.922 187.589 131.708 187.149C132.508 186.696 133.428 186.469 134.468 186.469C135.188 186.469 135.882 186.582 136.548 186.809C137.228 187.036 137.768 187.349 138.168 187.749L137.468 189.509C137.042 189.162 136.588 188.902 136.108 188.729C135.628 188.542 135.155 188.449 134.688 188.449C133.782 188.449 133.075 188.736 132.568 189.309C132.062 189.869 131.808 190.682 131.808 191.749C131.808 192.816 132.055 193.629 132.548 194.189C133.055 194.749 133.768 195.029 134.688 195.029C135.155 195.029 135.628 194.936 136.108 194.749C136.588 194.562 137.042 194.296 137.468 193.949L138.168 195.709C137.742 196.109 137.188 196.422 136.508 196.649C135.828 196.876 135.115 196.989 134.368 196.989ZM149.247 186.729V196.829H146.807V195.269C146.487 195.829 146.06 196.256 145.527 196.549C144.994 196.842 144.38 196.989 143.687 196.989C141.22 196.989 139.987 195.602 139.987 192.829V186.729H142.467V192.849C142.467 193.582 142.614 194.122 142.907 194.469C143.214 194.816 143.68 194.989 144.307 194.989C145.04 194.989 145.627 194.749 146.067 194.269C146.507 193.789 146.727 193.149 146.727 192.349V186.729H149.247ZM157.601 186.489C157.988 186.489 158.321 186.542 158.601 186.649L158.581 188.929C158.154 188.756 157.714 188.669 157.261 188.669C156.408 188.669 155.754 188.916 155.301 189.409C154.861 189.902 154.641 190.556 154.641 191.369V196.829H152.161V189.589C152.161 188.522 152.108 187.569 152.001 186.729H154.341L154.541 188.509C154.794 187.856 155.194 187.356 155.741 187.009C156.288 186.662 156.908 186.489 157.601 186.489ZM163.795 196.989C161.969 196.989 160.515 196.562 159.435 195.709L160.135 193.949C161.215 194.749 162.449 195.149 163.835 195.149C164.435 195.149 164.895 195.049 165.215 194.849C165.549 194.649 165.715 194.369 165.715 194.009C165.715 193.702 165.602 193.462 165.375 193.289C165.149 193.102 164.762 192.942 164.215 192.809L162.535 192.429C160.695 192.029 159.775 191.089 159.775 189.609C159.775 188.996 159.949 188.456 160.295 187.989C160.642 187.509 161.129 187.136 161.755 186.869C162.382 186.602 163.109 186.469 163.935 186.469C164.655 186.469 165.349 186.582 166.015 186.809C166.682 187.022 167.269 187.336 167.775 187.749L167.035 189.449C166.022 188.702 164.982 188.329 163.915 188.329C163.342 188.329 162.895 188.436 162.575 188.649C162.255 188.862 162.095 189.156 162.095 189.529C162.095 189.822 162.189 190.056 162.375 190.229C162.575 190.402 162.909 190.549 163.375 190.669L165.095 191.049C166.095 191.276 166.822 191.629 167.275 192.109C167.742 192.576 167.975 193.189 167.975 193.949C167.975 194.882 167.602 195.622 166.855 196.169C166.109 196.716 165.089 196.989 163.795 196.989ZM174.895 196.989C173.868 196.989 172.962 196.776 172.175 196.349C171.402 195.922 170.802 195.316 170.375 194.529C169.962 193.729 169.755 192.796 169.755 191.729C169.755 190.662 169.962 189.736 170.375 188.949C170.802 188.149 171.402 187.536 172.175 187.109C172.962 186.682 173.868 186.469 174.895 186.469C175.908 186.469 176.802 186.682 177.575 187.109C178.348 187.536 178.942 188.149 179.355 188.949C179.782 189.736 179.995 190.662 179.995 191.729C179.995 192.796 179.782 193.729 179.355 194.529C178.942 195.316 178.348 195.922 177.575 196.349C176.802 196.776 175.908 196.989 174.895 196.989ZM174.875 195.029C175.728 195.029 176.375 194.756 176.815 194.209C177.268 193.649 177.495 192.822 177.495 191.729C177.495 190.649 177.268 189.829 176.815 189.269C176.362 188.696 175.722 188.409 174.895 188.409C174.055 188.409 173.408 188.696 172.955 189.269C172.502 189.829 172.275 190.649 172.275 191.729C172.275 192.822 172.495 193.649 172.935 194.209C173.388 194.756 174.035 195.029 174.875 195.029ZM186.051 196.989C184.224 196.989 182.771 196.562 181.691 195.709L182.391 193.949C183.471 194.749 184.704 195.149 186.091 195.149C186.691 195.149 187.151 195.049 187.471 194.849C187.804 194.649 187.971 194.369 187.971 194.009C187.971 193.702 187.857 193.462 187.631 193.289C187.404 193.102 187.017 192.942 186.471 192.809L184.791 192.429C182.951 192.029 182.031 191.089 182.031 189.609C182.031 188.996 182.204 188.456 182.551 187.989C182.897 187.509 183.384 187.136 184.011 186.869C184.637 186.602 185.364 186.469 186.191 186.469C186.911 186.469 187.604 186.582 188.271 186.809C188.937 187.022 189.524 187.336 190.031 187.749L189.291 189.449C188.277 188.702 187.237 188.329 186.171 188.329C185.597 188.329 185.151 188.436 184.831 188.649C184.511 188.862 184.351 189.156 184.351 189.529C184.351 189.822 184.444 190.056 184.631 190.229C184.831 190.402 185.164 190.549 185.631 190.669L187.351 191.049C188.351 191.276 189.077 191.629 189.531 192.109C189.997 192.576 190.231 193.189 190.231 193.949C190.231 194.882 189.857 195.622 189.111 196.169C188.364 196.716 187.344 196.989 186.051 196.989ZM77.9186 211.729V221.829H75.4586V220.209C75.1519 220.769 74.7119 221.209 74.1386 221.529C73.5652 221.836 72.9119 221.989 72.1786 221.989C71.2986 221.989 70.5186 221.776 69.8386 221.349C69.1586 220.922 68.6319 220.316 68.2586 219.529C67.8852 218.742 67.6986 217.829 67.6986 216.789C67.6986 215.749 67.8852 214.829 68.2586 214.029C68.6452 213.216 69.1786 212.589 69.8586 212.149C70.5386 211.696 71.3119 211.469 72.1786 211.469C72.9119 211.469 73.5652 211.629 74.1386 211.949C74.7119 212.256 75.1519 212.689 75.4586 213.249V211.729H77.9186ZM72.8586 220.029C73.6852 220.029 74.3252 219.742 74.7786 219.169C75.2319 218.596 75.4586 217.789 75.4586 216.749C75.4586 215.682 75.2319 214.862 74.7786 214.289C74.3252 213.716 73.6786 213.429 72.8386 213.429C72.0119 213.429 71.3652 213.729 70.8986 214.329C70.4452 214.916 70.2186 215.736 70.2186 216.789C70.2186 217.829 70.4452 218.629 70.8986 219.189C71.3652 219.749 72.0186 220.029 72.8586 220.029ZM85.4214 221.989C84.3681 221.989 83.4547 221.776 82.6814 221.349C81.9081 220.922 81.3147 220.322 80.9014 219.549C80.4881 218.762 80.2814 217.842 80.2814 216.789C80.2814 215.736 80.4947 214.809 80.9214 214.009C81.3614 213.209 81.9747 212.589 82.7614 212.149C83.5614 211.696 84.4814 211.469 85.5214 211.469C86.2414 211.469 86.9347 211.582 87.6014 211.809C88.2814 212.036 88.8214 212.349 89.2214 212.749L88.5214 214.509C88.0947 214.162 87.6414 213.902 87.1614 213.729C86.6814 213.542 86.2081 213.449 85.7414 213.449C84.8347 213.449 84.1281 213.736 83.6214 214.309C83.1147 214.869 82.8614 215.682 82.8614 216.749C82.8614 217.816 83.1081 218.629 83.6014 219.189C84.1081 219.749 84.8214 220.029 85.7414 220.029C86.2081 220.029 86.6814 219.936 87.1614 219.749C87.6414 219.562 88.0947 219.296 88.5214 218.949L89.2214 220.709C88.7947 221.109 88.2414 221.422 87.5614 221.649C86.8814 221.876 86.1681 221.989 85.4214 221.989ZM94.3386 213.609V218.129C94.3386 219.316 94.8919 219.909 95.9986 219.909C96.3052 219.909 96.6386 219.856 96.9986 219.749V221.729C96.5586 221.889 96.0252 221.969 95.3986 221.969C94.2519 221.969 93.3719 221.649 92.7586 221.009C92.1452 220.369 91.8386 219.449 91.8386 218.249V213.609H89.8986V211.729H91.8386V209.269L94.3386 208.429V211.729H97.0186V213.609H94.3386ZM98.9367 221.829V211.729H101.417V221.829H98.9367ZM98.7767 207.149H101.557V209.609H98.7767V207.149ZM111.432 211.749H113.912L109.492 221.829H107.312L102.952 211.749H105.572L108.472 218.989L111.432 211.749ZM119.815 221.989C118.788 221.989 117.882 221.776 117.095 221.349C116.322 220.922 115.722 220.316 115.295 219.529C114.882 218.729 114.675 217.796 114.675 216.729C114.675 215.662 114.882 214.736 115.295 213.949C115.722 213.149 116.322 212.536 117.095 212.109C117.882 211.682 118.788 211.469 119.815 211.469C120.828 211.469 121.722 211.682 122.495 212.109C123.268 212.536 123.862 213.149 124.275 213.949C124.702 214.736 124.915 215.662 124.915 216.729C124.915 217.796 124.702 218.729 124.275 219.529C123.862 220.316 123.268 220.922 122.495 221.349C121.722 221.776 120.828 221.989 119.815 221.989ZM119.795 220.029C120.648 220.029 121.295 219.756 121.735 219.209C122.188 218.649 122.415 217.822 122.415 216.729C122.415 215.649 122.188 214.829 121.735 214.269C121.282 213.696 120.642 213.409 119.815 213.409C118.975 213.409 118.328 213.696 117.875 214.269C117.422 214.829 117.195 215.649 117.195 216.729C117.195 217.822 117.415 218.649 117.855 219.209C118.308 219.756 118.955 220.029 119.795 220.029ZM130.971 221.989C129.144 221.989 127.691 221.562 126.611 220.709L127.311 218.949C128.391 219.749 129.624 220.149 131.011 220.149C131.611 220.149 132.071 220.049 132.391 219.849C132.724 219.649 132.891 219.369 132.891 219.009C132.891 218.702 132.778 218.462 132.551 218.289C132.324 218.102 131.938 217.942 131.391 217.809L129.711 217.429C127.871 217.029 126.951 216.089 126.951 214.609C126.951 213.996 127.124 213.456 127.471 212.989C127.818 212.509 128.304 212.136 128.931 211.869C129.558 211.602 130.284 211.469 131.111 211.469C131.831 211.469 132.524 211.582 133.191 211.809C133.858 212.022 134.444 212.336 134.951 212.749L134.211 214.449C133.198 213.702 132.158 213.329 131.091 213.329C130.518 213.329 130.071 213.436 129.751 213.649C129.431 213.862 129.271 214.156 129.271 214.529C129.271 214.822 129.364 215.056 129.551 215.229C129.751 215.402 130.084 215.549 130.551 215.669L132.271 216.049C133.271 216.276 133.998 216.629 134.451 217.109C134.918 217.576 135.151 218.189 135.151 218.949C135.151 219.882 134.778 220.622 134.031 221.169C133.284 221.716 132.264 221.989 130.971 221.989Z" fill="#6F9CD6"/>
<path d="M6.53121 235.506V233.842H8.17921V235.506H6.53121ZM7.02721 244.738C6.13121 244.738 5.38988 244.509 4.80321 244.05C4.22721 243.591 3.93921 242.989 3.93921 242.242C3.93921 241.698 4.06188 241.239 4.30721 240.866C4.55255 240.493 4.91521 240.082 5.39521 239.634C5.86455 239.186 6.22188 238.786 6.46721 238.434C6.72321 238.071 6.87788 237.629 6.93121 237.106L6.97921 236.818H7.76321V237.218C7.76321 237.677 7.69388 238.082 7.55521 238.434C7.42721 238.775 7.27255 239.069 7.09121 239.314C6.90988 239.559 6.66988 239.837 6.37121 240.146C5.99788 240.519 5.72055 240.85 5.53921 241.138C5.36855 241.426 5.28321 241.767 5.28321 242.162C5.28321 242.599 5.44321 242.951 5.76321 243.218C6.08321 243.485 6.52055 243.618 7.07521 243.618C7.81121 243.618 8.55255 243.399 9.29921 242.962V244.146C8.61655 244.541 7.85921 244.738 7.02721 244.738ZM18.3268 241.522C18.7962 242.365 19.4842 243.17 20.3908 243.938L19.4788 244.77C19.0308 244.429 18.5828 243.991 18.1348 243.458C17.6868 242.935 17.2975 242.386 16.9668 241.81C16.7322 241.831 16.5455 241.842 16.4068 241.842C15.3508 241.842 14.4335 241.607 13.6548 241.138C12.8762 240.669 12.2735 239.997 11.8468 239.122C11.4308 238.237 11.2228 237.202 11.2228 236.018C11.2228 234.823 11.4308 233.789 11.8468 232.914C12.2628 232.039 12.8602 231.367 13.6388 230.898C14.4175 230.429 15.3402 230.194 16.4068 230.194C17.4735 230.194 18.3962 230.429 19.1748 230.898C19.9535 231.367 20.5508 232.039 20.9668 232.914C21.3828 233.789 21.5908 234.818 21.5908 236.002C21.5908 237.399 21.3028 238.578 20.7268 239.538C20.1615 240.487 19.3615 241.149 18.3268 241.522ZM12.5668 236.002C12.5668 237.506 12.9028 238.669 13.5748 239.49C14.2468 240.311 15.1908 240.722 16.4068 240.722C17.6122 240.722 18.5508 240.311 19.2228 239.49C19.8948 238.669 20.2308 237.506 20.2308 236.002C20.2308 234.498 19.8948 233.341 19.2228 232.53C18.5615 231.719 17.6228 231.314 16.4068 231.314C15.1908 231.314 14.2468 231.725 13.5748 232.546C12.9028 233.357 12.5668 234.509 12.5668 236.002ZM30.7342 233.666V241.714H29.4702V240.322C29.2142 240.813 28.8569 241.186 28.3982 241.442C27.9395 241.698 27.4222 241.826 26.8462 241.826C25.8969 241.826 25.1769 241.559 24.6862 241.026C24.1955 240.493 23.9502 239.703 23.9502 238.658V233.666H25.2462V238.626C25.2462 239.351 25.3955 239.885 25.6942 240.226C25.9929 240.567 26.4462 240.738 27.0542 240.738C27.7689 240.738 28.3449 240.509 28.7822 240.05C29.2195 239.581 29.4382 238.967 29.4382 238.21V233.666H30.7342ZM33.3926 241.714V233.666H34.6886V241.714H33.3926ZM33.2646 230.258H34.8486V231.73H33.2646V230.258ZM44.1011 237.65H38.1971C38.2078 238.674 38.4424 239.447 38.9011 239.97C39.3704 240.493 40.0478 240.754 40.9331 240.754C41.8718 240.754 42.7358 240.439 43.5251 239.81L43.9571 240.754C43.6051 241.085 43.1518 241.346 42.5971 241.538C42.0531 241.73 41.4931 241.826 40.9171 241.826C39.6584 241.826 38.6718 241.458 37.9571 240.722C37.2424 239.975 36.8851 238.957 36.8851 237.666C36.8851 236.845 37.0451 236.119 37.3651 235.49C37.6851 234.85 38.1331 234.354 38.7091 234.002C39.2851 233.65 39.9411 233.474 40.6771 233.474C41.7438 233.474 42.5811 233.826 43.1891 234.53C43.7971 235.223 44.1011 236.183 44.1011 237.41V237.65ZM40.6931 234.482C40.0211 234.482 39.4718 234.685 39.0451 235.09C38.6291 235.495 38.3624 236.066 38.2451 236.802H42.9331C42.8691 236.045 42.6451 235.469 42.2611 235.074C41.8878 234.679 41.3651 234.482 40.6931 234.482ZM49.9722 233.474C50.2389 233.474 50.4842 233.506 50.7082 233.57L50.6762 234.754C50.4309 234.669 50.1482 234.626 49.8282 234.626C49.0495 234.626 48.4682 234.871 48.0842 235.362C47.7109 235.842 47.5242 236.429 47.5242 237.122V241.714H46.2282V235.922C46.2282 235.09 46.1855 234.338 46.1002 233.666H47.3322L47.4602 235.154C47.6629 234.61 47.9882 234.194 48.4362 233.906C48.8842 233.618 49.3962 233.474 49.9722 233.474ZM58.7648 237.65H52.8608C52.8715 238.674 53.1062 239.447 53.5648 239.97C54.0342 240.493 54.7115 240.754 55.5968 240.754C56.5355 240.754 57.3995 240.439 58.1888 239.81L58.6208 240.754C58.2688 241.085 57.8155 241.346 57.2608 241.538C56.7168 241.73 56.1568 241.826 55.5808 241.826C54.3222 241.826 53.3355 241.458 52.6208 240.722C51.9062 239.975 51.5488 238.957 51.5488 237.666C51.5488 236.845 51.7088 236.119 52.0288 235.49C52.3488 234.85 52.7968 234.354 53.3728 234.002C53.9488 233.65 54.6048 233.474 55.3408 233.474C56.4075 233.474 57.2448 233.826 57.8528 234.53C58.4608 235.223 58.7648 236.183 58.7648 237.41V237.65ZM55.3568 234.482C54.6848 234.482 54.1355 234.685 53.7088 235.09C53.2928 235.495 53.0262 236.066 52.9088 236.802H57.5968C57.5328 236.045 57.3088 235.469 56.9248 235.074C56.5515 234.679 56.0288 234.482 55.3568 234.482ZM63.612 241.826C62.2573 241.826 61.1853 241.479 60.396 240.786L60.828 239.826C61.2653 240.167 61.708 240.413 62.156 240.562C62.604 240.711 63.1053 240.786 63.66 240.786C64.268 240.786 64.7266 240.685 65.036 240.482C65.356 240.269 65.516 239.965 65.516 239.57C65.516 239.25 65.4093 238.994 65.196 238.802C64.9826 238.61 64.6306 238.461 64.14 238.354L62.78 238.034C62.108 237.885 61.5853 237.618 61.212 237.234C60.8493 236.85 60.668 236.391 60.668 235.858C60.668 235.154 60.9506 234.583 61.516 234.146C62.0813 233.698 62.828 233.474 63.756 233.474C64.3213 233.474 64.8546 233.565 65.356 233.746C65.8573 233.927 66.2786 234.189 66.62 234.53L66.188 235.474C65.4306 234.845 64.62 234.53 63.756 234.53C63.18 234.53 62.732 234.642 62.412 234.866C62.1026 235.079 61.948 235.383 61.948 235.778C61.948 236.109 62.044 236.37 62.236 236.562C62.4386 236.754 62.7586 236.903 63.196 237.01L64.556 237.346C65.3026 237.517 65.8573 237.783 66.22 238.146C66.5826 238.498 66.764 238.962 66.764 239.538C66.764 240.231 66.4813 240.786 65.916 241.202C65.3506 241.618 64.5826 241.826 63.612 241.826ZM80.4093 233.666V241.714H79.1293V240.258C78.8947 240.759 78.5373 241.149 78.0573 241.426C77.588 241.693 77.0387 241.826 76.4093 241.826C75.6947 241.826 75.0653 241.655 74.5213 241.314C73.988 240.973 73.572 240.493 73.2733 239.874C72.9853 239.245 72.8413 238.514 72.8413 237.682C72.8413 236.85 72.9907 236.119 73.2893 235.49C73.588 234.85 74.004 234.354 74.5373 234.002C75.0813 233.65 75.7053 233.474 76.4093 233.474C77.0387 233.474 77.588 233.613 78.0573 233.89C78.5267 234.167 78.884 234.557 79.1293 235.058V233.666H80.4093ZM76.6653 240.754C77.4547 240.754 78.0627 240.487 78.4893 239.954C78.916 239.41 79.1293 238.642 79.1293 237.65C79.1293 236.658 78.916 235.895 78.4893 235.362C78.0627 234.829 77.4547 234.562 76.6653 234.562C75.876 234.562 75.2573 234.839 74.8093 235.394C74.372 235.938 74.1533 236.701 74.1533 237.682C74.1533 238.663 74.372 239.421 74.8093 239.954C75.2467 240.487 75.8653 240.754 76.6653 240.754ZM86.4511 241.826C85.6724 241.826 84.9898 241.655 84.4031 241.314C83.8271 240.973 83.3791 240.493 83.0591 239.874C82.7498 239.245 82.5951 238.514 82.5951 237.682C82.5951 236.85 82.7551 236.119 83.0751 235.49C83.3951 234.85 83.8484 234.354 84.4351 234.002C85.0324 233.65 85.7258 233.474 86.5151 233.474C87.0591 233.474 87.5818 233.57 88.0831 233.762C88.5951 233.943 89.0164 234.199 89.3471 234.53L88.9151 235.49C88.5098 235.17 88.1151 234.935 87.7311 234.786C87.3578 234.637 86.9738 234.562 86.5791 234.562C85.7578 234.562 85.1124 234.839 84.6431 235.394C84.1738 235.938 83.9391 236.701 83.9391 237.682C83.9391 238.653 84.1684 239.41 84.6271 239.954C85.0964 240.487 85.7471 240.754 86.5791 240.754C86.9738 240.754 87.3578 240.679 87.7311 240.53C88.1151 240.381 88.5098 240.146 88.9151 239.826L89.3471 240.786C89.0058 241.106 88.5738 241.362 88.0511 241.554C87.5391 241.735 87.0058 241.826 86.4511 241.826ZM92.9006 234.69V239.09C92.9006 239.687 93.0233 240.109 93.2686 240.354C93.5139 240.589 93.8606 240.706 94.3086 240.706C94.6073 240.706 94.8953 240.658 95.1726 240.562V241.666C94.8419 241.773 94.4686 241.826 94.0526 241.826C93.2846 241.826 92.6819 241.613 92.2446 241.186C91.8179 240.749 91.6046 240.109 91.6046 239.266V234.69H90.0366V233.666H91.6046V231.602L92.9006 231.138V233.666H95.2046V234.69H92.9006ZM96.9263 241.714V233.666H98.2223V241.714H96.9263ZM96.7983 230.258H98.3823V231.73H96.7983V230.258ZM106.675 233.682H107.971L104.499 241.714H103.267L99.8428 233.682H101.203L103.923 240.306L106.675 233.682ZM116.553 233.666V241.714H115.273V240.258C115.038 240.759 114.681 241.149 114.201 241.426C113.732 241.693 113.182 241.826 112.553 241.826C111.838 241.826 111.209 241.655 110.665 241.314C110.132 240.973 109.716 240.493 109.417 239.874C109.129 239.245 108.985 238.514 108.985 237.682C108.985 236.85 109.134 236.119 109.433 235.49C109.732 234.85 110.148 234.354 110.681 234.002C111.225 233.65 111.849 233.474 112.553 233.474C113.182 233.474 113.732 233.613 114.201 233.89C114.67 234.167 115.028 234.557 115.273 235.058V233.666H116.553ZM112.809 240.754C113.598 240.754 114.206 240.487 114.633 239.954C115.06 239.41 115.273 238.642 115.273 237.65C115.273 236.658 115.06 235.895 114.633 235.362C114.206 234.829 113.598 234.562 112.809 234.562C112.02 234.562 111.401 234.839 110.953 235.394C110.516 235.938 110.297 236.701 110.297 237.682C110.297 238.663 110.516 239.421 110.953 239.954C111.39 240.487 112.009 240.754 112.809 240.754ZM122.963 233.474C123.23 233.474 123.475 233.506 123.699 233.57L123.667 234.754C123.422 234.669 123.139 234.626 122.819 234.626C122.04 234.626 121.459 234.871 121.075 235.362C120.702 235.842 120.515 236.429 120.515 237.122V241.714H119.219V235.922C119.219 235.09 119.176 234.338 119.091 233.666H120.323L120.451 235.154C120.654 234.61 120.979 234.194 121.427 233.906C121.875 233.618 122.387 233.474 122.963 233.474ZM136.244 233.666V241.714H134.98V240.322C134.724 240.813 134.366 241.186 133.908 241.442C133.449 241.698 132.932 241.826 132.356 241.826C131.406 241.826 130.686 241.559 130.196 241.026C129.705 240.493 129.46 239.703 129.46 238.658V233.666H130.756V238.626C130.756 239.351 130.905 239.885 131.204 240.226C131.502 240.567 131.956 240.738 132.564 240.738C133.278 240.738 133.854 240.509 134.292 240.05C134.729 239.581 134.948 238.967 134.948 238.21V233.666H136.244ZM142.918 233.474C144.849 233.474 145.814 234.535 145.814 236.658V241.714H144.518V236.722C144.518 235.975 144.369 235.431 144.07 235.09C143.771 234.738 143.302 234.562 142.662 234.562C141.915 234.562 141.318 234.791 140.87 235.25C140.422 235.709 140.198 236.327 140.198 237.106V241.714H138.902V235.922C138.902 235.09 138.859 234.338 138.774 233.666H140.006L140.134 235.106C140.379 234.583 140.747 234.183 141.238 233.906C141.729 233.618 142.289 233.474 142.918 233.474ZM156.129 241.826C155.351 241.826 154.668 241.655 154.081 241.314C153.505 240.973 153.057 240.493 152.737 239.874C152.428 239.245 152.273 238.514 152.273 237.682C152.273 236.85 152.433 236.119 152.753 235.49C153.073 234.85 153.527 234.354 154.113 234.002C154.711 233.65 155.404 233.474 156.193 233.474C156.737 233.474 157.26 233.57 157.761 233.762C158.273 233.943 158.695 234.199 159.025 234.53L158.593 235.49C158.188 235.17 157.793 234.935 157.409 234.786C157.036 234.637 156.652 234.562 156.257 234.562C155.436 234.562 154.791 234.839 154.321 235.394C153.852 235.938 153.617 236.701 153.617 237.682C153.617 238.653 153.847 239.41 154.305 239.954C154.775 240.487 155.425 240.754 156.257 240.754C156.652 240.754 157.036 240.679 157.409 240.53C157.793 240.381 158.188 240.146 158.593 239.826L159.025 240.786C158.684 241.106 158.252 241.362 157.729 241.554C157.217 241.735 156.684 241.826 156.129 241.826ZM167.571 233.666V241.714H166.307V240.322C166.051 240.813 165.694 241.186 165.235 241.442C164.776 241.698 164.259 241.826 163.683 241.826C162.734 241.826 162.014 241.559 161.523 241.026C161.032 240.493 160.787 239.703 160.787 238.658V233.666H162.083V238.626C162.083 239.351 162.232 239.885 162.531 240.226C162.83 240.567 163.283 240.738 163.891 240.738C164.606 240.738 165.182 240.509 165.619 240.05C166.056 239.581 166.275 238.967 166.275 238.21V233.666H167.571ZM173.973 233.474C174.24 233.474 174.485 233.506 174.709 233.57L174.677 234.754C174.432 234.669 174.149 234.626 173.829 234.626C173.051 234.626 172.469 234.871 172.085 235.362C171.712 235.842 171.525 236.429 171.525 237.122V241.714H170.229V235.922C170.229 235.09 170.187 234.338 170.101 233.666H171.333L171.461 235.154C171.664 234.61 171.989 234.194 172.437 233.906C172.885 233.618 173.397 233.474 173.973 233.474ZM178.828 241.826C177.474 241.826 176.402 241.479 175.612 240.786L176.044 239.826C176.482 240.167 176.924 240.413 177.372 240.562C177.82 240.711 178.322 240.786 178.876 240.786C179.484 240.786 179.943 240.685 180.252 240.482C180.572 240.269 180.732 239.965 180.732 239.57C180.732 239.25 180.626 238.994 180.412 238.802C180.199 238.61 179.847 238.461 179.356 238.354L177.996 238.034C177.324 237.885 176.802 237.618 176.428 237.234C176.066 236.85 175.884 236.391 175.884 235.858C175.884 235.154 176.167 234.583 176.732 234.146C177.298 233.698 178.044 233.474 178.972 233.474C179.538 233.474 180.071 233.565 180.572 233.746C181.074 233.927 181.495 234.189 181.836 234.53L181.404 235.474C180.647 234.845 179.836 234.53 178.972 234.53C178.396 234.53 177.948 234.642 177.628 234.866C177.319 235.079 177.164 235.383 177.164 235.778C177.164 236.109 177.26 236.37 177.452 236.562C177.655 236.754 177.975 236.903 178.412 237.01L179.772 237.346C180.519 237.517 181.074 237.783 181.436 238.146C181.799 238.498 181.98 238.962 181.98 239.538C181.98 240.231 181.698 240.786 181.132 241.202C180.567 241.618 179.799 241.826 178.828 241.826ZM187.534 241.826C186.776 241.826 186.11 241.655 185.534 241.314C184.958 240.973 184.51 240.487 184.19 239.858C183.88 239.229 183.726 238.493 183.726 237.65C183.726 236.807 183.88 236.071 184.19 235.442C184.51 234.813 184.958 234.327 185.534 233.986C186.11 233.645 186.776 233.474 187.534 233.474C188.291 233.474 188.958 233.645 189.534 233.986C190.11 234.327 190.552 234.813 190.862 235.442C191.182 236.071 191.342 236.807 191.342 237.65C191.342 238.493 191.182 239.229 190.862 239.858C190.552 240.487 190.11 240.973 189.534 241.314C188.958 241.655 188.291 241.826 187.534 241.826ZM187.534 240.754C188.334 240.754 188.947 240.493 189.374 239.97C189.8 239.437 190.014 238.663 190.014 237.65C190.014 236.669 189.795 235.911 189.358 235.378C188.92 234.834 188.312 234.562 187.534 234.562C186.744 234.562 186.131 234.834 185.694 235.378C185.256 235.911 185.038 236.669 185.038 237.65C185.038 238.663 185.251 239.437 185.678 239.97C186.115 240.493 186.734 240.754 187.534 240.754ZM193.526 230.786C193.867 230.594 194.235 230.45 194.63 230.354C195.024 230.247 195.414 230.194 195.798 230.194C196.715 230.194 197.456 230.429 198.022 230.898C198.598 231.357 198.886 231.965 198.886 232.722C198.886 233.117 198.816 233.479 198.678 233.81C198.55 234.141 198.39 234.439 198.198 234.706C198.006 234.962 197.744 235.282 197.414 235.666C196.955 236.178 196.598 236.637 196.342 237.042C196.096 237.447 195.947 237.917 195.894 238.45L195.846 238.738H195.078V238.338C195.078 237.666 195.195 237.101 195.43 236.642C195.664 236.173 196.011 235.65 196.47 235.074C196.832 234.615 197.099 234.226 197.27 233.906C197.451 233.575 197.542 233.207 197.542 232.802C197.542 232.343 197.382 231.981 197.062 231.714C196.742 231.447 196.299 231.314 195.734 231.314C194.987 231.314 194.251 231.538 193.526 231.986V230.786ZM194.646 241.714V240.066H196.294V241.714H194.646Z" fill="#90A0B7"/>
<path d="M73.586 0H11C5.47715 0 1 4.47715 1 10V150.115C1 155.638 5.47717 160.115 11 160.115H184.242C189.765 160.115 194.242 155.638 194.242 150.115V33.189C194.242 27.6662 189.765 23.189 184.242 23.189H98.8731C95.3701 23.189 92.1225 21.3561 90.3121 18.3572L82.1469 4.83181C80.3365 1.83294 77.089 0 73.586 0Z" fill="#BEC8FD"/>
<path d="M74.1556 7.72949H9.55762V151.833H186.512V32.2988H88.7868L74.1556 7.72949Z" fill="white"/>
<path d="M60.5943 48.335H8.72949V50.7287H60.8716L78.3448 43.5476L186.512 44.146V41.4531H78.3448L60.5943 48.335Z" fill="#B2BFFF"/>
<g clip-path="url(#clip0)">
<path fill-rule="evenodd" clip-rule="evenodd" d="M90.4392 120.548C90.6752 120.169 91.2414 119.505 92.1379 118.793C93.6951 117.607 95.5825 116.895 97.8474 116.895C100.112 116.895 102.047 117.607 103.557 118.793C104.501 119.505 105.067 120.169 105.303 120.548C106.011 121.64 107.426 122.019 108.559 121.307C109.644 120.643 110.021 119.173 109.314 118.034C108.795 117.227 107.851 116.089 106.483 115.045C104.17 113.242 101.292 112.199 97.8946 112.199C94.4972 112.199 91.6189 113.242 89.3068 115.045C87.8912 116.136 86.9475 117.227 86.4756 118.034C85.7206 119.173 86.0981 120.643 87.1834 121.307C88.3158 122.019 89.7314 121.687 90.4392 120.548ZM83.8804 93.0798C83.8804 97.0649 80.6717 100.338 76.6609 100.338C72.6501 100.338 69.4414 97.0649 69.4414 93.0798C69.4414 89.0947 72.6501 85.8213 76.6609 85.8213C80.6717 85.8213 83.8804 89.0473 83.8804 93.0798ZM126.442 93.0798C126.442 97.0649 123.234 100.338 119.223 100.338C115.259 100.338 112.003 97.1123 112.003 93.0798C112.003 89.0473 115.259 85.8213 119.223 85.8213C123.234 85.8213 126.442 89.0473 126.442 93.0798Z" fill="#B2C0FC"/>
</g>
<defs>
<clipPath id="clip0">
<rect width="57.0008" height="35.8657" fill="white" transform="translate(69.4414 85.8213)"/>
</clipPath>
</defs>
</svg>
