<svg width="48" height="57" viewBox="0 0 48 57" fill="none" xmlns="http://www.w3.org/2000/svg">
<path d="M4.12716 50.7509C4.12716 52.1064 4.59326 53.3526 5.37121 54.3436H2.95583C1.53327 54.3436 1.53106 56.5653 2.95583 56.5653H45.0409C46.4635 56.5653 46.4657 54.3436 45.0409 54.3436H42.3622C43.1401 53.3537 43.6062 52.1064 43.6062 50.7509V39.038C43.6062 37.6118 41.3903 37.6107 41.3903 39.038V45.3121C38.8714 45.839 36.7965 44.0217 34.2257 44.4039V28.8255H41.3903V30.1347C41.3903 31.5609 43.6062 31.5631 43.6062 30.1347V28.7703C47.2921 28.0687 46.8569 21.9659 43.0222 21.9659H32.5938C28.768 21.9659 28.3151 28.0676 32.0098 28.7703V36.022C29.8104 35.9657 27.7807 37.3301 27.2385 39.5186H20.4949C19.9527 37.329 17.9219 35.9635 15.7236 36.022V28.8089C19.6288 28.4079 19.3753 21.9648 15.403 21.9648H4.97452C1.28754 21.9648 0.669374 27.7296 4.12716 28.7073V50.7509ZM13.4184 40.0136C13.3611 40.0257 13.4416 40.0103 13.4184 40.0136C12.408 40.2091 11.3457 40.1461 10.4102 39.6899C9.14744 39.0745 7.72929 38.8834 6.34309 39.0878V28.8255H13.5088L13.4184 40.0136ZM15.7236 50.7509V45.2369C17.923 45.2933 19.9527 43.93 20.4949 41.7403H27.2385C27.7807 43.93 29.8115 45.2944 32.0098 45.2369V50.7509C32.0098 52.1064 32.4759 53.3526 33.2538 54.3436H14.4796C15.2575 53.3526 15.7236 52.1053 15.7236 50.7509ZM31.6979 38.2437H32.0098V43.0163C30.6093 43.0926 29.3178 42.1093 29.3178 40.63C29.3178 39.3131 30.3856 38.2437 31.6979 38.2437ZM16.0355 38.2437C17.3478 38.2437 18.4156 39.3142 18.4156 40.63C18.4156 41.9458 17.3478 43.0163 16.0355 43.0163H15.7236V38.2437H16.0355ZM4.06435 25.1002C4.06435 24.5964 4.47315 24.1865 4.97562 24.1865H15.4041C16.2294 24.1865 16.5038 25.2085 16.279 25.868C16.0024 26.6811 15.3413 26.6038 14.6173 26.6038H5.23567C4.27261 26.6999 4.01035 25.8978 4.06435 25.1002ZM6.34309 50.7509V41.3448C8.85543 40.8444 10.938 42.654 13.5077 42.2552V50.7509C13.5077 52.7317 11.9 54.3425 9.92539 54.3425C7.94967 54.3425 6.34309 52.7317 6.34309 50.7509ZM34.2257 50.7509V46.6599C36.7381 46.1561 38.8207 47.9691 41.3903 47.5702V50.7509C41.3903 52.7317 39.7826 54.3425 37.808 54.3425C35.8334 54.3425 34.2257 52.7317 34.2257 50.7509ZM43.9335 25.6913C43.9335 26.5066 43.128 26.6535 42.4988 26.6049H33.1183C31.4379 26.7386 31.136 24.1877 32.5949 24.1877H43.0233C43.8707 24.1865 43.9809 25.0483 43.9335 25.6913Z" fill="#334D6E"/>
<path d="M4.2263 15.3669C6.01249 15.3669 7.4648 13.9097 7.4648 12.12C7.4648 10.3302 6.01138 8.87305 4.2263 8.87305C2.44121 8.87305 0.987793 10.3291 0.987793 12.12C0.987793 13.9097 2.44011 15.3669 4.2263 15.3669ZM4.2263 11.0936C4.79047 11.0936 5.24997 11.5543 5.24997 12.12C5.24997 12.6856 4.79157 13.1463 4.2263 13.1463C3.66212 13.1463 3.20262 12.6867 3.20262 12.12C3.20262 11.5543 3.66212 11.0936 4.2263 11.0936Z" fill="#334D6E"/>
<path d="M14.0569 8.26372C16.3291 8.26372 18.1781 6.40991 18.1781 4.13186C18.1781 1.85381 16.3302 0 14.0569 0C11.7848 0 9.93579 1.85381 9.93579 4.13186C9.93579 6.40991 11.7848 8.26372 14.0569 8.26372ZM14.0569 2.2206C15.1081 2.2206 15.9632 3.07791 15.9632 4.13186C15.9632 5.18582 15.1081 6.04312 14.0569 6.04312C13.0057 6.04312 12.1517 5.18582 12.1517 4.13186C12.1517 3.07901 13.0068 2.2206 14.0569 2.2206Z" fill="#334D6E"/>
<path d="M11.6326 15.1143C11.6326 17.3934 13.4816 19.2461 15.7537 19.2461C18.0258 19.2461 19.8748 17.3923 19.8748 15.1143C19.8748 12.8362 18.0258 10.9824 15.7537 10.9824C13.4816 10.9824 11.6326 12.8351 11.6326 15.1143ZM17.66 15.1143C17.66 16.1682 16.8049 17.0255 15.7537 17.0255C14.7025 17.0255 13.8474 16.1682 13.8474 15.1143C13.8474 14.0603 14.7025 13.203 15.7537 13.203C16.8049 13.203 17.66 14.0603 17.66 15.1143Z" fill="#334D6E"/>
<path d="M31.6032 15.3669C33.3894 15.3669 34.8417 13.9097 34.8417 12.12C34.8417 10.3302 33.3894 8.87305 31.6032 8.87305C29.8171 8.87305 28.3647 10.3302 28.3647 12.12C28.3647 13.9097 29.8171 15.3669 31.6032 15.3669ZM31.6032 11.0936C32.1674 11.0936 32.6269 11.5543 32.6269 12.12C32.6269 12.6856 32.1674 13.1463 31.6032 13.1463C31.0391 13.1463 30.5796 12.6867 30.5796 12.12C30.5807 11.5543 31.0391 11.0936 31.6032 11.0936Z" fill="#334D6E"/>
<path d="M41.4366 8.26372C43.7087 8.26372 45.5577 6.40991 45.5577 4.13186C45.5577 1.85381 43.7087 0 41.4366 0C39.1633 0 37.3154 1.85381 37.3154 4.13186C37.3154 6.40991 39.1633 8.26372 41.4366 8.26372ZM41.4366 2.2206C42.4878 2.2206 43.3429 3.07791 43.3429 4.13186C43.3429 5.18582 42.4878 6.04312 41.4366 6.04312C40.3853 6.04312 39.5303 5.18582 39.5303 4.13186C39.5303 3.07901 40.3853 2.2206 41.4366 2.2206Z" fill="#334D6E"/>
<path d="M39.0095 15.1143C39.0095 17.3934 40.8585 19.2461 43.1306 19.2461C45.4028 19.2461 47.2518 17.3923 47.2518 15.1143C47.2518 12.8362 45.4028 10.9824 43.1306 10.9824C40.8585 10.9824 39.0095 12.8351 39.0095 15.1143ZM45.0369 15.1143C45.0369 16.1682 44.1819 17.0255 43.1306 17.0255C42.0794 17.0255 41.2244 16.1682 41.2244 15.1143C41.2244 14.0603 42.0794 13.203 43.1306 13.203C44.1819 13.203 45.0369 14.0603 45.0369 15.1143Z" fill="#334D6E"/>
<path d="M42.5 33.4863C41.8984 33.4863 41.3926 33.9934 41.3926 34.5966C41.3926 35.2009 41.8984 35.7069 42.5 35.7069C43.084 35.7069 43.5799 35.2297 43.6063 34.6452C43.6339 34.0232 43.1215 33.4863 42.5 33.4863Z" fill="#334D6E"/>
</svg>
