<svg width="80" height="90" viewBox="0 0 80 90" fill="none" xmlns="http://www.w3.org/2000/svg">
<path d="M5.42865 80.7482C5.42865 82.905 6.23464 84.8878 7.57987 86.4645H3.40318C0.943271 86.4645 0.93946 89.9994 3.40318 89.9994H76.1772C78.6371 89.9994 78.6409 86.4645 76.1772 86.4645H71.5451C72.8903 84.8895 73.6963 82.905 73.6963 80.7482V62.1121C73.6963 59.8428 69.8645 59.8411 69.8645 62.1121V72.0946C65.5087 72.9331 61.9208 70.0415 57.4754 70.6497V45.8631H69.8645V47.9461C69.8645 50.2154 73.6963 50.2189 73.6963 47.9461V45.7752C80.0699 44.659 79.3173 34.949 72.6864 34.949H54.6535C48.0378 34.949 47.2547 44.6573 53.6436 45.7752V57.3134C49.8403 57.2237 46.3305 59.3946 45.3931 62.8768H33.7319C32.7944 59.3928 29.2827 57.2202 25.4814 57.3134V45.8368C32.2342 45.1987 31.7959 34.9473 24.9269 34.9473H6.89392C0.518361 34.9473 -0.550584 44.1194 5.42865 45.675V80.7482V80.7482ZM21.4952 63.6642C21.3961 63.6836 21.5352 63.659 21.4952 63.6642C19.7479 63.9754 17.9111 63.8752 16.2934 63.1492C14.1098 62.1701 11.6575 61.866 9.26046 62.1912V45.8631H21.6515L21.4952 63.6642ZM25.4814 80.7482V71.9751C29.2846 72.0647 32.7944 69.8956 33.7319 66.4117H45.3931C46.3305 69.8956 49.8423 72.0665 53.6436 71.9751V80.7482C53.6436 82.905 54.4496 84.8878 55.7948 86.4645H23.3301C24.6754 84.8878 25.4814 82.9032 25.4814 80.7482ZM53.1043 60.8483H53.6436V68.4419C51.2218 68.5632 48.9886 66.9988 48.9886 64.6451C48.9886 62.5498 50.835 60.8483 53.1043 60.8483ZM26.0206 60.8483C28.29 60.8483 30.1363 62.5516 30.1363 64.6451C30.1363 66.7386 28.29 68.4419 26.0206 68.4419H25.4814V60.8483H26.0206ZM5.32004 39.9359C5.32004 39.1343 6.02695 38.4822 6.89583 38.4822H24.9288C26.356 38.4822 26.8304 40.1081 26.4417 41.1575C25.9634 42.4513 24.8202 42.3282 23.5683 42.3282H7.34551C5.68016 42.4811 5.22667 41.205 5.32004 39.9359ZM9.26046 80.7482V65.7824C13.6048 64.9861 17.2061 67.8654 21.6495 67.2308V80.7482C21.6495 83.8999 18.8695 86.4628 15.455 86.4628C12.0386 86.4628 9.26046 83.8999 9.26046 80.7482ZM57.4754 80.7482V74.2391C61.8198 73.4375 65.421 76.3221 69.8645 75.6875V80.7482C69.8645 83.8999 67.0845 86.4628 63.6699 86.4628C60.2554 86.4628 57.4754 83.8999 57.4754 80.7482ZM74.2622 40.8763C74.2622 42.1735 72.8693 42.4073 71.7813 42.33H55.5604C52.6547 42.5427 52.1326 38.4839 54.6554 38.4839H72.6883C74.1536 38.4822 74.3441 39.8533 74.2622 40.8763Z" fill="white"/>
<path d="M5.60005 24.4495C8.68875 24.4495 11.2001 22.1309 11.2001 19.2833C11.2001 16.4357 8.68684 14.1172 5.60005 14.1172C2.51326 14.1172 0 16.434 0 19.2833C0 22.1309 2.51135 24.4495 5.60005 24.4495ZM5.60005 17.6503C6.57563 17.6503 7.37019 18.3833 7.37019 19.2833C7.37019 20.1833 6.57754 20.9163 5.60005 20.9163C4.62447 20.9163 3.82991 20.1851 3.82991 19.2833C3.82991 18.3833 4.62447 17.6503 5.60005 17.6503Z" fill="white"/>
<path d="M22.5992 13.1483C26.5282 13.1483 29.7255 10.1987 29.7255 6.57413C29.7255 2.94957 26.5301 0 22.5992 0C18.6702 0 15.4729 2.94957 15.4729 6.57413C15.4729 10.1987 18.6702 13.1483 22.5992 13.1483ZM22.5992 3.53315C24.417 3.53315 25.8956 4.8972 25.8956 6.57413C25.8956 8.25106 24.417 9.6151 22.5992 9.6151C20.7814 9.6151 19.3047 8.25106 19.3047 6.57413C19.3047 4.89895 20.7833 3.53315 22.5992 3.53315Z" fill="white"/>
<path d="M18.407 24.0487C18.407 27.6751 21.6043 30.6229 25.5333 30.6229C29.4623 30.6229 32.6596 27.6733 32.6596 24.0487C32.6596 20.4242 29.4623 17.4746 25.5333 17.4746C21.6043 17.4746 18.407 20.4224 18.407 24.0487ZM28.8297 24.0487C28.8297 25.7257 27.3511 27.0897 25.5333 27.0897C23.7155 27.0897 22.2369 25.7257 22.2369 24.0487C22.2369 22.3718 23.7155 21.0078 25.5333 21.0078C27.3511 21.0078 28.8297 22.3718 28.8297 24.0487Z" fill="white"/>
<path d="M52.9406 24.4495C56.0293 24.4495 58.5407 22.1309 58.5407 19.2833C58.5407 16.4357 56.0293 14.1172 52.9406 14.1172C49.8519 14.1172 47.3406 16.4357 47.3406 19.2833C47.3406 22.1309 49.8519 24.4495 52.9406 24.4495ZM52.9406 17.6503C53.9162 17.6503 54.7108 18.3833 54.7108 19.2833C54.7108 20.1833 53.9162 20.9163 52.9406 20.9163C51.965 20.9163 51.1705 20.1851 51.1705 19.2833C51.1724 18.3833 51.965 17.6503 52.9406 17.6503Z" fill="white"/>
<path d="M69.9444 13.1483C73.8734 13.1483 77.0707 10.1987 77.0707 6.57413C77.0707 2.94957 73.8734 0 69.9444 0C66.0135 0 62.8181 2.94957 62.8181 6.57413C62.8181 10.1987 66.0135 13.1483 69.9444 13.1483ZM69.9444 3.53315C71.7622 3.53315 73.2408 4.8972 73.2408 6.57413C73.2408 8.25106 71.7622 9.6151 69.9444 9.6151C68.1266 9.6151 66.648 8.25106 66.648 6.57413C66.648 4.89895 68.1266 3.53315 69.9444 3.53315Z" fill="white"/>
<path d="M65.7476 24.0487C65.7476 27.6751 68.9449 30.6229 72.8739 30.6229C76.8028 30.6229 80.0001 27.6733 80.0001 24.0487C80.0001 20.4242 76.8028 17.4746 72.8739 17.4746C68.9449 17.4746 65.7476 20.4224 65.7476 24.0487ZM76.1702 24.0487C76.1702 25.7257 74.6916 27.0897 72.8739 27.0897C71.0561 27.0897 69.5775 25.7257 69.5775 24.0487C69.5775 22.3718 71.0561 21.0078 72.8739 21.0078C74.6916 21.0078 76.1702 22.3718 76.1702 24.0487Z" fill="white"/>
<path d="M71.7834 53.2793C70.743 53.2793 69.8684 54.0861 69.8684 55.0459C69.8684 56.0074 70.743 56.8125 71.7834 56.8125C72.7932 56.8125 73.6507 56.0531 73.6964 55.1232C73.7441 54.1336 72.858 53.2793 71.7834 53.2793Z" fill="white"/>
</svg>
