<svg width="56" height="63" viewBox="0 0 56 63" fill="none" xmlns="http://www.w3.org/2000/svg">
<path d="M6.38532 44.8702L6.38487 44.8705L6.39022 44.8758C16.1099 54.4082 31.3354 55.5417 42.3799 47.5639C42.8565 47.2242 43.4976 47.3274 43.8389 47.7901C44.1799 48.2523 44.0771 48.8891 43.6112 49.2287C39.001 52.5744 33.5141 54.5216 27.8107 54.8443L27.7635 54.847V54.8942V54.8947V54.8951V54.8956V54.896V54.8964V54.8969V54.8973V54.8977V54.8982V54.8986V54.899V54.8994V54.8998V54.9003V54.9007V54.9011V54.9015V54.9019V54.9023V54.9027V54.9032V54.9036V54.904V54.9044V54.9048V54.9052V54.9056V54.906V54.9064V54.9067V54.9071V54.9075V54.9079V54.9083V54.9087V54.9091V54.9094V54.9098V54.9102V54.9106V54.911V54.9113V54.9117V54.9121V54.9124V54.9128V54.9132V54.9135V54.9139V54.9143V54.9146V54.915V54.9153V54.9157V54.916V54.9164V54.9167V54.9171V54.9174V54.9178V54.9181V54.9185V54.9188V54.9191V54.9195V54.9198V54.9202V54.9205V54.9208V54.9211V54.9215V54.9218V54.9221V54.9225V54.9228V54.9231V54.9234V54.9237V54.9241V54.9244V54.9247V54.925V54.9253V54.9256V54.9259V54.9262V54.9265V54.9268V54.9271V54.9274V54.9277V54.928V54.9283V54.9286V54.9289V54.9292V54.9295V54.9298V54.9301V54.9304V54.9307V54.9309V54.9312V54.9315V54.9318V54.9321V54.9323V54.9326V54.9329V54.9332V54.9334V54.9337V54.934V54.9342V54.9345V54.9348V54.935V54.9353V54.9356V54.9358V54.9361V54.9363V54.9366V54.9369V54.9371V54.9374V54.9376V54.9379V54.9381V54.9383V54.9386V54.9388V54.9391V54.9393V54.9396V54.9398V54.94V54.9403V54.9405V54.9407V54.941V54.9412V54.9414V54.9417V54.9419V54.9421V54.9423V54.9426V54.9428V54.943V54.9432V54.9435V54.9437V54.9439V54.9441V54.9443V54.9445V54.9447V54.945V54.9452V54.9454V54.9456V54.9458V54.946V54.9462V54.9464V54.9466V54.9468V54.947V54.9472V54.9474V54.9476V54.9478V54.948V54.9482V54.9484V54.9485V54.9487V54.9489V54.9491V54.9493V54.9495V54.9497V54.9498V54.95V54.9502V54.9504V54.9506V54.9507V54.9509V54.9511V54.9513V54.9514V54.9516V54.9518V54.9519V54.9521V54.9523V54.9524V54.9526V54.9528V54.9529V54.9531V54.9533V54.9534V54.9536V54.9537V54.9539V54.954V54.9542V54.9544V54.9545V54.9547V54.9548V54.955V54.9551V54.9553V54.9554V54.9555V54.9557V54.9558V54.956V54.9561V54.9563V54.9564V54.9565V54.9567V54.9568V54.9569V54.9571V54.9572V54.9573V54.9575V54.9576V54.9577V54.9579V54.958V54.9581V54.9582V54.9584V54.9585V54.9586V54.9587V54.9589V54.959V54.9591V54.9592V54.9593V54.9595V54.9596V54.9597V54.9598V54.9599V54.96V54.9601V54.9602V54.9604V54.9605V54.9606V54.9607V54.9608V54.9609V54.961V54.9611V54.9612V54.9613V54.9614V54.9615V54.9616V54.9617V54.9618V54.9619V54.962V54.9621V54.9622V54.9623V54.9624V54.9625V54.9626V54.9627V54.9628V54.9628V54.9629V54.963V54.9631V54.9632V54.9633V54.9634V54.9634V54.9635V54.9636V54.9637V54.9638V54.9639V54.9639V54.964V54.9641V54.9642V54.9642V54.9643V54.9644V54.9645V54.9645V54.9646V54.9647V54.9648V54.9648V54.9649V54.965V54.965V54.9651V54.9652V54.9653V54.9653V54.9654V54.9654V54.9655V54.9656V54.9656V54.9657V54.9658V54.9658V54.9659V54.9659V54.966V54.9661V54.9661V54.9662V54.9662V54.9663V54.9663V54.9664V54.9665V54.9665V54.9666V54.9666V54.9667V54.9667V54.9668V54.9668V54.9669V54.9669V54.967V54.967V54.9671V54.9671V54.9672V54.9672V54.9672V54.9673V54.9673V54.9674V54.9674V54.9675V54.9675V54.9675V54.9676V54.9676V54.9677V54.9677V54.9677V54.9678V54.9678V54.9679V54.9679V54.9679V54.968V54.968V54.968V54.9681V54.9681V54.9681V54.9682V54.9682V54.9682V54.9683V54.9683V54.9683V54.9684V54.9684V54.9684V54.9684V54.9685V54.9685V54.9685V54.9686V54.9686V54.9686V54.9686V54.9687V54.9687V54.9687V54.9687V54.9688V54.9688V54.9688V54.9688V54.9688V54.9689V54.9689V54.9689V54.9689V54.969V54.969V54.969V54.969V54.969V54.969V54.9691V54.9691V54.9691V54.9691V54.9691V54.9691V54.9692V54.9692V54.9692V54.9692V54.9692V54.9693V54.9693V54.9693V54.9693V54.9694V54.9694V54.9694V54.9694V54.9695V54.9695V54.9695V54.9695V54.9695V54.9695V54.9696V54.9696V54.9696V54.9696V54.9696V54.9696V54.9697V54.9697V61.4354C27.7635 62.0002 27.2984 62.463 26.7295 62.463C26.1606 62.463 25.6954 62.0002 25.6954 61.4354V54.9697V54.9202L25.6459 54.9197C17.8754 54.8444 10.4513 51.7568 4.9427 46.3132L4.94305 46.3128L4.93745 46.3086C4.85451 46.2468 4.79285 46.1855 4.73066 46.1031C4.38967 45.6511 4.48263 45.0037 4.93745 44.6646C5.39244 44.3254 6.04419 44.418 6.38532 44.8702Z" fill="#334D6E" stroke="#334D6E" stroke-width="0.1"/>
<path d="M46.9758 44.9276L46.9758 44.9277L46.9777 44.9295C47.1637 45.1145 47.2773 45.3712 47.2773 45.6484C47.2773 45.9265 47.1739 46.183 46.9777 46.3781L46.9682 46.3875L46.967 46.3886C46.5637 46.779 45.9121 46.7789 45.5088 46.3781C45.3126 46.183 45.2092 45.9265 45.2092 45.6484C45.2092 45.3825 45.3225 45.1251 45.5097 44.9286L45.5098 44.9286L45.5106 44.9276C45.6014 44.8274 45.7241 44.7555 45.8504 44.7032C46.0983 44.6005 46.3881 44.6005 46.636 44.7032C46.7623 44.7555 46.8851 44.8274 46.9758 44.9276Z" fill="#334D6E" stroke="#334D6E" stroke-width="0.1"/>
<path d="M11.5536 18.3312C12.1498 18.3312 12.6376 17.8463 12.6268 17.2428C12.6268 16.6501 12.139 16.1652 11.5319 16.176C10.9357 16.176 10.4478 16.6609 10.4587 17.2644C10.4587 17.5445 10.5779 17.8247 10.7839 18.0187C10.9899 18.2127 11.2609 18.3204 11.5536 18.3312ZM11.5536 18.3312L11.5554 18.2812C11.5551 18.2812 11.5548 18.2812 11.5545 18.2812M11.5536 18.3312V18.2812C11.5539 18.2812 11.5542 18.2812 11.5545 18.2812M11.5545 18.2812C12.1228 18.2807 12.5871 17.8184 12.5768 17.2437L12.5768 17.2428C12.5768 16.6782 12.112 16.2157 11.5328 16.2259L11.5319 16.226C10.9631 16.226 10.4983 16.6884 10.5087 17.2635L10.5087 17.2644C10.5087 17.5309 10.6223 17.7979 10.8182 17.9823C11.0145 18.1672 11.2734 18.2706 11.5545 18.2812Z" fill="#334D6E" stroke="#334D6E" stroke-width="0.1"/>
<path d="M46.5074 6.35439L46.5074 6.3544C51.2642 11.4608 53.8924 18.165 53.8815 25.1283C53.8815 25.1283 53.8815 25.1283 53.8815 25.1284L53.8315 25.1283C53.8315 30.5487 52.2271 35.8506 49.2243 40.3658L46.5074 6.35439ZM46.5074 6.35439C46.1148 5.93327 46.1452 5.28614 46.5697 4.89504C46.9936 4.50454 47.6451 4.53491 48.0386 4.95698C53.125 10.4436 55.9496 17.6514 55.9496 25.1282C55.9388 27.3337 55.6899 29.5283 55.1921 31.6797L55.192 31.68M46.5074 6.35439L55.192 31.68M55.192 31.68C54.402 35.1869 52.9628 38.5325 50.9608 41.5231C50.7639 41.8115 50.4431 41.9862 50.0916 41.9862C49.8848 41.9862 49.6887 41.9245 49.5236 41.8117L55.192 31.68Z" fill="#334D6E" stroke="#334D6E" stroke-width="0.1"/>
<mask id="path-5-inside-1" fill="white">
<path d="M25.9831 50.2608C26.5035 50.2608 27.0672 50.2608 27.5442 50.2608C28.0212 50.2608 28.6282 50.1638 29.1919 50.0991C32.2273 49.7112 35.1651 48.7844 37.8643 47.3404C40.8672 45.7563 43.5231 43.5903 45.6587 40.9609C46.2549 40.2174 46.8186 39.4415 47.3281 38.644C52.6616 30.3033 52.5966 19.6348 47.1547 11.3587C46.7969 10.8307 46.4283 10.2811 46.0706 9.80691C43.3713 6.30465 39.7939 3.57827 35.6854 1.91873C22.7852 -3.39394 7.99875 2.7054 2.66522 15.5291C-2.66831 28.3528 3.46742 43.0515 16.3676 48.3534C19.4355 49.6142 22.7202 50.2608 26.0373 50.2608H25.9831ZM48.0653 31.9412C47.9135 32.4262 47.74 32.9003 47.5557 33.3745C47.5015 33.5146 47.4582 33.6439 47.404 33.7732C47.1872 34.3012 46.9595 34.8508 46.7102 35.3142L46.6126 35.4974C46.385 35.9608 46.1356 36.4026 45.8755 36.8444C45.7996 36.9629 45.7237 37.0815 45.6587 37.2C45.3551 37.685 45.0408 38.1591 44.7047 38.6117C42.5366 36.5642 41.5176 34.7969 41.7778 33.7947C41.9946 32.965 43.2846 32.5232 44.3361 32.2969C45.5828 32.0059 46.8511 31.8335 48.1303 31.758C48.0978 31.8335 48.0761 31.8766 48.0653 31.9305V31.9412ZM36.5743 4.72055C37.0079 4.94685 37.4416 5.17315 37.8535 5.421L38.1245 5.59342C38.4823 5.80894 38.84 6.03524 39.2086 6.2831L39.6422 6.59561C39.9349 6.80035 40.2167 7.01588 40.4877 7.2314L40.9214 7.59779L41.7452 8.3198L42.103 8.65386C42.4824 9.02025 42.851 9.39742 43.187 9.78536V9.85002C43.5231 10.2272 43.8375 10.6151 44.1518 11.0138C44.2602 11.1432 44.347 11.2725 44.4554 11.4126C44.5638 11.5527 44.7264 11.8005 44.8673 11.9945C44.6505 12.3393 44.412 12.6842 44.1844 13.0721C43.7616 13.6971 43.3496 14.3221 42.9702 14.9795C42.3306 16.0571 41.8103 17.1994 41.3008 18.2986C40.9214 19.1176 40.5311 19.9689 40.1083 20.7663C38.7424 23.3203 36.6177 24.9906 34.6881 25.0768C32.7585 25.163 31.4359 23.5358 30.6771 22.2103C28.8559 19.1068 30.753 16.3265 32.9536 13.1152C34.7098 10.5612 36.5852 7.81332 36.5743 4.72055ZM2.96875 23.1586C2.96875 22.9431 3.0338 22.7276 3.05548 22.5013C3.10968 22.081 3.15304 21.65 3.22892 21.2297C3.30481 20.8094 3.33733 20.7232 3.39153 20.4646C3.44573 20.206 3.5433 19.7102 3.64086 19.387C3.73843 19.0637 3.80347 18.8589 3.8902 18.5895C3.97692 18.3201 4.08532 17.8891 4.21541 17.5119C4.3455 17.1347 4.42138 16.9731 4.52979 16.7145C4.63819 16.4558 4.78996 16.0571 4.93088 15.7338C5.07181 15.4105 5.19106 15.2166 5.32114 14.9579C5.45123 14.6993 5.62468 14.3437 5.78728 14.042L6.25343 13.2769C6.42687 12.9967 6.60032 12.7057 6.78461 12.4255L7.30496 11.6927C7.51092 11.4233 7.69521 11.1539 7.91202 10.8845C8.12883 10.6151 8.29144 10.4319 8.49741 10.2056C8.70338 9.97933 8.92019 9.69915 9.14784 9.4513L9.78743 8.8155C10.0259 8.57843 10.2644 8.34135 10.5137 8.12583C10.7631 7.9103 10.969 7.72711 11.2075 7.53313C11.446 7.33916 11.7062 7.10209 11.9772 6.90812C12.2482 6.71414 12.465 6.54172 12.7144 6.36931C12.9637 6.19689 13.2564 5.98136 13.5382 5.80894C13.8201 5.63652 14.0694 5.48566 14.3296 5.33479C14.5898 5.18392 14.9041 4.98995 15.2077 4.83908C15.5112 4.68822 15.7497 4.5589 16.0316 4.42959C16.3134 4.30027 16.6386 4.13863 16.953 4.00932C17.2674 3.88 17.5276 3.77224 17.8202 3.66448L18.7851 3.31964L19.674 3.05023L20.3027 2.88859C20.964 3.94466 21.3109 5.16237 21.3109 6.40163C21.17 9.63449 18.1888 11.7251 15.2836 13.4169L14.1995 14.0527C13.69 14.3652 13.5274 15.0334 13.8418 15.5506C14.1562 16.0679 14.8283 16.2188 15.3486 15.9062C15.6847 15.6907 16.0316 15.486 16.3785 15.2812C19.8041 13.3092 23.3055 10.7229 23.479 6.48784C23.5007 5.06538 23.1646 3.66448 22.4925 2.41444C23.6524 2.2528 24.8124 2.16659 25.9831 2.17736C28.8342 2.17736 31.6636 2.7054 34.3195 3.73991C34.8507 6.54172 33.0945 9.12801 31.2408 11.8221C28.9643 15.1627 26.3842 18.9344 28.8884 23.2125C30.7746 26.4454 33.0728 27.1566 34.7098 27.1566H34.8182C37.55 27.1027 40.336 25.0014 42.0813 21.7685C42.5366 20.9172 42.9485 20.0335 43.3388 19.1822C43.8483 18.1046 44.3253 17.027 44.8998 16.0463C45.2684 15.4321 45.6587 14.8394 46.0598 14.2575C46.114 14.1821 46.179 14.1066 46.244 14.0312C48.152 17.4365 49.1493 21.2728 49.1385 25.1738C49.1385 26.6825 48.9759 28.1803 48.6832 29.6567C47.0679 29.6998 45.4635 29.9045 43.8808 30.2494C41.5067 30.7774 40.1083 31.8011 39.7072 33.3098C39.2086 35.1849 40.4444 37.5556 43.3496 40.3467C41.832 42.0278 40.0758 43.4825 38.1245 44.6572C36.8453 39.6031 34.2111 35.4974 30.753 33.2883C27.9344 31.4779 24.4872 30.9391 21.2458 31.8011C20.6605 31.9412 20.0751 32.1137 19.5005 32.2969C18.7308 32.5663 17.9395 32.771 17.1265 32.9111C13.7225 33.4284 10.4704 29.0424 9.57062 25.6695C9.10448 24.1069 9.22372 22.4366 9.90668 20.9603C10.1235 20.4107 9.85247 19.7857 9.28877 19.5594C8.7901 19.3654 8.21556 19.5594 7.95539 20.0335C7.04478 21.9625 6.87133 24.1608 7.46756 26.2083C8.55161 30.3787 12.5843 35.7776 17.3975 35.0663C18.3189 34.9047 19.2295 34.6784 20.1076 34.3767C20.6388 34.215 21.1916 34.0426 21.7011 33.9133C24.3679 33.1913 27.219 33.6331 29.5388 35.1202C32.6067 37.0923 35.0458 41.0364 36.1299 45.7671L35.848 45.9072L35.2843 46.1658L34.5905 46.4568L34.0268 46.6723L33.3005 46.9202L32.7368 47.1034L31.9888 47.3189L31.4142 47.4697C31.1649 47.5344 30.9047 47.5775 30.6446 47.6314L30.0809 47.7499L29.257 47.8792L28.7258 47.9547L27.8043 48.0409H27.3599C26.9046 48.0409 26.4384 48.0409 25.9831 48.0409C13.2564 48.0086 2.93623 37.7819 2.88203 25.1307C2.88203 24.4733 2.88203 23.816 2.96875 23.1586Z"/>
</mask>
<path d="M25.9831 50.2608C26.5035 50.2608 27.0672 50.2608 27.5442 50.2608C28.0212 50.2608 28.6282 50.1638 29.1919 50.0991C32.2273 49.7112 35.1651 48.7844 37.8643 47.3404C40.8672 45.7563 43.5231 43.5903 45.6587 40.9609C46.2549 40.2174 46.8186 39.4415 47.3281 38.644C52.6616 30.3033 52.5966 19.6348 47.1547 11.3587C46.7969 10.8307 46.4283 10.2811 46.0706 9.80691C43.3713 6.30465 39.7939 3.57827 35.6854 1.91873C22.7852 -3.39394 7.99875 2.7054 2.66522 15.5291C-2.66831 28.3528 3.46742 43.0515 16.3676 48.3534C19.4355 49.6142 22.7202 50.2608 26.0373 50.2608H25.9831ZM48.0653 31.9412C47.9135 32.4262 47.74 32.9003 47.5557 33.3745C47.5015 33.5146 47.4582 33.6439 47.404 33.7732C47.1872 34.3012 46.9595 34.8508 46.7102 35.3142L46.6126 35.4974C46.385 35.9608 46.1356 36.4026 45.8755 36.8444C45.7996 36.9629 45.7237 37.0815 45.6587 37.2C45.3551 37.685 45.0408 38.1591 44.7047 38.6117C42.5366 36.5642 41.5176 34.7969 41.7778 33.7947C41.9946 32.965 43.2846 32.5232 44.3361 32.2969C45.5828 32.0059 46.8511 31.8335 48.1303 31.758C48.0978 31.8335 48.0761 31.8766 48.0653 31.9305V31.9412ZM36.5743 4.72055C37.0079 4.94685 37.4416 5.17315 37.8535 5.421L38.1245 5.59342C38.4823 5.80894 38.84 6.03524 39.2086 6.2831L39.6422 6.59561C39.9349 6.80035 40.2167 7.01588 40.4877 7.2314L40.9214 7.59779L41.7452 8.3198L42.103 8.65386C42.4824 9.02025 42.851 9.39742 43.187 9.78536V9.85002C43.5231 10.2272 43.8375 10.6151 44.1518 11.0138C44.2602 11.1432 44.347 11.2725 44.4554 11.4126C44.5638 11.5527 44.7264 11.8005 44.8673 11.9945C44.6505 12.3393 44.412 12.6842 44.1844 13.0721C43.7616 13.6971 43.3496 14.3221 42.9702 14.9795C42.3306 16.0571 41.8103 17.1994 41.3008 18.2986C40.9214 19.1176 40.5311 19.9689 40.1083 20.7663C38.7424 23.3203 36.6177 24.9906 34.6881 25.0768C32.7585 25.163 31.4359 23.5358 30.6771 22.2103C28.8559 19.1068 30.753 16.3265 32.9536 13.1152C34.7098 10.5612 36.5852 7.81332 36.5743 4.72055ZM2.96875 23.1586C2.96875 22.9431 3.0338 22.7276 3.05548 22.5013C3.10968 22.081 3.15304 21.65 3.22892 21.2297C3.30481 20.8094 3.33733 20.7232 3.39153 20.4646C3.44573 20.206 3.5433 19.7102 3.64086 19.387C3.73843 19.0637 3.80347 18.8589 3.8902 18.5895C3.97692 18.3201 4.08532 17.8891 4.21541 17.5119C4.3455 17.1347 4.42138 16.9731 4.52979 16.7145C4.63819 16.4558 4.78996 16.0571 4.93088 15.7338C5.07181 15.4105 5.19106 15.2166 5.32114 14.9579C5.45123 14.6993 5.62468 14.3437 5.78728 14.042L6.25343 13.2769C6.42687 12.9967 6.60032 12.7057 6.78461 12.4255L7.30496 11.6927C7.51092 11.4233 7.69521 11.1539 7.91202 10.8845C8.12883 10.6151 8.29144 10.4319 8.49741 10.2056C8.70338 9.97933 8.92019 9.69915 9.14784 9.4513L9.78743 8.8155C10.0259 8.57843 10.2644 8.34135 10.5137 8.12583C10.7631 7.9103 10.969 7.72711 11.2075 7.53313C11.446 7.33916 11.7062 7.10209 11.9772 6.90812C12.2482 6.71414 12.465 6.54172 12.7144 6.36931C12.9637 6.19689 13.2564 5.98136 13.5382 5.80894C13.8201 5.63652 14.0694 5.48566 14.3296 5.33479C14.5898 5.18392 14.9041 4.98995 15.2077 4.83908C15.5112 4.68822 15.7497 4.5589 16.0316 4.42959C16.3134 4.30027 16.6386 4.13863 16.953 4.00932C17.2674 3.88 17.5276 3.77224 17.8202 3.66448L18.7851 3.31964L19.674 3.05023L20.3027 2.88859C20.964 3.94466 21.3109 5.16237 21.3109 6.40163C21.17 9.63449 18.1888 11.7251 15.2836 13.4169L14.1995 14.0527C13.69 14.3652 13.5274 15.0334 13.8418 15.5506C14.1562 16.0679 14.8283 16.2188 15.3486 15.9062C15.6847 15.6907 16.0316 15.486 16.3785 15.2812C19.8041 13.3092 23.3055 10.7229 23.479 6.48784C23.5007 5.06538 23.1646 3.66448 22.4925 2.41444C23.6524 2.2528 24.8124 2.16659 25.9831 2.17736C28.8342 2.17736 31.6636 2.7054 34.3195 3.73991C34.8507 6.54172 33.0945 9.12801 31.2408 11.8221C28.9643 15.1627 26.3842 18.9344 28.8884 23.2125C30.7746 26.4454 33.0728 27.1566 34.7098 27.1566H34.8182C37.55 27.1027 40.336 25.0014 42.0813 21.7685C42.5366 20.9172 42.9485 20.0335 43.3388 19.1822C43.8483 18.1046 44.3253 17.027 44.8998 16.0463C45.2684 15.4321 45.6587 14.8394 46.0598 14.2575C46.114 14.1821 46.179 14.1066 46.244 14.0312C48.152 17.4365 49.1493 21.2728 49.1385 25.1738C49.1385 26.6825 48.9759 28.1803 48.6832 29.6567C47.0679 29.6998 45.4635 29.9045 43.8808 30.2494C41.5067 30.7774 40.1083 31.8011 39.7072 33.3098C39.2086 35.1849 40.4444 37.5556 43.3496 40.3467C41.832 42.0278 40.0758 43.4825 38.1245 44.6572C36.8453 39.6031 34.2111 35.4974 30.753 33.2883C27.9344 31.4779 24.4872 30.9391 21.2458 31.8011C20.6605 31.9412 20.0751 32.1137 19.5005 32.2969C18.7308 32.5663 17.9395 32.771 17.1265 32.9111C13.7225 33.4284 10.4704 29.0424 9.57062 25.6695C9.10448 24.1069 9.22372 22.4366 9.90668 20.9603C10.1235 20.4107 9.85247 19.7857 9.28877 19.5594C8.7901 19.3654 8.21556 19.5594 7.95539 20.0335C7.04478 21.9625 6.87133 24.1608 7.46756 26.2083C8.55161 30.3787 12.5843 35.7776 17.3975 35.0663C18.3189 34.9047 19.2295 34.6784 20.1076 34.3767C20.6388 34.215 21.1916 34.0426 21.7011 33.9133C24.3679 33.1913 27.219 33.6331 29.5388 35.1202C32.6067 37.0923 35.0458 41.0364 36.1299 45.7671L35.848 45.9072L35.2843 46.1658L34.5905 46.4568L34.0268 46.6723L33.3005 46.9202L32.7368 47.1034L31.9888 47.3189L31.4142 47.4697C31.1649 47.5344 30.9047 47.5775 30.6446 47.6314L30.0809 47.7499L29.257 47.8792L28.7258 47.9547L27.8043 48.0409H27.3599C26.9046 48.0409 26.4384 48.0409 25.9831 48.0409C13.2564 48.0086 2.93623 37.7819 2.88203 25.1307C2.88203 24.4733 2.88203 23.816 2.96875 23.1586Z" fill="#334D6E" stroke="#334D6E" stroke-width="0.2" mask="url(#path-5-inside-1)"/>
</svg>
