<svg width="80" height="90" viewBox="0 0 80 90" fill="none" xmlns="http://www.w3.org/2000/svg">
<path d="M8.18922 64.5866L8.18878 64.587L8.19414 64.5922C22.2579 78.3085 44.2883 79.9395 60.269 68.4601C60.969 67.9639 61.9111 68.1146 62.4126 68.7906C62.9136 69.4659 62.7623 70.3963 62.0782 70.8923C55.4003 75.7117 47.4525 78.5166 39.191 78.9815L39.1438 78.9842V79.0314V79.0321V79.0327V79.0333V79.034V79.0346V79.0352V79.0358V79.0365V79.0371V79.0377V79.0383V79.0389V79.0395V79.0401V79.0407V79.0413V79.0419V79.0425V79.0431V79.0437V79.0443V79.0449V79.0454V79.046V79.0466V79.0472V79.0477V79.0483V79.0489V79.0494V79.05V79.0506V79.0511V79.0517V79.0522V79.0528V79.0533V79.0539V79.0544V79.055V79.0555V79.056V79.0566V79.0571V79.0576V79.0582V79.0587V79.0592V79.0597V79.0603V79.0608V79.0613V79.0618V79.0623V79.0628V79.0633V79.0638V79.0643V79.0648V79.0653V79.0658V79.0663V79.0668V79.0673V79.0678V79.0683V79.0687V79.0692V79.0697V79.0702V79.0707V79.0711V79.0716V79.0721V79.0725V79.073V79.0734V79.0739V79.0744V79.0748V79.0753V79.0757V79.0762V79.0766V79.0771V79.0775V79.0779V79.0784V79.0788V79.0792V79.0797V79.0801V79.0805V79.081V79.0814V79.0818V79.0822V79.0826V79.083V79.0835V79.0839V79.0843V79.0847V79.0851V79.0855V79.0859V79.0863V79.0867V79.0871V79.0875V79.0879V79.0883V79.0886V79.089V79.0894V79.0898V79.0902V79.0906V79.0909V79.0913V79.0917V79.092V79.0924V79.0928V79.0931V79.0935V79.0939V79.0942V79.0946V79.0949V79.0953V79.0956V79.096V79.0963V79.0967V79.097V79.0974V79.0977V79.0981V79.0984V79.0987V79.0991V79.0994V79.0997V79.1001V79.1004V79.1007V79.101V79.1013V79.1017V79.102V79.1023V79.1026V79.1029V79.1032V79.1035V79.1038V79.1042V79.1045V79.1048V79.1051V79.1054V79.1057V79.1059V79.1062V79.1065V79.1068V79.1071V79.1074V79.1077V79.108V79.1082V79.1085V79.1088V79.1091V79.1094V79.1096V79.1099V79.1102V79.1104V79.1107V79.111V79.1112V79.1115V79.1118V79.112V79.1123V79.1125V79.1128V79.113V79.1133V79.1135V79.1138V79.114V79.1143V79.1145V79.1148V79.115V79.1152V79.1155V79.1157V79.1159V79.1162V79.1164V79.1166V79.1169V79.1171V79.1173V79.1175V79.1178V79.118V79.1182V79.1184V79.1186V79.1188V79.1191V79.1193V79.1195V79.1197V79.1199V79.1201V79.1203V79.1205V79.1207V79.1209V79.1211V79.1213V79.1215V79.1217V79.1219V79.1221V79.1223V79.1225V79.1227V79.1228V79.123V79.1232V79.1234V79.1236V79.1238V79.1239V79.1241V79.1243V79.1245V79.1246V79.1248V79.125V79.1252V79.1253V79.1255V79.1257V79.1258V79.126V79.1262V79.1263V79.1265V79.1266V79.1268V79.1269V79.1271V79.1273V79.1274V79.1276V79.1277V79.1279V79.128V79.1281V79.1283V79.1284V79.1286V79.1287V79.1289V79.129V79.1291V79.1293V79.1294V79.1295V79.1297V79.1298V79.1299V79.1301V79.1302V79.1303V79.1305V79.1306V79.1307V79.1308V79.131V79.1311V79.1312V79.1313V79.1314V79.1315V79.1317V79.1318V79.1319V79.132V79.1321V79.1322V79.1323V79.1324V79.1326V79.1327V79.1328V79.1329V79.133V79.1331V79.1332V79.1333V79.1334V79.1335V79.1336V79.1337V79.1338V79.1339V79.134V79.134V79.1341V79.1342V79.1343V79.1344V79.1345V79.1346V79.1347V79.1348V79.1348V79.1349V79.135V79.1351V79.1352V79.1352V79.1353V79.1354V79.1355V79.1356V79.1356V79.1357V79.1358V79.1359V79.1359V79.136V79.1361V79.1361V79.1362V79.1363V79.1363V79.1364V79.1365V79.1365V79.1366V79.1367V79.1367V79.1368V79.1369V79.1369V79.137V79.137V79.1371V79.1371V79.1372V79.1373V79.1373V79.1374V79.1374V79.1375V79.1375V79.1376V79.1376V79.1377V79.1377V79.1378V79.1378V79.1379V79.1379V79.138V79.138V79.1381V79.1381V79.1381V79.1382V79.1382V79.1383V79.1383V79.1384V79.1384V79.1384V79.1385V79.1385V79.1385V79.1386V79.1386V79.1386V79.1387V79.1387V79.1388V79.1388V79.1388V79.1388V79.1389V79.1389V79.1389V79.139V79.139V79.1391V79.1391V79.1392V79.1392V79.1393V79.1393V79.1394V79.1394V79.1395V79.1395V79.1395V79.1396V79.1396V79.1396V79.1397V79.1397V79.1397V79.1398V79.1398V79.1398V79.1399V79.1399V79.1399V79.14V79.14V79.14V88.4487C39.1438 89.2739 38.4605 89.9502 37.6244 89.9502C36.7883 89.9502 36.105 89.2739 36.105 88.4487V79.14V79.0905L36.0555 79.09C24.7999 78.9816 14.046 74.534 6.0669 66.6928L6.06724 66.6924L6.06163 66.6883C5.93987 66.598 5.8491 66.5083 5.7578 66.3879C5.25681 65.7276 5.39332 64.7818 6.06163 64.2863C6.73029 63.7905 7.68796 63.926 8.18922 64.5866Z" fill="white" stroke="white" stroke-width="0.1"/>
<path d="M66.9524 64.6671L66.9524 64.6672L66.9542 64.669C67.2276 64.9393 67.3945 65.3145 67.3945 65.7195C67.3945 66.1254 67.2426 66.5004 66.9542 66.7855L66.9405 66.799L66.9387 66.8008L66.9387 66.8008C66.3461 67.3713 65.3885 67.3712 64.7959 66.7855C64.5075 66.5004 64.3557 66.1254 64.3557 65.7195C64.3557 65.3304 64.5223 64.9546 64.7969 64.6681L64.7969 64.6681L64.7978 64.6671C64.9322 64.5195 65.1132 64.4144 65.2977 64.3384C65.6622 64.1883 66.088 64.1883 66.4524 64.3384C66.637 64.4144 66.818 64.5195 66.9524 64.6671Z" fill="white" stroke="white" stroke-width="0.1"/>
<path d="M17.1575 24.8253L17.1575 24.8262C17.1727 25.666 16.4902 26.3417 15.6546 26.3422C15.2424 26.3269 14.8621 26.176 14.5736 25.9058C14.2856 25.6361 14.1186 25.2459 14.1186 24.8563L14.1186 24.8554C14.1034 24.0153 14.7864 23.3393 15.6223 23.3393L15.6232 23.3393C16.4745 23.3243 17.1575 24.0003 17.1575 24.8253Z" fill="white" stroke="white" stroke-width="0.1"/>
<path d="M66.241 9.1635L66.241 9.16352C73.1238 16.5111 76.9267 26.1579 76.9109 36.1775M66.241 9.1635L76.8609 36.1774M66.241 9.1635C65.6641 8.54816 65.7091 7.60267 66.3325 7.03151C66.9553 6.46082 67.9127 6.50544 68.4907 7.12186L66.241 9.1635ZM76.9109 36.1775L76.8609 36.1774M76.9109 36.1775C76.9109 36.1775 76.9109 36.1774 76.9109 36.1774H76.8609M76.9109 36.1775C76.9109 43.9912 74.5852 51.634 70.2324 58.1427L70.2319 58.1435C69.7612 58.819 69.9283 59.7494 70.6113 60.2146M76.8609 36.1774C76.8609 43.9812 74.5382 51.6143 70.1909 58.1149C69.7043 58.8131 69.877 59.775 70.5832 60.2559M70.6113 60.2146L70.5832 60.2559M70.6113 60.2146C70.6114 60.2146 70.6114 60.2146 70.6114 60.2146L70.5832 60.2559M70.6113 60.2146L70.5832 60.2559M72.7233 59.7935C72.7233 59.7935 72.7233 59.7935 72.7233 59.7936L72.7647 59.8215L72.7235 59.7932C72.7234 59.7933 72.7234 59.7934 72.7233 59.7935ZM79.9498 36.1774C79.9498 36.1774 79.9498 36.1774 79.9498 36.1774H79.9996L79.9498 36.1772C79.9498 36.1772 79.9498 36.1773 79.9498 36.1774Z" fill="white" stroke="white" stroke-width="0.1"/>
<mask id="path-5-inside-1" fill="white">
<path d="M36.5439 72.3604C37.2972 72.3604 38.1133 72.3604 38.8038 72.3604C39.4944 72.3604 40.3733 72.2208 41.1894 72.1277C45.5837 71.5692 49.8369 70.235 53.7448 68.156C58.0921 65.8754 61.9372 62.757 65.0289 58.9714C65.8921 57.9009 66.7082 56.7839 67.4459 55.6358C75.1674 43.6276 75.0733 28.2682 67.1948 16.3531C66.6768 15.5929 66.1432 14.8017 65.6253 14.119C61.7175 9.0768 56.5383 5.15163 50.5902 2.7624C31.914 -4.88625 10.5071 3.89496 2.78547 22.3572C-4.93611 40.8195 3.94685 61.9812 22.623 69.6144C27.0645 71.4296 31.8199 72.3604 36.6223 72.3604H36.5439ZM68.5131 45.9858C68.2934 46.684 68.0422 47.3666 67.7754 48.0492C67.697 48.2509 67.6342 48.4371 67.5557 48.6233C67.2418 49.3835 66.9123 50.1747 66.5513 50.8418L66.41 51.1056C66.0805 51.7727 65.7195 52.4088 65.3428 53.0449C65.233 53.2156 65.1231 53.3862 65.0289 53.5569C64.5895 54.255 64.1344 54.9377 63.6479 55.5893C60.509 52.6415 59.0337 50.0971 59.4104 48.6543C59.7243 47.4597 61.5919 46.8236 63.1142 46.4978C64.9191 46.0789 66.7553 45.8307 68.6072 45.7221C68.5602 45.8307 68.5288 45.8927 68.5131 45.9703V45.9858V45.9858ZM51.8772 6.79617C52.5049 7.12198 53.1327 7.44778 53.7291 7.80461L54.1214 8.05285C54.6393 8.36314 55.1573 8.68894 55.6909 9.04577L56.3186 9.49569C56.7424 9.79047 57.1504 10.1008 57.5428 10.411L58.1706 10.9385L59.3633 11.978L59.8812 12.459C60.4305 12.9865 60.9641 13.5295 61.4507 14.088V14.1811C61.9372 14.7241 62.3923 15.2826 62.8474 15.8566C63.0044 16.0428 63.1299 16.229 63.2869 16.4307C63.4438 16.6324 63.6792 16.9892 63.8833 17.2685C63.5694 17.7649 63.2241 18.2614 62.8945 18.8199C62.2825 19.7197 61.6861 20.6196 61.1368 21.566C60.2108 23.1174 59.4575 24.762 58.7198 26.3444C58.1705 27.5235 57.6056 28.7492 56.9935 29.8973C55.016 33.5742 51.9399 35.9789 49.1463 36.1031C46.3528 36.2272 44.4381 33.8845 43.3395 31.9762C40.7028 27.508 43.4493 23.5053 46.6353 18.882C49.1777 15.205 51.8928 11.2488 51.8772 6.79617ZM3.22491 33.3415C3.22491 33.0312 3.31907 32.7209 3.35046 32.3951C3.42893 31.79 3.49171 31.1695 3.60157 30.5644C3.71143 29.9593 3.75851 29.8352 3.83699 29.4629C3.91546 29.0905 4.05671 28.3768 4.19795 27.9114C4.3392 27.446 4.43337 27.1512 4.55892 26.7633C4.68448 26.3755 4.84142 25.7549 5.02975 25.2119C5.21808 24.6689 5.32794 24.4362 5.48488 24.0638C5.64183 23.6915 5.86155 23.1174 6.06557 22.652C6.2696 22.1866 6.44223 21.9073 6.63057 21.5349C6.8189 21.1626 7.07001 20.6506 7.30542 20.2162L7.98027 19.1147C8.23138 18.7113 8.48249 18.2924 8.74929 17.889L9.50262 16.8341C9.80081 16.4462 10.0676 16.0583 10.3815 15.6705C10.6954 15.2826 10.9308 15.0189 11.229 14.6931C11.5272 14.3672 11.8411 13.9639 12.1706 13.607L13.0966 12.6917C13.4419 12.3504 13.7872 12.009 14.1481 11.6988C14.5091 11.3885 14.8073 11.1247 15.1526 10.8455C15.4978 10.5662 15.8745 10.2249 16.2668 9.94561C16.6592 9.66635 16.9731 9.41812 17.3341 9.16989C17.695 8.92166 18.1188 8.61137 18.5268 8.36313C18.9349 8.1149 19.2958 7.8977 19.6725 7.6805C20.0492 7.46329 20.5043 7.18403 20.9437 6.96683C21.3832 6.74963 21.7285 6.56345 22.1365 6.37728C22.5446 6.19111 23.0154 5.95839 23.4705 5.77221C23.9257 5.58604 24.3023 5.43089 24.7261 5.27575L26.1229 4.77928L27.4098 4.39142L28.32 4.15871C29.2774 5.67913 29.7796 7.43227 29.7796 9.21643C29.5756 13.8708 25.2597 16.8806 21.0536 19.3164L19.4842 20.2317C18.7465 20.6816 18.5111 21.6435 18.9663 22.3882C19.4214 23.1329 20.3944 23.3501 21.1478 22.9002C21.6343 22.5899 22.1365 22.2952 22.6387 22.0004C27.5981 19.1612 32.6674 15.4377 32.9185 9.34055C32.9499 7.29263 32.4633 5.27575 31.4903 3.47607C33.1696 3.24335 34.8489 3.11923 36.5439 3.13475C40.6714 3.13475 44.7676 3.89496 48.6127 5.38435C49.3818 9.41812 46.8393 13.1416 44.1556 17.0202C40.8598 21.8297 37.1245 27.2598 40.7499 33.4191C43.4807 38.0734 46.8079 39.0974 49.1777 39.0974H49.3347C53.2896 39.0198 57.3231 35.9945 59.8498 31.3401C60.509 30.1145 61.1054 28.8423 61.6704 27.6166C62.408 26.0652 63.0986 24.5137 63.9304 23.1019C64.464 22.2176 65.029 21.3643 65.6096 20.5265C65.6881 20.4179 65.7823 20.3093 65.8764 20.2007C68.6386 25.1033 70.0825 30.6264 70.0668 36.2427C70.0668 38.4147 69.8314 40.5712 69.4076 42.6967C67.0692 42.7588 64.7465 43.0536 62.4551 43.55C59.018 44.3102 56.9935 45.7841 56.4128 47.9561C55.6909 50.6557 57.48 54.0689 61.6861 58.0871C59.4889 60.5074 56.9464 62.6018 54.1214 64.2929C52.2695 57.0166 48.4558 51.1056 43.4493 47.9251C39.3688 45.3187 34.378 44.543 29.6855 45.7841C28.838 45.9858 27.9905 46.234 27.1587 46.4978C26.0444 46.8856 24.8987 47.1804 23.7216 47.3821C18.7936 48.1268 14.0853 41.8124 12.7827 36.9564C12.1079 34.7068 12.2805 32.302 13.2692 30.1765C13.5831 29.3853 13.1908 28.4854 12.3747 28.1596C11.6527 27.8804 10.8209 28.1596 10.4443 28.8423C9.12595 31.6194 8.87485 34.7843 9.73803 37.7321C11.3075 43.7362 17.1457 51.509 24.114 50.485C25.448 50.2523 26.7663 49.9265 28.0376 49.4921C28.8066 49.2594 29.607 49.0111 30.3446 48.825C34.2054 47.7855 38.333 48.4216 41.6916 50.5626C46.133 53.4017 49.6643 59.08 51.2337 65.8909L50.8256 66.0926L50.0095 66.4649L49.0051 66.8838L48.189 67.1941L47.1375 67.551L46.3214 67.8147L45.2385 68.125L44.4067 68.3422C44.0457 68.4353 43.669 68.4973 43.2924 68.5749L42.4763 68.7456L41.2835 68.9317L40.5145 69.0403L39.1805 69.1645H38.537C37.8779 69.1645 37.203 69.1645 36.5439 69.1645C18.1188 69.1179 3.17783 54.3947 3.09936 36.1806C3.09936 35.2343 3.09935 34.2879 3.22491 33.3415Z"/>
</mask>
<path d="M36.5439 72.3604C37.2972 72.3604 38.1133 72.3604 38.8038 72.3604C39.4944 72.3604 40.3733 72.2208 41.1894 72.1277C45.5837 71.5692 49.8369 70.235 53.7448 68.156C58.0921 65.8754 61.9372 62.757 65.0289 58.9714C65.8921 57.9009 66.7082 56.7839 67.4459 55.6358C75.1674 43.6276 75.0733 28.2682 67.1948 16.3531C66.6768 15.5929 66.1432 14.8017 65.6253 14.119C61.7175 9.0768 56.5383 5.15163 50.5902 2.7624C31.914 -4.88625 10.5071 3.89496 2.78547 22.3572C-4.93611 40.8195 3.94685 61.9812 22.623 69.6144C27.0645 71.4296 31.8199 72.3604 36.6223 72.3604H36.5439ZM68.5131 45.9858C68.2934 46.684 68.0422 47.3666 67.7754 48.0492C67.697 48.2509 67.6342 48.4371 67.5557 48.6233C67.2418 49.3835 66.9123 50.1747 66.5513 50.8418L66.41 51.1056C66.0805 51.7727 65.7195 52.4088 65.3428 53.0449C65.233 53.2156 65.1231 53.3862 65.0289 53.5569C64.5895 54.255 64.1344 54.9377 63.6479 55.5893C60.509 52.6415 59.0337 50.0971 59.4104 48.6543C59.7243 47.4597 61.5919 46.8236 63.1142 46.4978C64.9191 46.0789 66.7553 45.8307 68.6072 45.7221C68.5602 45.8307 68.5288 45.8927 68.5131 45.9703V45.9858V45.9858ZM51.8772 6.79617C52.5049 7.12198 53.1327 7.44778 53.7291 7.80461L54.1214 8.05285C54.6393 8.36314 55.1573 8.68894 55.6909 9.04577L56.3186 9.49569C56.7424 9.79047 57.1504 10.1008 57.5428 10.411L58.1706 10.9385L59.3633 11.978L59.8812 12.459C60.4305 12.9865 60.9641 13.5295 61.4507 14.088V14.1811C61.9372 14.7241 62.3923 15.2826 62.8474 15.8566C63.0044 16.0428 63.1299 16.229 63.2869 16.4307C63.4438 16.6324 63.6792 16.9892 63.8833 17.2685C63.5694 17.7649 63.2241 18.2614 62.8945 18.8199C62.2825 19.7197 61.6861 20.6196 61.1368 21.566C60.2108 23.1174 59.4575 24.762 58.7198 26.3444C58.1705 27.5235 57.6056 28.7492 56.9935 29.8973C55.016 33.5742 51.9399 35.9789 49.1463 36.1031C46.3528 36.2272 44.4381 33.8845 43.3395 31.9762C40.7028 27.508 43.4493 23.5053 46.6353 18.882C49.1777 15.205 51.8928 11.2488 51.8772 6.79617ZM3.22491 33.3415C3.22491 33.0312 3.31907 32.7209 3.35046 32.3951C3.42893 31.79 3.49171 31.1695 3.60157 30.5644C3.71143 29.9593 3.75851 29.8352 3.83699 29.4629C3.91546 29.0905 4.05671 28.3768 4.19795 27.9114C4.3392 27.446 4.43337 27.1512 4.55892 26.7633C4.68448 26.3755 4.84142 25.7549 5.02975 25.2119C5.21808 24.6689 5.32794 24.4362 5.48488 24.0638C5.64183 23.6915 5.86155 23.1174 6.06557 22.652C6.2696 22.1866 6.44223 21.9073 6.63057 21.5349C6.8189 21.1626 7.07001 20.6506 7.30542 20.2162L7.98027 19.1147C8.23138 18.7113 8.48249 18.2924 8.74929 17.889L9.50262 16.8341C9.80081 16.4462 10.0676 16.0583 10.3815 15.6705C10.6954 15.2826 10.9308 15.0189 11.229 14.6931C11.5272 14.3672 11.8411 13.9639 12.1706 13.607L13.0966 12.6917C13.4419 12.3504 13.7872 12.009 14.1481 11.6988C14.5091 11.3885 14.8073 11.1247 15.1526 10.8455C15.4978 10.5662 15.8745 10.2249 16.2668 9.94561C16.6592 9.66635 16.9731 9.41812 17.3341 9.16989C17.695 8.92166 18.1188 8.61137 18.5268 8.36313C18.9349 8.1149 19.2958 7.8977 19.6725 7.6805C20.0492 7.46329 20.5043 7.18403 20.9437 6.96683C21.3832 6.74963 21.7285 6.56345 22.1365 6.37728C22.5446 6.19111 23.0154 5.95839 23.4705 5.77221C23.9257 5.58604 24.3023 5.43089 24.7261 5.27575L26.1229 4.77928L27.4098 4.39142L28.32 4.15871C29.2774 5.67913 29.7796 7.43227 29.7796 9.21643C29.5756 13.8708 25.2597 16.8806 21.0536 19.3164L19.4842 20.2317C18.7465 20.6816 18.5111 21.6435 18.9663 22.3882C19.4214 23.1329 20.3944 23.3501 21.1478 22.9002C21.6343 22.5899 22.1365 22.2952 22.6387 22.0004C27.5981 19.1612 32.6674 15.4377 32.9185 9.34055C32.9499 7.29263 32.4633 5.27575 31.4903 3.47607C33.1696 3.24335 34.8489 3.11923 36.5439 3.13475C40.6714 3.13475 44.7676 3.89496 48.6127 5.38435C49.3818 9.41812 46.8393 13.1416 44.1556 17.0202C40.8598 21.8297 37.1245 27.2598 40.7499 33.4191C43.4807 38.0734 46.8079 39.0974 49.1777 39.0974H49.3347C53.2896 39.0198 57.3231 35.9945 59.8498 31.3401C60.509 30.1145 61.1054 28.8423 61.6704 27.6166C62.408 26.0652 63.0986 24.5137 63.9304 23.1019C64.464 22.2176 65.029 21.3643 65.6096 20.5265C65.6881 20.4179 65.7823 20.3093 65.8764 20.2007C68.6386 25.1033 70.0825 30.6264 70.0668 36.2427C70.0668 38.4147 69.8314 40.5712 69.4076 42.6967C67.0692 42.7588 64.7465 43.0536 62.4551 43.55C59.018 44.3102 56.9935 45.7841 56.4128 47.9561C55.6909 50.6557 57.48 54.0689 61.6861 58.0871C59.4889 60.5074 56.9464 62.6018 54.1214 64.2929C52.2695 57.0166 48.4558 51.1056 43.4493 47.9251C39.3688 45.3187 34.378 44.543 29.6855 45.7841C28.838 45.9858 27.9905 46.234 27.1587 46.4978C26.0444 46.8856 24.8987 47.1804 23.7216 47.3821C18.7936 48.1268 14.0853 41.8124 12.7827 36.9564C12.1079 34.7068 12.2805 32.302 13.2692 30.1765C13.5831 29.3853 13.1908 28.4854 12.3747 28.1596C11.6527 27.8804 10.8209 28.1596 10.4443 28.8423C9.12595 31.6194 8.87485 34.7843 9.73803 37.7321C11.3075 43.7362 17.1457 51.509 24.114 50.485C25.448 50.2523 26.7663 49.9265 28.0376 49.4921C28.8066 49.2594 29.607 49.0111 30.3446 48.825C34.2054 47.7855 38.333 48.4216 41.6916 50.5626C46.133 53.4017 49.6643 59.08 51.2337 65.8909L50.8256 66.0926L50.0095 66.4649L49.0051 66.8838L48.189 67.1941L47.1375 67.551L46.3214 67.8147L45.2385 68.125L44.4067 68.3422C44.0457 68.4353 43.669 68.4973 43.2924 68.5749L42.4763 68.7456L41.2835 68.9317L40.5145 69.0403L39.1805 69.1645H38.537C37.8779 69.1645 37.203 69.1645 36.5439 69.1645C18.1188 69.1179 3.17783 54.3947 3.09936 36.1806C3.09936 35.2343 3.09935 34.2879 3.22491 33.3415Z" fill="white" stroke="white" stroke-width="0.2" mask="url(#path-5-inside-1)"/>
</svg>
