<svg width="26" height="32" viewBox="0 0 26 32" fill="none" xmlns="http://www.w3.org/2000/svg">
<path d="M16.8235 5.90799H2.03922C0.917647 5.90799 0 6.42927 0 7.19383V30.5825C0 31.1386 0.509804 31.6599 1.27451 31.8684C1.52941 31.9379 1.78431 31.9726 2.03922 31.9726C2.6 31.9726 3.1098 31.8337 3.51764 31.5556L9.27844 27.42L15.3451 31.5903C15.9059 31.9726 16.8235 32.1117 17.5882 31.9032C18.3529 31.6946 18.8627 31.1734 18.8627 30.6173V7.22862C18.8627 6.4293 17.9451 5.90799 16.8235 5.90799ZM14.7843 27.2115L10.7059 24.3965C10.298 24.1185 9.78824 23.9795 9.27844 23.9795C8.71765 23.9795 8.20784 24.1533 7.79999 24.4313L4.12942 27.1072V8.68822H14.8353V27.2115H14.7843ZM26 1.04259V24.4313C26 25.0916 25.1843 25.6476 24.2157 25.6476C23.2471 25.6476 22.4314 25.0916 22.4314 24.4313V2.4327H11.7255V2.88451C11.7255 3.54481 10.9098 4.10086 9.94118 4.10086C8.97255 4.10086 8.15686 3.54481 8.15686 2.88451V1.04259C8.15686 0.382282 8.71765 0 9.68628 0H24.4706C25.4392 0 26 0.382282 26 1.04259Z" fill="#5570FF"/>
</svg>
